<svg width="80" height="84" viewBox="0 0 80 84" fill="none" xmlns="http://www.w3.org/2000/svg">
<path d="M80 80.0625C80 82.1953 78.2812 84 76.25 84H3.75C1.71875 84 0 82.1953 0 80.0625V3.9375C0 1.80469 1.71875 0 3.75 0H76.25C78.2812 0 80 1.80469 80 3.9375V80.0625Z" fill="#1E1E1E"/>
<path d="M67.7344 40.7695L58.5156 27.3164C58.0469 26.6602 56.9531 26.0859 56.1719 26.0859H37.1094C36.3281 26.0859 35.3125 26.6602 34.8438 27.3164L32.2656 31.0078L38.9844 40.7695C39.2188 41.0977 39.375 41.5898 39.375 42C39.375 42.4102 39.2188 42.9023 38.9844 43.2305L32.2656 52.9922L34.8438 56.6836C35.3125 57.3398 36.3281 57.9141 37.1094 57.9141H56.1719C56.9531 57.9141 58.0469 57.3398 58.5156 56.6836L67.7344 43.2305C67.9688 42.9023 68.125 42.4102 68.125 42C68.125 41.5898 67.9688 41.0977 67.7344 40.7695ZM51.9531 30.5977C52.8906 30.5977 53.5938 31.3359 53.5938 32.3203C53.5938 33.3047 52.8906 34.043 51.9531 34.043C51.0156 34.043 50.3125 33.3047 50.3125 32.3203C50.3125 31.3359 51.0156 30.5977 51.9531 30.5977Z" fill="white"/>
<path d="M36.0938 42C36.0938 42.4922 35.9375 42.9023 35.7031 43.2305L26.4062 56.6836C25.9375 57.3398 24.8438 57.9141 24.0625 57.9141H12.6562C12.1094 57.9141 11.7969 57.668 11.7969 57.2578C11.7969 57.0938 11.875 56.8477 12.0312 56.6836L22.1875 42L12.0312 27.3164L11.7969 26.7422C11.7969 26.332 12.1094 26.0859 12.6562 26.0859H24.0625C24.8438 26.0859 25.9375 26.6602 26.4062 27.3164L35.7031 40.7695C35.9375 41.0977 36.0938 41.5898 36.0938 42Z" fill="white"/>
</svg>
