<svg width="80" height="84" viewBox="0 0 80 84" fill="none" xmlns="http://www.w3.org/2000/svg">
<path d="M40 84C62.0914 84 80 65.196 80 42C80 18.804 62.0914 0 40 0C17.9086 0 0 18.804 0 42C0 65.196 17.9086 84 40 84Z" fill="#FB542B"/>
<path d="M45.8203 21.8367C46.0547 21.8367 46.2813 21.9434 46.4297 22.132L49.4297 25.766C49.4688 25.7578 49.5078 25.7496 49.5469 25.7414C50.2656 25.6102 51.0156 25.5609 51.7266 25.643C52.6406 25.7578 53.4219 26.0942 54 26.7094C54.6094 27.3574 55.2109 28.0219 55.7813 28.6617C55.9844 28.8832 56.1641 29.0883 56.3281 29.277C56.3828 29.3426 56.4375 29.4 56.4766 29.4492C56.7422 29.7609 56.8047 30.1219 56.6875 30.4336L55.9141 32.468L56.9453 35.618C57 35.782 57.0078 35.9625 56.9609 36.1266C56.9531 36.1594 56.9531 36.1594 56.9219 36.2988C56.875 36.4957 56.875 36.4957 56.8047 36.7828C56.6797 37.2996 56.5313 37.882 56.3828 38.5055C55.9453 40.2938 55.5 42.082 55.0938 43.7473C54.0781 47.8652 53.4141 50.5805 53.2578 51.2613C52.3828 54.9445 51.6953 56.2242 49.4609 57.9059C47.5 59.3824 43.4141 62.3356 42.6328 62.8606C42.5547 62.9098 42.4766 62.9672 42.3672 63.0492C42.3281 63.082 42.1172 63.2297 42.0547 63.2707C41.6719 63.5496 41.3984 63.7219 41.1094 63.8695C40.7344 64.05 40.3828 64.1567 40.0156 64.1567C39.6563 64.1567 39.2969 64.05 38.9219 63.8695C38.625 63.7219 38.3594 63.5496 37.9766 63.2707C37.9141 63.2297 37.7109 63.0738 37.6641 63.0492C37.5547 62.9672 37.4688 62.9098 37.3984 62.8606C36.6094 62.3356 32.5234 59.3742 30.5703 57.9059C28.3359 56.2242 27.6406 54.9445 26.7734 51.2613C26.6094 50.5887 25.9453 47.8734 24.9375 43.7801C24.5156 42.082 24.0781 40.2938 23.6406 38.5055C23.4844 37.882 23.3438 37.2996 23.2109 36.7828C23.1406 36.4957 23.1406 36.4957 23.0938 36.2988C23.0625 36.1594 23.0625 36.1594 23.0547 36.1266C23.0156 35.9543 23.0234 35.782 23.0703 35.618L24.1016 32.468L23.3281 30.4336C23.2109 30.1219 23.2734 29.7609 23.4844 29.5149C23.5781 29.4082 23.6328 29.3508 23.6875 29.2852C23.8516 29.1047 24.0313 28.8996 24.2344 28.6699C24.8047 28.0301 25.4063 27.3656 26.0156 26.7176C26.5938 26.0942 27.375 25.766 28.2891 25.6512C29 25.5609 29.75 25.6102 30.4688 25.7496C30.5078 25.7578 30.5469 25.766 30.5859 25.7742L33.5859 22.1402C33.7422 21.9516 33.9609 21.8449 34.1953 21.8449H45.8203V21.8367ZM45.4531 23.5758H34.5469L31.4766 27.3082C31.2734 27.5625 30.9453 27.6609 30.6484 27.5707C30.6328 27.5625 30.5938 27.5543 30.5313 27.5379C30.4297 27.5133 30.3047 27.4887 30.1719 27.4641C29.5938 27.3574 29 27.3164 28.4609 27.382C27.8828 27.4559 27.4375 27.6445 27.1484 27.9563C26.5547 28.5961 25.9531 29.2442 25.3906 29.8758C25.2578 30.0234 25.1328 30.1629 25.0156 30.2942L25.7109 32.1152C25.7891 32.3121 25.7891 32.5336 25.7266 32.7305L24.6797 35.9379C24.7109 36.0527 24.7188 36.0938 24.7813 36.3317C24.9063 36.8484 25.0547 37.4309 25.2031 38.0543C25.6406 39.8426 26.0859 41.6309 26.4922 43.2961C27.5078 47.4305 28.1719 50.1375 28.3359 50.8184C29.1172 54.1324 29.6172 55.0512 31.4922 56.4621C33.4297 57.9223 37.4922 60.859 38.25 61.3676C38.3438 61.4332 38.4453 61.4988 38.5703 61.5891C38.6172 61.6219 38.8203 61.7695 38.875 61.8106C39.1875 62.0402 39.3984 62.1715 39.6016 62.2699C39.7734 62.3602 39.9141 62.393 40 62.393C40.0938 62.393 40.2266 62.352 40.3984 62.2699C40.5938 62.1715 40.8047 62.032 41.1172 61.8106C41.1719 61.7695 41.3828 61.6219 41.4297 61.5891C41.5547 61.4988 41.6563 61.425 41.75 61.3676C42.5078 60.859 46.5703 57.9223 48.5078 56.4621C50.3828 55.0512 50.8828 54.1324 51.6641 50.8184C51.8281 50.1375 52.4922 47.4223 53.5 43.3207C53.9219 41.6227 54.3594 39.8344 54.7969 38.0461C54.9531 37.4227 55.0938 36.8402 55.2188 36.3234C55.2813 36.0856 55.2891 36.0445 55.3203 35.9297L54.2734 32.7305C54.2109 32.5336 54.2109 32.3121 54.2891 32.1152L54.9844 30.2942C54.8672 30.1629 54.7422 30.0234 54.6094 29.8758C54.0469 29.2442 53.4453 28.5961 52.8516 27.9563C52.5625 27.6445 52.1172 27.4559 51.5391 27.382C51.0078 27.3164 50.4063 27.3574 49.8281 27.4641C49.6953 27.4887 49.5781 27.5133 49.4688 27.5379C49.4063 27.5543 49.3672 27.5625 49.3516 27.5707C49.0469 27.6609 48.7266 27.5543 48.5234 27.3082L45.4531 23.5758ZM40 47.9637C40.2188 47.9637 41.6406 48.4969 42.7812 49.1285C43.9219 49.7602 44.75 50.2031 45.0078 50.3836C45.2734 50.5559 45.1094 50.8922 44.8672 51.0727C44.625 51.2531 41.3906 53.9356 41.0781 54.2309C40.7656 54.5262 40.3047 55.0184 39.9922 55.0184C39.6797 55.0184 39.2188 54.5262 38.9063 54.2309C38.5938 53.9356 35.3594 51.2613 35.1172 51.0727C34.875 50.8922 34.7188 50.5559 34.9766 50.3836C35.2422 50.2031 36.0703 49.7602 37.2031 49.1285C38.3594 48.4969 39.7813 47.9637 40 47.9637ZM40.0078 28.8914C40.0625 28.8914 40.6953 28.9078 41.6172 29.2359C42.5859 29.5805 43.6406 30.0152 44.125 30.0152C44.6094 30.0152 48.2109 29.277 48.2109 29.277C48.2109 29.277 52.4766 34.7895 52.4766 35.9707C52.4766 37.152 51.9375 37.4637 51.3984 38.0707C50.8594 38.6859 48.5 41.3602 48.2031 41.7047C47.8984 42.0492 47.2734 42.566 47.6406 43.5094C48.0078 44.4445 48.5547 45.6422 47.9531 46.8481C47.3438 48.0621 46.3047 48.866 45.6328 48.7348C44.9688 48.6035 43.3984 47.7258 42.8203 47.3238C42.2422 46.9219 40.4141 45.3141 40.4141 44.6988C40.4141 44.0836 42.3047 42.9762 42.6484 42.7219C43 42.4676 44.5859 41.4996 44.6172 41.1141C44.6484 40.7285 44.6406 40.6219 44.1641 39.6785C43.6953 38.7352 42.8516 37.4719 42.9922 36.6352C43.1328 35.7984 44.5 35.3637 45.4688 34.9699C46.4375 34.5762 48.3125 33.8379 48.5469 33.7231C48.7813 33.6082 48.7188 33.5016 48.0156 33.4277C47.3047 33.3539 45.2969 33.0668 44.3906 33.3375C43.4844 33.6082 41.9375 34.0184 41.8047 34.2399C41.6797 34.4613 41.5703 34.4613 41.6953 35.216C41.8281 35.9707 42.4844 39.5801 42.5547 40.2199C42.6172 40.8598 42.7422 41.2863 42.1016 41.4422C41.4531 41.5981 40.3672 41.877 39.9922 41.877C39.6172 41.877 38.5313 41.5981 37.8828 41.4422C37.2344 41.2863 37.3594 40.8598 37.4297 40.2199C37.4922 39.5801 38.1563 35.9625 38.2891 35.216C38.4141 34.4613 38.3047 34.4531 38.1797 34.2399C38.0547 34.0184 36.5078 33.6082 35.5938 33.3375C34.6875 33.0668 32.6719 33.3539 31.9688 33.4277C31.2578 33.5016 31.2031 33.6082 31.4375 33.7231C31.6719 33.8379 33.5469 34.5844 34.5156 34.9699C35.4922 35.3637 36.8516 35.7984 36.9922 36.6352C37.1328 37.4719 36.2891 38.7352 35.8203 39.6785C35.3516 40.6219 35.3359 40.7367 35.3672 41.1141C35.3984 41.4914 36.9922 42.4676 37.3359 42.7219C37.6875 42.9762 39.5703 44.0836 39.5703 44.6988C39.5703 45.3141 37.7422 46.9301 37.1641 47.3238C36.5859 47.7258 35.0234 48.6035 34.3516 48.7348C33.6875 48.866 32.6406 48.0621 32.0313 46.8481C31.4219 45.634 31.9688 44.4445 32.3438 43.5094C32.7188 42.5742 32.0859 42.0492 31.7813 41.7047C31.4766 41.3602 29.125 38.6859 28.5859 38.0707C28.0469 37.4555 27.5078 37.1438 27.5078 35.9707C27.5078 34.7895 31.7734 29.277 31.7734 29.277C31.7734 29.277 35.375 30.0152 35.8594 30.0152C36.3438 30.0152 37.3984 29.5805 38.3672 29.2359C39.3516 28.8914 40 28.8914 40.0078 28.8914Z" fill="white"/>
</svg>
