<svg width="80" height="84" viewBox="0 0 80 84" fill="none" xmlns="http://www.w3.org/2000/svg">
<path d="M72.125 20.1469L41.9375 1.9031C41.4375 1.57498 40.75 1.44373 40 1.44373C39.25 1.44373 38.5625 1.6406 38.0625 1.9031L8.0625 20.2125C7 20.8687 6.25 22.5094 6.25 23.7562V60.3094C6.25 61.0312 6.375 61.8844 6.875 62.6062L73.625 21.9187C73.25 21.1312 72.6875 20.5406 72.125 20.1469Z" fill="#659AD3"/>
<path d="M6.6875 62.5406C7 63.0656 7.4375 63.525 7.875 63.7875L38 82.0969C38.5 82.425 39.1875 82.5563 39.9375 82.5563C40.6875 82.5563 41.375 82.3594 41.875 82.0969L71.875 63.7875C72.9375 63.1313 73.6875 61.4907 73.6875 60.2438V23.6906C73.6875 23.1 73.625 22.4438 73.3125 21.8531L6.6875 62.5406Z" fill="#03599C"/>
<path d="M53.3125 49.9406C50.6875 54.7969 45.6875 58.0781 40 58.0781C31.5625 58.0781 24.6875 50.8594 24.6875 42C24.6875 33.1406 31.5625 25.9219 40 25.9219C45.6875 25.9219 50.6875 29.2031 53.3125 34.125L61.4375 29.2031C57.1875 21.3938 49.1875 16.0781 40 16.0781C26.375 16.0781 15.3125 27.6938 15.3125 42C15.3125 56.3062 26.375 67.9219 40 67.9219C49.125 67.9219 57.125 62.6719 61.375 54.9281L53.3125 49.9406Z" fill="white"/>
</svg>
