<svg width="104" height="102" viewBox="0 0 104 102" fill="none" xmlns="http://www.w3.org/2000/svg">
<path d="M92 45.999C92 69.1958 74.093 88 52.0009 88C29.9087 88 12 69.1958 12 45.999C12 22.8036 29.909 4 52.0009 4C74.093 4 92 22.8033 92 45.999Z" fill="#E95420"/>
<path d="M31.2408 45.999C31.2408 48.9813 28.9381 51.3997 26.0959 51.3997C23.257 51.3997 20.9543 48.9816 20.9543 45.999C20.9543 43.0178 23.257 40.6 26.0959 40.6C28.9381 40.6 31.2408 43.0178 31.2408 45.999ZM60.5 72.256C61.9204 74.8368 65.0644 75.7219 67.5242 74.2326C69.9838 72.7411 70.8265 69.4382 69.4064 66.8553C67.9862 64.2728 64.842 63.3897 62.3824 64.8808C59.9225 66.3723 59.0798 69.6735 60.5 72.256ZM69.4061 25.1441C70.8262 22.5609 69.9852 19.2589 67.5239 17.7692C65.0658 16.278 61.9204 17.1629 60.4997 19.7449C59.0796 22.3274 59.9223 25.6292 62.3821 27.1203C64.842 28.6115 67.9876 27.7266 69.4061 25.1441ZM52.0008 30.6005C59.664 30.6005 65.9522 36.7684 66.609 44.6361L74.0518 44.5128C73.6984 38.667 71.2834 33.4095 67.562 29.5328C65.5921 30.3308 63.3064 30.2224 61.3345 29.0261C59.3612 27.8298 58.1287 25.8046 57.8028 23.6106C55.9531 23.0831 54.0074 22.8007 52.0008 22.8007C48.4812 22.8007 45.1544 23.6648 42.2001 25.2019L45.8216 32.0303C47.6983 31.1146 49.7944 30.6005 52.0008 30.6005ZM37.334 45.999C37.334 40.7903 39.7989 36.184 43.5703 33.3988L39.749 26.6915C35.3226 29.7954 32.0254 34.5299 30.6343 40.0808C32.2805 41.4727 33.3352 43.6063 33.3352 45.9993C33.3352 48.3936 32.2802 50.5273 30.6343 51.9194C32.0254 57.4701 35.3226 62.2046 39.749 65.3102L43.5703 58.603C39.7989 55.8156 37.334 51.2112 37.334 45.999ZM52.0008 61.4004C49.7947 61.4004 47.6986 60.8865 45.8216 59.9691L42.2001 66.7975C45.1544 68.3358 48.481 69.199 52.0008 69.199C54.0072 69.199 55.9531 68.9187 57.8028 68.3903C58.1285 66.1948 59.3609 64.1696 61.3345 62.9754C63.3064 61.7791 65.5921 61.6703 67.562 62.4684C71.2837 58.5899 73.6984 53.3324 74.0518 47.4866L66.609 47.3654C65.952 55.231 59.664 61.4004 52.0008 61.4004Z" fill="white"/>
</svg>
