<svg width="80" height="84" viewBox="0 0 80 84" fill="none" xmlns="http://www.w3.org/2000/svg">
<path opacity="0.2" d="M40 81.375C59.33 81.375 75 64.9215 75 44.625C75 24.3285 59.33 7.875 40 7.875C20.67 7.875 5 24.3285 5 44.625C5 64.9215 20.67 81.375 40 81.375Z" fill="black"/>
<path d="M40 78.75C59.33 78.75 75 62.2965 75 42C75 21.7035 59.33 5.25 40 5.25C20.67 5.25 5 21.7035 5 42C5 62.2965 20.67 78.75 40 78.75Z" fill="#F9548F"/>
<path opacity="0.2" d="M20.098 36.0727C20.3627 35.2056 20.4101 34.6855 20.5111 34.1828C19.7814 35.1809 20.1747 35.3939 20.098 36.0727ZM21.446 30.0536C21.5775 31.3534 20.5318 31.8584 21.6774 31.0004C22.2925 29.5196 21.4381 30.5918 21.446 30.0536ZM41.465 18.6742C42.0344 18.4516 42.8657 18.5518 43.4718 18.4051C42.6829 18.4757 41.8978 18.518 41.123 18.6236L41.4655 18.6742L41.465 18.6742ZM59.7855 42.9476L59.6619 43.2807C59.4351 45.0052 58.9435 46.7116 58.1918 48.2944C59.0225 46.6248 59.5581 44.7982 59.7855 42.9476V42.9476ZM36.6005 48.3367C36.3056 47.9895 36.1347 47.5723 35.9389 47.1551C36.1251 47.8859 36.5066 48.514 36.8605 49.1536L36.6003 48.3374L36.6005 48.3367ZM35.2905 48.3918L35.1714 49.0236C35.7262 49.8292 36.1664 50.7017 36.8735 51.3293C36.3644 50.2679 35.9869 49.8292 35.2905 48.3919L35.2905 48.3918ZM42.1955 19.3752L41.878 19.4458L42.173 19.4169L42.1955 19.3752ZM41.298 19.1085C41.7483 19.1941 42.2709 19.2605 42.1958 19.3758C42.6902 19.2593 42.8014 19.1543 41.298 19.1085ZM50.6905 41.3005C50.7932 39.6767 50.3919 40.1908 50.2571 40.8093C50.414 40.8974 50.5387 41.9546 50.6905 41.3005ZM49.0205 45.9493C49.5244 45.2077 49.8901 44.3967 50.0193 43.558C49.9059 44.1554 49.604 44.6713 49.3173 45.2168C47.7411 46.2782 49.1683 44.5868 49.3162 43.9429C47.622 46.2257 49.0825 45.3115 49.0205 45.9493L49.0205 45.9493ZM44.4955 47.1542C43.6523 47.166 44.654 47.6176 45.7551 47.7993C46.0604 47.5446 46.3346 47.2888 46.5807 47.039C45.8962 47.2182 45.1986 47.2224 44.4955 47.1542V47.1542ZM20.1007 36.0741C20.3655 35.2078 20.4127 34.6881 20.5137 34.1841C19.7842 35.1816 20.1775 35.3942 20.1007 36.0741ZM21.4483 30.0555C21.5798 31.3553 20.5341 31.8604 21.6797 31.0023C22.2952 29.5218 21.4407 30.5928 21.4487 30.0547L21.4483 30.0555ZM41.4657 18.6734C42.0351 18.4508 42.8663 18.5509 43.4724 18.4043C42.6835 18.4749 41.8985 18.5171 41.1237 18.6227L41.4657 18.6734V18.6734ZM59.7867 42.9489L59.6631 43.282C59.4362 45.0066 58.9447 46.7131 58.193 48.296C59.0237 46.6263 59.5592 44.7998 59.7866 42.9489L59.7867 42.9489ZM36.6019 48.3375C36.3085 47.9899 36.1358 47.5723 35.9405 47.1571C36.1267 47.8879 36.5082 48.5161 36.8621 49.1557L36.6019 48.3374V48.3375ZM35.2921 48.3918L35.173 49.0235C35.7278 49.8291 36.1679 50.7017 36.875 51.3293C36.366 50.2678 35.9885 49.8291 35.2921 48.3916V48.3918ZM42.1964 19.3723L41.8798 19.4429L42.1749 19.4139L42.1964 19.3723H42.1964ZM54.7714 41.9735C54.8179 43.3369 54.4072 43.9994 54.0356 45.171L53.3675 45.5339C52.8213 46.693 53.4217 46.2698 53.0306 47.1913C52.177 48.0192 50.4439 49.781 49.8891 49.9423C49.4835 49.9323 50.1635 49.4197 50.2524 49.2194C49.111 50.0749 49.3363 50.5038 47.5904 51.0247L47.5397 50.8999C43.2355 53.1121 37.256 48.729 37.3345 42.7496C37.289 43.1288 37.2038 43.034 37.1087 43.1864C36.8865 40.1101 38.4098 37.0205 40.9787 35.7571C43.4917 34.3993 46.4374 34.9557 48.2359 36.7892C47.248 35.375 45.2797 33.8757 42.9489 34.0143C40.6645 34.055 38.5267 35.6402 37.8139 37.3617C36.6441 38.1659 36.5077 40.4634 35.9982 40.8842C35.3115 46.392 37.2884 48.7705 40.6332 51.5703C41.1582 51.9575 40.781 52.0167 40.8512 52.3113C39.7403 51.7436 38.7234 50.8858 37.8865 49.8356C38.3309 50.545 38.8098 51.2346 39.4294 51.7763C38.381 51.3897 36.9812 49.0038 36.5737 48.9067C38.3796 52.4381 43.8996 55.1001 46.7916 53.7789C45.4534 53.8331 43.7539 53.8088 42.2514 53.2022C41.6184 52.8473 40.7612 52.113 40.9147 51.9759C44.8604 53.5848 48.9352 53.1938 52.3484 50.2057C53.2176 49.4664 54.1662 48.2097 54.4406 48.1927C54.0278 48.871 54.5114 48.5189 54.1941 49.1176C55.0581 47.5934 53.8174 48.4969 55.0881 46.4856L55.5572 47.191C55.3815 45.9246 56.9963 44.3888 56.832 42.3875C57.2024 41.7758 57.2448 43.0466 56.8519 44.4541C57.3971 42.8926 56.9961 42.6414 57.1356 41.3523C57.286 41.7857 57.486 42.2457 57.5877 42.7033C57.2323 41.1938 57.951 40.1622 58.1298 39.2845C57.9531 39.1999 57.5815 39.9516 57.4958 38.1694C57.509 37.3952 57.6937 37.7637 57.7644 37.573C57.6259 37.4855 57.2606 36.8918 57.039 35.7536C57.1986 35.4855 57.4689 36.4471 57.688 36.4861C57.5469 35.5814 57.3046 34.8913 57.2942 34.1966C56.6535 32.735 57.0674 34.3919 56.5486 33.5691C55.8666 31.2475 57.1139 33.0302 57.1986 31.976C58.231 33.6097 58.8195 36.1437 59.0908 37.1924C58.8841 35.9131 58.5508 34.6733 58.1432 33.4741C58.4578 33.6191 57.6373 30.8425 58.5518 32.6812C57.5718 28.7624 54.3744 25.1002 51.4319 23.3822C51.7919 23.7418 52.2468 24.193 52.0844 24.2642C50.6194 23.3134 50.8769 23.2383 50.6669 22.8364C49.4744 22.3067 49.3968 22.88 48.6068 22.8378C46.3593 21.5352 45.9269 21.6736 43.8594 20.8585L43.9534 21.3393C42.4648 20.7976 42.2188 21.5436 40.6102 21.3405C40.5125 21.2575 41.1259 21.038 41.6312 20.9584C40.1916 21.1661 40.2588 20.6481 38.8502 21.0154C39.1969 20.7496 39.5648 20.573 39.9348 20.3473C38.7613 20.4251 37.1323 21.0933 37.6349 20.485C35.7205 21.4183 32.3199 22.7281 30.4117 24.6823L30.3517 24.2444C29.4774 25.3905 26.539 27.6677 26.3047 29.1537L26.0706 29.2129C25.6165 30.0543 25.3214 31.0075 24.9607 31.8726C24.366 32.9803 24.0885 32.2992 24.1733 32.473C23.0029 35.0644 22.4206 37.2416 21.9188 39.0282C22.2764 39.6122 21.9278 42.5452 22.0625 44.8922C21.4755 56.4857 29.5125 67.741 38.2975 70.3392C39.5851 70.8431 41.4995 70.8251 43.1282 70.8747C41.2071 70.2743 40.959 70.557 39.0865 69.8443C37.7363 69.149 37.4408 68.3561 36.484 67.4493L36.8627 68.1801C34.9871 67.4549 35.7719 67.2828 34.2455 66.7552L34.6501 66.179C34.0451 66.1291 33.0426 65.0607 32.7676 64.4675L32.102 64.4963C31.3032 63.4207 30.8769 62.6436 30.9084 62.0415L30.6934 62.4602C30.4501 62.0037 27.753 58.4209 29.1521 59.2551C28.8922 58.9967 28.5465 58.8336 28.1719 58.0892L28.4566 57.7343C27.7844 56.7879 27.2176 55.5752 27.261 55.1711C27.6201 55.7004 27.8692 55.7998 28.1161 55.8907C26.4157 51.2835 26.3201 55.6373 25.0329 51.2011L25.3047 51.1775C25.0964 50.8326 24.9688 50.4608 24.8014 50.0945L24.9202 48.805C23.697 47.2589 24.5785 42.232 24.7557 39.4758C24.877 38.3549 25.7772 37.1605 26.4597 35.2889L26.0433 35.2111C26.84 33.6942 30.5913 29.1169 32.3295 29.3518C33.1712 28.1972 32.1621 29.3473 31.9973 29.0572C33.8466 26.9675 34.4279 27.5809 35.6758 27.2045C37.0208 26.3327 34.5209 27.5454 35.1585 26.8721C37.4853 26.2237 36.8068 25.397 39.8415 25.068C40.1619 25.2666 39.099 25.375 38.8324 25.6329C40.7701 24.5968 44.9654 24.8333 47.6916 26.2074C50.8521 27.8219 54.4059 32.5922 54.5464 37.0804L54.706 37.1272C54.6254 38.9116 54.9561 40.9752 54.3821 42.8702L54.7701 41.9724L54.7714 41.9735ZM41.3026 19.1036C41.7529 19.1893 42.2755 19.2557 42.2005 19.371C42.6948 19.2545 42.806 19.1495 41.3026 19.1036ZM50.6976 41.2975C50.8003 39.6736 50.3991 40.1878 50.2642 40.8063C50.4211 40.8944 50.5458 41.9516 50.6976 41.2975ZM49.0255 45.9464C49.5295 45.2048 49.8951 44.3937 50.0244 43.5549C49.9109 44.1523 49.609 44.6683 49.3223 45.2138C47.7462 46.2752 49.1734 44.5838 49.3212 43.9399C47.6271 46.2227 49.0876 45.3085 49.0255 45.9463L49.0255 45.9464ZM44.5013 47.1526C43.6582 47.1647 44.6598 47.6161 45.7608 47.7977C46.0661 47.543 46.3404 47.2872 46.5864 47.0373C45.9019 47.2166 45.2044 47.2208 44.5013 47.1526Z" fill="black"/>
<path d="M20.098 33.4478C20.3628 32.5815 20.41 32.0618 20.511 31.5578C19.7815 32.5553 20.1748 32.7679 20.098 33.4478ZM21.446 27.4287C21.5775 28.728 20.5318 29.2347 21.6773 28.3763C22.2925 26.8958 21.438 27.9668 21.446 27.4287ZM41.465 16.0493C42.035 15.8267 42.865 15.9267 43.4725 15.7802C42.6825 15.8508 41.8975 15.8931 41.1225 15.9986L41.465 16.0493ZM59.785 40.3227L59.6614 40.6557C59.4346 42.3803 58.943 44.0866 58.1913 45.6695C59.022 43.9998 59.5576 42.1732 59.785 40.3226V40.3227ZM36.6 45.7118C36.3052 45.3645 36.1342 44.9474 35.9384 44.5302C36.1247 45.2609 36.5062 45.8891 36.86 46.5287L36.6 45.7123L36.6 45.7118ZM35.29 45.7675L35.17 46.4001C35.7247 47.2056 36.1649 48.0782 36.872 48.7057C36.363 47.6443 35.9855 47.2056 35.289 45.7684L35.29 45.7675ZM42.194 16.7516L41.8765 16.8222L42.1715 16.7934L42.194 16.7516ZM41.2965 16.4849C41.7469 16.5706 42.2695 16.637 42.1944 16.7522C42.6894 16.6359 42.7994 16.5309 41.2969 16.485L41.2965 16.4849ZM50.6894 38.677C50.7921 37.0532 50.3908 37.5673 50.256 38.1858C50.4129 38.2739 50.5376 39.3311 50.6894 38.677ZM49.0194 43.3259C49.5233 42.5843 49.889 41.7733 50.0182 40.9345C49.9048 41.5319 49.6029 42.0478 49.3162 42.5933C47.74 43.6547 49.1672 41.9634 49.3151 41.3195C47.6209 43.6022 49.0814 42.6881 49.0194 43.3259L49.0194 43.3259ZM44.4944 44.5307C43.6512 44.5426 44.6529 44.9942 45.754 45.1758C46.0592 44.9212 46.3335 44.6653 46.5796 44.4155C45.8951 44.5947 45.1975 44.5989 44.4944 44.5308V44.5307ZM20.0996 33.4506C20.3643 32.5835 20.4117 32.0634 20.5127 31.5607C19.783 32.5588 20.1763 32.7718 20.0996 33.4506ZM21.4472 27.432C21.5787 28.7318 20.533 29.2369 21.6786 28.3788C22.2941 26.8983 21.4396 27.9693 21.4476 27.4312L21.4472 27.432ZM41.4646 16.05C42.034 15.8273 42.8652 15.9275 43.4713 15.7808C42.6824 15.8514 41.8974 15.8937 41.1226 15.9993L41.4646 16.05V16.05ZM59.7856 40.3255L59.662 40.6585C59.4351 42.3832 58.9436 44.0897 58.1919 45.6725C59.0226 44.0028 59.5581 42.1763 59.7855 40.3254L59.7856 40.3255ZM36.6008 45.714C36.3074 45.3664 36.1347 44.9489 35.9394 44.5337C36.1256 45.2644 36.5071 45.8926 36.8609 46.5323L36.6008 45.714V45.714ZM35.291 45.7683L35.1719 46.4001C35.7266 47.2057 36.1668 48.0783 36.8739 48.7058C36.3649 47.6444 35.9874 47.2057 35.291 45.7682V45.7683ZM42.1952 16.7488L41.8787 16.8194L42.1738 16.7904L42.1953 16.7488H42.1952ZM54.7703 39.3501C54.8168 40.7135 54.406 41.3759 54.0345 42.5476L53.3664 42.9104C52.8202 44.0695 53.4206 43.6463 53.0295 44.5678C52.1759 45.3957 50.4428 47.1575 49.888 47.3188C49.4824 47.3089 50.1624 46.7963 50.2513 46.5959C49.1098 47.4515 49.3351 47.8804 47.5893 48.4012L47.5386 48.2765C43.2344 50.4886 37.2549 46.1055 37.3334 40.1261C37.2879 40.5053 37.2027 40.4105 37.1076 40.5629C36.8854 37.4867 38.4086 34.397 40.9776 33.1336C43.4906 31.7759 46.4363 32.3323 48.2348 34.1658C47.2469 32.7516 45.2786 31.2523 42.9478 31.3909C40.6634 31.4315 38.5256 33.0167 37.8128 34.7383C36.643 35.5425 36.5066 37.84 35.9971 38.2608C35.3103 43.7686 37.2873 46.1471 40.6321 48.9469C41.157 49.334 40.7799 49.3933 40.8501 49.6879C39.7392 49.1201 38.7223 48.2624 37.8854 47.2122C38.3297 47.9215 38.8087 48.6111 39.4283 49.1529C38.3799 48.7663 36.9801 46.3804 36.5725 46.2832C38.3785 49.8146 43.8985 52.4767 46.7905 51.1555C45.4522 51.2096 43.7528 51.1854 42.2503 50.5788C41.6173 50.2238 40.7601 49.4896 40.9136 49.3525C44.8593 50.9614 48.9341 50.5703 52.3473 47.5822C53.2164 46.8429 54.1651 45.5862 54.4395 45.5693C54.0266 46.2476 54.5103 45.8954 54.193 46.4942C55.057 44.97 53.8163 45.8734 55.0869 43.8621L55.5561 44.5675C55.3804 43.3012 56.9952 41.7653 56.8308 39.764C57.2013 39.1523 57.2437 40.4232 56.8508 41.8306C57.396 40.2691 56.995 40.018 57.1345 38.7289C57.2849 39.1623 57.4848 39.6222 57.5867 40.0799C57.2311 38.5703 57.9499 37.5387 58.1287 36.6611C57.952 36.5764 57.5804 37.3281 57.4947 35.546C57.5079 34.7717 57.6926 35.1402 57.7633 34.9495C57.6248 34.862 57.2595 34.2684 57.0379 33.1301C57.1975 32.8621 57.4678 33.8237 57.6869 33.8626C57.5458 32.958 57.3035 32.2679 57.2931 31.5732C56.6524 30.1116 57.0663 31.7684 56.5475 30.9456C55.8654 28.624 57.1128 30.4067 57.1975 29.3526C58.2299 30.9863 58.8184 33.5203 59.0897 34.569C58.883 33.2897 58.5497 32.0498 58.142 30.8506C58.4567 30.9957 57.6362 28.2191 58.5507 30.0578C57.5707 26.1389 54.3732 22.4768 51.4307 20.7587C51.7907 21.1183 52.2457 21.5696 52.0832 21.6407C50.6182 20.6899 50.8757 20.6149 50.6657 20.213C49.4732 19.6833 49.3957 20.2566 48.6057 20.2143C46.3582 18.9118 45.9257 19.0501 43.8582 18.235L43.9523 18.7159C42.4637 18.1741 42.2177 18.9202 40.6091 18.717C40.5114 18.6341 41.1248 18.4145 41.6301 18.335C40.1905 18.5426 40.2577 18.0246 38.8491 18.392C39.1958 18.1262 39.5637 17.9495 39.9337 17.7238C38.7602 17.8017 37.1312 18.4699 37.6338 17.8615C35.7194 18.7949 32.3188 20.1047 30.4106 22.0589L30.3506 21.621C29.4763 22.7671 26.5379 25.0442 26.3036 26.5302L26.0695 26.5895C25.6154 27.4309 25.3203 28.384 24.9596 29.2491C24.3649 30.3569 24.0874 29.6758 24.1722 29.8496C23.0018 32.441 22.4195 34.6181 21.9177 36.4047C22.2753 36.9888 21.9267 39.9217 22.0614 42.2687C21.4744 53.8623 29.5114 65.1175 38.2964 67.7157C39.584 68.2197 41.4984 68.2016 43.1271 68.2513C41.206 67.6508 40.9579 67.9335 39.0854 67.2208C37.7352 66.5256 37.4396 65.7327 36.4829 64.8258L36.8616 65.5566C34.9859 64.8315 35.7708 64.6594 34.2444 64.1317L34.649 63.5555C34.044 63.5057 33.0415 62.4373 32.7665 61.844L32.1009 61.8728C31.3021 60.7972 30.8758 60.0202 30.9073 59.418L30.6923 59.8368C30.449 59.3803 27.7518 55.7974 29.151 56.6317C28.8911 56.3732 28.5454 56.2101 28.1708 55.4658L28.4555 55.1108C27.7833 54.1645 27.2164 52.9518 27.2599 52.5477C27.619 53.077 27.868 53.1763 28.115 53.2672C26.4145 48.6601 26.3189 53.0138 25.0318 48.5776L25.3036 48.554C25.0953 48.2092 24.9677 47.8373 24.8003 47.4711L24.9191 46.1816C23.6959 44.6355 24.5774 39.6086 24.7546 36.8523C24.8759 35.7315 25.7761 34.5371 26.4586 32.6655L26.0422 32.5876C26.8389 31.0707 30.5902 26.4934 32.3284 26.7283C33.1701 25.5737 32.161 26.7239 31.9962 26.4338C33.8455 24.3441 34.4268 24.9575 35.6747 24.5811C37.0197 23.7092 34.5198 24.9219 35.1574 24.2487C37.4842 23.6003 36.8057 22.7735 39.8404 22.4446C40.1608 22.6432 39.0979 22.7515 38.8313 23.0095C40.769 21.9734 44.9643 22.2098 47.6905 23.5839C50.851 25.1985 54.4048 29.9687 54.5453 34.457L54.7049 34.5038C54.6243 36.2882 54.955 38.3518 54.381 40.2468L54.769 39.3489L54.7703 39.3501ZM41.3015 16.4802C41.7518 16.5659 42.2744 16.6323 42.1994 16.7475C42.6937 16.6311 42.8049 16.5261 41.3015 16.4802ZM50.6965 38.674C50.7992 37.0502 50.398 37.5643 50.2631 38.1828C50.42 38.2709 50.5447 39.3282 50.6965 38.674ZM49.0244 43.3229C49.5284 42.5813 49.894 41.7703 50.0233 40.9315C49.9098 41.5289 49.6079 42.0448 49.3212 42.5903C47.7451 43.6518 49.1723 41.9604 49.3201 41.3165C47.626 43.5993 49.0865 42.6851 49.0244 43.3229L49.0244 43.3229ZM44.5002 44.5292C43.6571 44.5412 44.6587 44.9926 45.7597 45.1742C46.065 44.9196 46.3393 44.6637 46.5853 44.4139C45.9008 44.5931 45.2033 44.5973 44.5002 44.5292Z" fill="white"/>
<path opacity="0.2" d="M40 5.25C30.7174 5.25 21.815 9.12186 15.2513 16.0138C8.68749 22.9058 5 32.2533 5 42C5.00769 42.5131 5.02561 43.026 5.05375 43.5382C5.32274 33.9911 9.12113 24.929 15.6441 18.2719C22.1671 11.6148 30.9023 7.88583 39.9987 7.875C49.0239 7.88091 57.6981 11.5472 64.21 18.1085C70.722 24.6697 74.5685 33.6186 74.9463 43.0868C74.9689 42.7248 74.9864 42.3625 74.9987 42C74.9987 32.2533 71.3113 22.9058 64.7475 16.0138C58.1837 9.12186 49.2813 5.25 39.9987 5.25H40Z" fill="white"/>
</svg>
