<svg width="120" height="120" viewBox="0 0 120 120" fill="none" xmlns="http://www.w3.org/2000/svg">
<path d="M93.5345 18H32.4655C27.2378 18 23 22.4497 23 27.9387V92.0613C23 97.5503 27.2378 102 32.4655 102H93.5345C98.7622 102 103 97.5503 103 92.0613V27.9387C103 22.4497 98.7622 18 93.5345 18Z" fill="#3695C1"/>
<path fill-rule="evenodd" clip-rule="evenodd" d="M63.495 34C61.1356 39.6745 59.7125 43.3863 57.0856 48.8921C58.6962 50.5668 60.6732 52.5171 63.8838 54.7198C60.4321 53.3265 58.0776 51.9277 56.318 50.4761C52.9561 57.3577 47.6889 67.1602 37 86C45.4011 81.2423 51.9135 78.3091 57.9827 77.1899C57.7221 76.0904 57.5739 74.901 57.584 73.66L57.5939 73.396C57.7272 68.1162 60.5271 64.056 63.8438 64.3317C67.1606 64.6074 69.7387 69.1136 69.6054 74.3934C69.5803 75.3869 69.4661 76.3426 69.2665 77.229C75.2698 78.381 81.7126 81.3067 90 86C88.3659 83.0488 86.9073 80.3885 85.5144 77.8548C83.3203 76.1867 81.0318 74.0156 76.3637 71.6653C79.5723 72.4831 81.8696 73.4267 83.6603 74.4814C69.4983 48.6165 68.3515 45.1796 63.495 34Z" fill="#F9F9F9"/>
</svg>
