<svg width="80" height="84" viewBox="0 0 80 84" fill="none" xmlns="http://www.w3.org/2000/svg">
<path d="M72.525 13.2037L58.11 5.91674C57.296 5.50461 56.38 5.36861 55.489 5.52758C54.598 5.68656 53.7762 6.13264 53.1375 6.80399L5.95001 51.975C5.37749 52.5205 5.03478 53.2824 4.99727 54.0932C4.95976 54.904 5.23053 55.6972 5.75001 56.2984C5.81251 56.3692 5.87501 56.4375 5.94251 56.5005L9.79501 60.1755C10.2984 60.6566 10.9464 60.9373 11.6264 60.969C12.3064 61.0006 12.9755 60.7812 13.5175 60.3487L70.355 15.0937C70.7843 14.7517 71.296 14.5422 71.8326 14.489C72.3691 14.4357 72.9091 14.5408 73.3919 14.7923C73.8746 15.0439 74.2809 15.4319 74.565 15.9127C74.8491 16.3936 74.9998 16.9481 75 17.514V17.3381C75 16.4742 74.7677 15.6279 74.3298 14.8965C73.892 14.1651 73.2664 13.5784 72.525 13.2037Z" fill="#0065A9"/>
<path d="M72.525 70.7963L58.11 78.0859C57.2957 78.4969 56.38 78.6322 55.4893 78.4733C54.5986 78.3144 53.7768 77.869 53.1375 77.1986L5.95001 32.025C5.37749 31.4795 5.03478 30.7176 4.99727 29.9068C4.95976 29.096 5.23053 28.3028 5.75001 27.7016C5.81251 27.6308 5.87501 27.5625 5.94251 27.4995L9.79501 23.8245C10.2989 23.3414 10.9484 23.0594 11.6301 23.0278C12.3118 22.9961 12.9824 23.2168 13.525 23.6513L70.355 68.9063C70.7843 69.2483 71.296 69.4578 71.8326 69.511C72.3691 69.5643 72.9091 69.4592 73.3919 69.2077C73.8746 68.9562 74.2809 68.5681 74.565 68.0873C74.8491 67.6064 74.9998 67.0519 75 66.486V66.675C74.9973 67.5366 74.7638 68.38 74.3261 69.1088C73.8884 69.8376 73.2643 70.4224 72.525 70.7963Z" fill="#007ACC"/>
<path d="M58.11 78.0859C57.2957 78.4968 56.38 78.6322 55.4893 78.4733C54.5985 78.3143 53.7768 77.8689 53.1375 77.1986C53.4965 77.5707 53.9521 77.8232 54.4472 77.9245C54.9423 78.0259 55.4549 77.9715 55.9207 77.7683C56.3865 77.5651 56.7848 77.2221 57.0658 76.7822C57.3467 76.3423 57.4978 75.8251 57.5 75.2955V8.7045C57.5004 8.17238 57.3504 7.6521 57.069 7.20957C56.7876 6.76704 56.3874 6.42218 55.9191 6.21865C55.4509 6.01513 54.9357 5.96211 54.4387 6.06632C53.9417 6.17052 53.4854 6.42725 53.1275 6.804C53.7663 6.13289 54.5879 5.68678 55.4788 5.52736C56.3696 5.36794 57.2855 5.50309 58.1 5.91412L72.5125 13.1906C73.2562 13.5634 73.8844 14.1493 74.3245 14.8809C74.7647 15.6124 74.9988 16.4597 75 17.325V66.675C75.0002 67.5396 74.7677 68.3867 74.3294 69.1186C73.8911 69.8505 73.2647 70.4376 72.5225 70.812L58.11 78.0859Z" fill="#1F9CF0"/>
</svg>
