<svg width="82" height="82" viewBox="0 0 82 82" fill="none" xmlns="http://www.w3.org/2000/svg">
<rect width="82" height="82" rx="41" fill="#C2185B"/>
<path d="M71.1862 23.0283C70.5029 23.4725 69.5292 23.8825 69.1192 24.3438C68.9654 24.4975 68.88 24.6683 68.9142 24.8392V26.5987L68.4017 28.3242L67.8892 30.0325L67.3254 31.9117L66.1637 35.7554L65.0362 39.5479L64.1821 42.4008C64.1821 42.845 64.165 43.2892 64.1308 43.7163C64.0112 45.3563 63.6696 46.9279 63.1229 48.3971C62.7983 49.3025 62.4054 50.1738 61.9271 50.9938C61.7562 51.3183 61.5512 51.6429 61.3462 51.9504C60.6629 53.0267 59.8429 54.0175 58.9375 54.8888C58.2371 55.5892 57.4683 56.2383 56.6312 56.785C56.6312 56.785 56.6312 56.785 56.6142 56.785C56.4775 56.9046 56.3237 57.0071 56.1529 57.0925C55.6233 57.4512 55.0596 57.7588 54.4787 58.0321C54.0858 58.2371 53.6929 58.4079 53.2829 58.5617C53.1975 58.6129 53.095 58.6471 53.0096 58.6812C52.0358 59.1425 50.9083 59.45 49.7808 59.6037C49.7125 59.6208 49.6612 59.6208 49.5929 59.6379C48.9096 59.7575 48.2433 59.86 47.56 59.9113C47.2525 59.9454 46.9279 59.9625 46.6204 59.9625L45.4075 59.8942L39.565 59.5867C39.565 59.5696 39.5479 59.5867 39.5479 59.5867L36.6096 59.4329C36.3875 59.4329 36.1483 59.4329 35.9262 59.4158C35.0037 59.3817 34.1154 59.2792 33.2271 59.0913C33.21 59.0913 33.21 59.0913 33.21 59.0913C31.5871 58.7838 30.0325 58.2371 28.5804 57.5025C27.7775 57.0925 26.9917 56.6313 26.2571 56.1017C25.9496 55.8796 25.6592 55.6404 25.3687 55.3842C24.5487 54.7008 23.8142 53.9663 23.1308 53.2146C23.0283 53.1121 22.9429 53.0096 22.8575 52.9071C22.755 52.8046 22.6525 52.685 22.5671 52.5825C21.9179 51.7625 21.3712 50.9254 20.9271 50.0371C20.5171 49.2513 20.1925 48.4142 19.9362 47.4917C19.8337 47.1671 19.7483 46.8596 19.68 46.5179C19.6629 46.5008 19.6458 46.4667 19.6458 46.4325C19.475 45.7321 19.3212 44.9975 19.2358 44.2629C19.1333 43.6992 19.0821 43.1354 19.0821 42.5546C19.0479 42.3325 19.0479 42.0933 19.0479 41.8713L22.3108 36.8317L25.5054 31.9117L26.9575 29.6738L28.2729 27.6579L28.7171 26.9575V25.1979C28.7512 24.805 28.7683 24.395 28.7512 24.0192C28.7342 22.8233 28.495 21.6617 28.1021 20.5512C27.7262 19.3725 27.1967 18.2621 26.65 17.2371C26.0008 16.0583 25.3175 14.9992 24.7537 14.0425C23.9167 12.6417 23.3358 11.4971 23.4896 10.6942C24.7196 10.4038 26.0179 10.25 27.3333 10.25H54.6667C61.8075 10.25 67.9575 14.6917 70.5029 20.9442C70.7762 21.6104 71.0154 22.3108 71.1862 23.0283Z" fill="#304FFE"/>
<path d="M71.75 27.3333V27.7946L69.3925 29.1612L67.8892 30.0325L66.2321 30.9892L62.9179 32.9196L59.6721 34.7987L56.3579 36.7121L55.0425 37.4808C55.0425 38.3008 54.8375 39.0525 54.4617 39.7358C53.9321 40.7267 53.0437 41.5467 51.9162 42.2471C50.7717 42.9475 49.3708 43.5112 47.7992 43.9212C47.7992 43.9212 47.7992 43.9042 47.7821 43.9212C41.7004 45.4929 33.3979 44.7754 29.3662 41.7687C28.2387 40.9317 27.4529 39.9067 27.1112 38.7279C27.0087 38.335 26.9575 37.9079 26.9575 37.4808V25.1979C26.9746 24.9417 26.8037 24.6854 26.4962 24.4292C25.5737 23.6946 23.4042 22.9942 20.9783 22.2937C19.0821 21.7642 17.0492 21.2346 15.3408 20.7221C13.9912 20.3121 12.8467 19.9021 12.1633 19.5092C12.4708 18.9112 12.8296 18.3133 13.2054 17.7496C15.5971 14.2475 19.2529 11.6679 23.4896 10.6942C24.7196 10.4038 26.0179 10.25 27.3333 10.25H45.7833C54.9571 11.8558 63.4133 15.5971 70.5029 20.9442C70.7762 21.6104 71.0154 22.3108 71.1862 23.0283C71.4937 24.1558 71.6817 25.3175 71.7329 26.5304C71.75 26.7867 71.75 27.06 71.75 27.3333Z" fill="#4928F4"/>
<path d="M71.75 27.3334V34.8671L71.3742 36.0288L70.0929 40.0092L68.7604 44.1092L68.06 46.2959L67.4108 48.3288L66.7787 50.2592L66.1637 52.1725L65.8392 53.1805L65.4121 54.513C65.4121 55.8113 65.3779 56.9559 65.2925 57.9296C65.2754 58.0321 65.2583 58.1346 65.2583 58.2371C65.1558 59.1425 65.0192 59.9113 64.7971 60.5605C64.78 60.663 64.7458 60.7655 64.7117 60.8509C64.2675 62.0809 63.6012 62.8667 62.6104 63.3792C62.3712 63.5159 62.0979 63.6184 61.8075 63.7209C60.9021 64.0284 59.7575 64.1821 58.3567 64.2675C57.3317 64.3359 56.1529 64.353 54.8204 64.353H53.6417L51.6087 64.2675L51.25 64.2505L47.5429 64.0967L43.7846 63.943L31.3992 63.4305L28.1875 63.2938H27.7433C26.4108 63.2767 25.2662 63.1913 24.2754 63.0546C22.8404 62.8325 21.73 62.4567 20.8929 61.893C19.6971 61.1242 18.9967 59.9967 18.5867 58.425C18.4842 58.0492 18.3987 57.6563 18.3475 57.2292C18.1767 56.2384 18.0912 55.0938 18.04 53.8125C18.04 53.5563 18.04 53.3 18.0229 53.0267C18.0058 53.0096 18.0229 53.0096 18.0229 53.0096V52.0188C18.0058 51.5234 18.0058 51.0109 18.0058 50.4813L18.0912 47.7309L18.1425 45.7663L18.2108 43.4771V43.1525L18.3304 38.95L18.45 34.7475L18.5696 30.8013L18.6721 26.9234L18.7062 25.8984C18.7062 25.3688 16.9125 25.0613 14.9137 24.805C13.325 24.6 11.5825 24.4121 10.5404 24.173C10.6258 23.78 10.7112 23.3871 10.8137 23.0113C11.1212 21.7813 11.5825 20.6196 12.1633 19.5092C12.4708 18.9113 12.8296 18.3134 13.2054 17.7496C16.8954 16.1267 20.7392 14.8625 24.7537 14.0425C28.2729 13.308 31.9458 12.915 35.7383 12.915C48.3117 12.915 59.9283 17.1688 69.1192 24.3438C70.0075 25.0271 70.8787 25.7617 71.7329 26.5305C71.75 26.7867 71.75 27.06 71.75 27.3334Z" fill="#6200EA"/>
<path d="M71.75 31.3821V39.1379L70.8104 40.9488L69.0167 44.4509L68.06 46.2959L67.1888 47.9871L66.8129 48.7217C66.8129 49.2513 66.8129 49.7638 66.7788 50.2592C66.7788 50.9938 66.7446 51.6942 66.6933 52.3434C66.625 53.1121 66.5225 53.8125 66.42 54.4617C66.1638 55.8113 65.805 56.9729 65.2925 57.9296C65.2242 58.0492 65.1558 58.1688 65.0875 58.2713C64.8996 58.5788 64.6775 58.8692 64.4383 59.1425C64.1308 59.5184 63.7892 59.8429 63.3963 60.1163C62.8154 60.5604 62.1321 60.9192 61.3463 61.1925C60.3725 61.5513 59.245 61.7904 57.9125 61.9271C57.0413 62.0125 56.0846 62.0638 55.0425 62.0638L54.325 62.0979L50.7717 62.3029H50.7546L46.9792 62.525L43.1354 62.7471L37.8396 63.0546L31.3992 63.4305L30.4596 63.4817C29.5883 63.4817 28.7683 63.4304 27.9825 63.3279C27.8971 63.3109 27.8288 63.2938 27.7433 63.2938C26.5817 63.1059 25.5225 62.7984 24.5658 62.3713C23.4042 61.8588 22.3962 61.1754 21.5421 60.3554C20.7904 59.6209 20.1412 58.7838 19.6117 57.8442C19.4921 57.6221 19.3725 57.4171 19.27 57.1779C18.7575 56.17 18.3475 55.0425 18.04 53.8125C17.9888 53.6075 17.9375 53.3855 17.9033 53.1634C17.8008 52.7705 17.7154 52.3605 17.6642 51.9334C17.4763 50.84 17.3738 49.6784 17.3225 48.4655V48.4484C17.3054 47.9529 17.2883 47.4746 17.2883 46.9621L16.4513 44.9634L16.3317 44.6559L16.2292 44.3996L14.9479 41.3417L14.7429 40.8463L13.5129 37.8909L12.1463 34.5938C12.1463 34.5938 12.1462 34.5938 12.1292 34.5938L10.7454 31.2625L10.25 30.0496V27.3334C10.25 26.2571 10.3525 25.1979 10.5404 24.1729C10.6258 23.78 10.7112 23.3871 10.8137 23.0113C12.2658 22.1742 13.7862 21.4054 15.3408 20.7221C18.8942 19.1334 22.7038 17.9546 26.65 17.2371C29.5883 16.7075 32.6463 16.4171 35.7383 16.4171C48.2262 16.4171 59.5525 20.9442 68.4017 28.3242C68.7433 28.5975 69.0679 28.8709 69.3925 29.1613C70.1954 29.8617 70.9813 30.5963 71.75 31.3821Z" fill="#673AB7"/>
<path d="M71.75 36.4729V45.2538L70.7763 47.2867L68.9312 51.1304L68.9142 51.1817C68.9142 51.9163 68.88 52.5825 68.8288 53.1804C68.6579 55.145 68.1796 56.3921 67.3938 57.1609C66.83 57.7417 66.1296 58.0663 65.2583 58.2371C65.2071 58.2542 65.1387 58.2542 65.0875 58.2713C64.8142 58.3225 64.5238 58.3567 64.2163 58.3567C63.1571 58.4592 61.91 58.3909 60.475 58.2884C60.3213 58.2884 60.1504 58.2713 59.9796 58.2542C58.9375 58.1859 57.8271 58.1175 56.5971 58.0663C55.9308 58.0492 55.2304 58.0321 54.5129 58.0321H54.4787L52.7533 58.1688H52.7363L48.8583 58.4421L44.4338 58.7838L43.7846 58.835L38.6083 59.2109L35.9263 59.4159L33.2783 59.6038C32.8171 59.6038 32.3729 59.6038 31.9288 59.5867C31.9288 59.5867 31.9117 59.5696 31.9117 59.5867C29.9813 59.5525 28.2558 59.4329 26.7183 59.1425C25.3004 58.9034 24.0533 58.5275 22.9942 57.9638C21.9008 57.4342 20.9954 56.6825 20.2608 55.7259C19.5604 54.7863 19.0479 53.6075 18.7233 52.1896C18.7233 52.1725 18.7233 52.1725 18.7233 52.1725C18.4842 51.0279 18.3475 49.6954 18.3475 48.1921L18.0913 47.7309L16.5708 45.0146L16.3487 44.6388L16.2292 44.3996L14.6404 41.5809L13.8546 40.1629L12.8638 38.4034L11.1554 35.3454L10.25 33.7396V27.4529C11.7533 26.4621 13.3079 25.5909 14.9137 24.805C16.8612 23.8142 18.8771 22.9771 20.9783 22.2938C23.2675 21.5421 25.6592 20.9442 28.1021 20.5513C30.5792 20.1413 33.1246 19.9363 35.7383 19.9363C47.355 19.9363 58.015 24.0875 66.2321 30.9892C66.6079 31.2796 66.9667 31.6042 67.3254 31.9117C68.7604 33.1929 70.1271 34.5767 71.3742 36.0288C71.5108 36.1825 71.6475 36.3192 71.75 36.4729Z" fill="#8E24AA"/>
<path d="M71.75 42.2129V54.5642C71.34 54.325 70.7763 54.0346 70.0758 53.7271C69.7 53.5392 69.2729 53.3513 68.8288 53.1804C68.1796 52.89 67.4792 52.6167 66.6933 52.3434C66.5225 52.275 66.3517 52.2238 66.1637 52.1725C65.8563 52.0529 65.5317 51.9504 65.2071 51.8479C64.1992 51.5404 63.0888 51.25 61.9271 50.9938C61.4829 50.9084 61.0217 50.8229 60.5604 50.7546C59.0742 50.4984 57.4854 50.3446 55.8283 50.3275C55.6917 50.3104 55.5379 50.3104 55.4013 50.3104L51.0108 50.3446L45.0317 50.3788H45.0146L32.2192 50.4813C28.1533 50.4813 25.6592 51.455 24.1558 51.8479C24.1558 51.8479 24.1388 51.8479 24.1388 51.865C22.55 52.275 22.0546 52.0188 21.9179 49.2342C21.8837 48.4654 21.8667 47.4746 21.8667 46.2617L20.91 45.5271L19.2358 44.2629L18.2108 43.4771L18.0058 43.3234L15.17 41.1709L14.7429 40.8463L13.8546 40.1629L12.2146 38.9329L10.25 37.4296V31.6213C10.4208 31.4846 10.5746 31.365 10.7454 31.2625C13.2225 29.5542 15.8704 28.1021 18.6721 26.9234C21.1663 25.8642 23.7971 25.0271 26.4963 24.4292C27.2308 24.2754 27.9825 24.1217 28.7513 24.0192C31.0233 23.6263 33.3638 23.4384 35.7383 23.4384C46.0054 23.4384 55.4354 27.0088 62.9179 32.9196C64.0454 33.8079 65.1388 34.7475 66.1637 35.7554C67.5646 37.0879 68.88 38.5059 70.0929 40.0092C70.3321 40.3167 70.5713 40.6242 70.8104 40.9488C71.135 41.3588 71.4425 41.7859 71.75 42.2129Z" fill="#C2185B"/>
<path d="M71.75 49.0634V54.6667C71.75 55.7771 71.6475 56.8704 71.4425 57.9296C71.135 59.5013 70.6054 61.0046 69.8879 62.4054C69.5121 62.4909 69.085 62.4909 68.6067 62.4225C67.5304 62.2346 66.2663 61.6709 64.8996 60.9363C64.8313 60.9192 64.7629 60.885 64.7117 60.8509C64.2846 60.6288 63.8404 60.3896 63.3963 60.1163C62.4908 59.6209 61.5342 59.0742 60.5775 58.5617C60.3725 58.4592 60.1675 58.3567 59.9796 58.2542C58.8863 57.6904 57.7588 57.1779 56.6313 56.785C56.6313 56.785 56.6312 56.785 56.6142 56.785C56.375 56.6996 56.1188 56.6142 55.8625 56.5459C54.8888 56.2725 53.8979 56.1017 52.9412 56.1017L51.0621 55.555L42.7425 53.1463C42.7425 53.1463 42.7425 53.1463 42.7254 53.1463L37.6175 51.66H37.6004L35.3796 51.0109C28.9562 51.0109 25.01 53.7442 23.0967 52.7021C22.345 52.3092 21.9008 51.3184 21.7471 49.3709C21.6958 48.8242 21.6787 48.2092 21.6787 47.4917L19.68 46.5179L19.5946 46.4838H19.5775L18.1425 45.7663L16.5708 45.0146L16.4513 44.9634L16.1608 44.8096L12.8125 43.1867L10.25 41.9396V36.08C10.5404 35.8238 10.8479 35.5846 11.1554 35.3454C11.48 35.0892 11.8046 34.85 12.1292 34.5938C12.1462 34.5938 12.1463 34.5938 12.1463 34.5938C14.1621 33.1417 16.2975 31.8604 18.5696 30.8013C21.2175 29.5371 24.0363 28.5634 26.9575 27.9313C27.3846 27.8288 27.8287 27.7263 28.2729 27.6579C30.6987 27.1967 33.1929 26.9575 35.7383 26.9575C44.7412 26.9575 53.0096 29.8788 59.6721 34.7988C61.6025 36.2338 63.3963 37.8225 65.0363 39.5479C66.3858 40.9659 67.6329 42.5034 68.7604 44.1092C68.8458 44.2288 68.9313 44.3484 69.0167 44.4509C69.6488 45.3734 70.2296 46.3129 70.7763 47.2867C71.135 47.8675 71.4425 48.4654 71.75 49.0634Z" fill="#D81B60"/>
<path d="M71.4425 57.9296C71.135 59.5013 70.6054 61.0046 69.8879 62.4054C69.5633 63.0375 69.2046 63.6354 68.8117 64.2163C68.5725 64.575 68.3162 64.9167 68.06 65.2413C67.445 65.0021 66.5396 64.6604 65.4292 64.2846C65.4292 64.2846 65.4292 64.2846 65.4292 64.2675C64.5921 63.9771 63.6354 63.6696 62.6104 63.3792C62.32 63.2938 62.0296 63.2083 61.7221 63.1229C60.5092 62.7983 59.245 62.5079 58.015 62.3371C56.99 62.1663 55.9821 62.0638 55.0425 62.0638L54.2567 61.8417H54.2396L50.1054 60.6458L47.56 59.9113L44.7242 59.0913H44.7071L43.7846 58.835L32.6292 55.6233L29.4175 54.7008L27.0258 54.1371L23.1308 53.2146L22.6525 53.095C22.6525 53.095 22.6525 53.095 22.6354 53.095L18.7233 52.1896C18.7233 52.1725 18.7233 52.1725 18.7233 52.1725L18.0229 52.0188L17.6642 51.9333L14.8112 51.2671L14.4867 51.1817L12.0608 49.1829L10.25 47.6625V40.6925C10.8821 40.0775 11.5313 39.4967 12.2146 38.9329C12.4196 38.745 12.6417 38.5742 12.8638 38.4033C13.0688 38.2325 13.2908 38.0617 13.5129 37.8908C15.0675 36.7121 16.7075 35.6529 18.45 34.7475C20.6708 33.5517 23.0283 32.595 25.5054 31.9117C25.9837 31.7579 26.4621 31.6213 26.9575 31.5188C29.7592 30.8183 32.6975 30.4596 35.7383 30.4596C43.3746 30.4596 50.4813 32.7658 56.3579 36.7121C59.2792 38.6767 61.91 41.0342 64.1308 43.7163C65.2583 45.0658 66.2833 46.4838 67.1888 47.9871C67.2742 48.1067 67.3425 48.2092 67.4108 48.3288C67.9575 49.2342 68.47 50.1738 68.9312 51.1304C69.3583 51.9846 69.7342 52.8388 70.0758 53.7271C70.6225 55.0938 71.0667 56.4946 71.4425 57.9296Z" fill="#F50057"/>
<path d="M68.8117 64.2163C68.5725 64.575 68.3162 64.9167 68.06 65.2413C67.3083 66.1808 66.4883 67.035 65.5658 67.7867C64.7629 68.4529 63.9087 69.0508 63.0033 69.5634C62.6617 69.4779 62.32 69.3754 61.9612 69.2388C60.8337 68.8458 59.655 68.1967 58.5617 67.5133C56.9217 66.4713 55.5037 65.3438 54.8717 64.8313C54.6325 64.6263 54.5129 64.5238 54.5129 64.5238L51.6087 64.2675L51.25 64.2333L47.4917 63.9088L43.5967 63.5671L37.8396 63.0546L28.7171 62.2517L28.6829 62.2346L25.4712 60.68L22.2254 59.1083L19.6117 57.8442L19.0479 57.5708L18.3475 57.2292L15.9217 56.0504L12.6929 54.4958L11.685 54.0004L10.25 53.5563V45.92C11.0529 44.9633 11.9071 44.0579 12.8125 43.1867C13.3933 42.64 14.0083 42.0933 14.6404 41.5808C14.7429 41.4954 14.8454 41.41 14.9479 41.3417C15.0162 41.2563 15.1017 41.205 15.17 41.1708C16.1779 40.3508 17.2371 39.6163 18.3304 38.95C19.5946 38.1471 20.9271 37.4296 22.3108 36.8317C23.7971 36.1654 25.3517 35.6017 26.9575 35.1746C29.7421 34.3888 32.6975 33.9788 35.7383 33.9788C42.7083 33.9788 49.1487 36.0971 54.4617 39.7358C57.8612 42.0592 60.7996 44.9975 63.1229 48.3971C63.8917 49.4904 64.575 50.6521 65.2071 51.8479C65.4292 52.2921 65.6512 52.7363 65.8392 53.1804C66.0442 53.6075 66.2321 54.0346 66.42 54.4617C66.7787 55.35 67.1033 56.2383 67.3937 57.1608C67.9404 58.8692 68.3504 60.6117 68.6067 62.4225C68.6921 63.0204 68.7604 63.6183 68.8117 64.2163Z" fill="#FF1744"/>
<path d="M65.5829 67.3425C65.5829 67.4792 65.5829 67.6329 65.5658 67.7867C64.7629 68.4529 63.9088 69.0508 63.0033 69.5633C62.6275 69.7683 62.2517 69.9733 61.8587 70.1442C61.4658 70.3321 61.0729 70.5029 60.6629 70.6567C60.0821 70.3492 59.2963 69.9733 58.4592 69.6146C57.2804 69.085 55.9992 68.6067 55.0083 68.4529C54.7692 68.4017 54.5471 68.3846 54.3421 68.3846L51.5404 68.0258H51.5062L48.0213 67.5646L44.5021 67.1033L42.8621 66.8983L29.9471 65.2242C29.11 65.2242 28.2217 65.1729 27.2992 65.0533C26.1717 64.9508 24.9929 64.78 23.8142 64.5408C22.6525 64.3358 21.4738 64.0625 20.3462 63.7721C19.1675 63.4988 18.0058 63.1742 16.9296 62.8667C15.6825 62.4908 14.5208 62.1321 13.5471 61.8075C12.7442 61.5513 12.0608 61.3121 11.5312 61.1242C11.2237 60.3896 10.9675 59.6208 10.7796 58.835C10.4208 57.5025 10.25 56.1017 10.25 54.6667V51.8138C10.7967 50.9083 11.3946 50.02 12.0608 49.1829C13.2737 47.5771 14.6575 46.1079 16.1608 44.8096C16.2121 44.7413 16.2804 44.69 16.3317 44.6558L16.3487 44.6387C16.8783 44.1604 17.425 43.7333 18.0058 43.3233C18.0742 43.255 18.1425 43.2038 18.2108 43.1525C18.4842 42.9475 18.7746 42.7425 19.0821 42.5546C21.525 40.8975 24.2242 39.5992 27.1112 38.7279C29.8446 37.9079 32.7317 37.4808 35.7383 37.4808C41.7004 37.4808 47.2696 39.2404 51.9162 42.2471C55.35 44.4508 58.3054 47.355 60.5604 50.7546C60.8338 51.1475 61.09 51.5404 61.3463 51.9504C62.525 53.9492 63.4988 56.1017 64.2163 58.3567C64.3017 58.6129 64.37 58.8692 64.4383 59.1425C64.575 59.6038 64.6946 60.0821 64.7971 60.5604C64.8313 60.68 64.8654 60.7996 64.8996 60.9362C65.1388 62.0125 65.3096 63.14 65.4292 64.2675C65.4292 64.2846 65.4292 64.2846 65.4292 64.2846C65.5317 65.2925 65.5829 66.3175 65.5829 67.3425Z" fill="#FF5722"/>
<path d="M62.0637 67.3425C62.0637 67.9404 62.0296 68.5896 61.9612 69.2387C61.9271 69.5462 61.8929 69.8538 61.8587 70.1442C61.4658 70.3321 61.0729 70.5029 60.6629 70.6567C59.8941 70.9471 59.1083 71.1863 58.3054 71.3571C57.7587 71.4767 57.195 71.5792 56.6312 71.6304H56.6142C56.0846 71.3058 55.4696 70.9129 54.8375 70.4688C53.6929 69.6658 52.4971 68.7604 51.5404 68.0258C51.5233 68.0088 51.5233 68.0087 51.5062 67.9917C50.4983 67.2229 49.7808 66.6421 49.7808 66.6421L47.97 66.7104L44.485 66.83L42.8621 66.8983L36.3362 67.1375L30.8183 67.3425C30.4596 67.3596 30.0325 67.3596 29.5029 67.3425H29.4858C28.7683 67.3254 27.9142 67.2742 26.9746 67.1888C25.8812 67.1033 24.6854 67.0008 23.4725 66.8813C22.2937 66.7446 21.0979 66.6079 19.9533 66.4713C18.6892 66.3346 17.4933 66.1808 16.4683 66.0442C15.6654 65.9417 14.965 65.8562 14.4012 65.7879C13.9229 65.2412 13.4958 64.6775 13.0858 64.0625C12.4708 63.14 11.9412 62.1662 11.5312 61.1242C11.2237 60.3896 10.9675 59.6208 10.7796 58.835C11.275 57.3146 11.9242 55.8796 12.6929 54.4958C13.3079 53.3683 14.0254 52.2921 14.8112 51.2671C15.58 50.2592 16.4171 49.3196 17.3225 48.4654V48.4483C17.5787 48.1921 17.835 47.9529 18.0912 47.7308C18.5696 47.2867 19.065 46.8767 19.5775 46.4837H19.5946C19.6117 46.4496 19.6287 46.4496 19.6458 46.4325C20.0558 46.1079 20.4829 45.8175 20.91 45.5271C23.4383 43.8017 26.2912 42.5204 29.3662 41.7688C31.3992 41.2733 33.5346 41 35.7383 41C40.0775 41 44.1775 42.0421 47.7821 43.9212H47.7992C50.8912 45.51 53.6246 47.6967 55.8283 50.3275C57.0412 51.7283 58.0833 53.2658 58.9375 54.8888C59.5354 55.9821 60.0479 57.1267 60.475 58.2883C60.5092 58.3908 60.5433 58.4762 60.5775 58.5617C60.8679 59.4158 61.1242 60.3042 61.3462 61.1925C61.5 61.8246 61.6196 62.4738 61.7221 63.1229C61.7562 63.3279 61.7904 63.5158 61.8075 63.7208C61.9783 64.8996 62.0637 66.1125 62.0637 67.3425Z" fill="#FF6F00"/>
<path d="M58.5617 67.3425V67.5133C58.5617 68.0942 58.5104 68.8288 58.4592 69.6146C58.4079 70.1954 58.3567 70.7933 58.3054 71.3571C57.7588 71.4767 57.195 71.5792 56.6313 71.6304H56.6142C55.965 71.7158 55.3329 71.75 54.6667 71.75H51.6771L51.0279 71.5621L47.6625 70.5371L44.2459 69.5121L36.3363 67.1375L32.9196 66.1125C32.9196 66.1125 31.5017 66.6762 29.5029 67.3425H29.4858C28.7171 67.5987 27.88 67.8721 26.9917 68.1454C25.8813 68.47 24.7025 68.7946 23.5408 69.0508C22.345 69.3242 21.1663 69.5292 20.1071 69.6146C19.7825 69.6488 19.4579 69.6658 19.1675 69.6658C18.2108 69.1362 17.2883 68.5042 16.4513 67.8037C15.7167 67.1887 15.0333 66.5225 14.4013 65.7879C13.9229 65.2412 13.4958 64.6775 13.0858 64.0625C13.2054 63.2937 13.3421 62.5421 13.5471 61.8075C14.0596 59.7746 14.8625 57.8271 15.9217 56.0504C16.5025 55.0425 17.1517 54.0688 17.9033 53.1633C17.9204 53.1121 17.9717 53.0608 18.0229 53.0267C18.0058 53.0096 18.0229 53.0096 18.0229 53.0096C18.245 52.7192 18.4842 52.4458 18.7233 52.1896C18.7233 52.1725 18.7233 52.1725 18.7233 52.1725C19.4238 51.4208 20.1413 50.7033 20.9271 50.0371C21.2004 49.815 21.4567 49.5929 21.7471 49.3708C21.7983 49.3196 21.8496 49.2854 21.9179 49.2342C25.7617 46.2958 30.5621 44.5192 35.7383 44.5192C41.615 44.5192 46.9621 46.7229 51.0109 50.3446C52.9584 52.1042 54.6154 54.2054 55.8625 56.5458C55.965 56.7167 56.0675 56.9046 56.1529 57.0925C56.3067 57.4 56.4604 57.7246 56.5971 58.0663C57.1609 59.2963 57.605 60.5946 57.9125 61.9271C57.9467 62.0637 57.9809 62.2004 58.015 62.3371C58.1517 62.9692 58.2713 63.6183 58.3567 64.2675C58.4934 65.2754 58.5617 66.3004 58.5617 67.3425Z" fill="#FF9800"/>
<path d="M55.0425 67.3425C55.0425 67.6842 55.0254 68.06 55.0083 68.4529C54.9742 69.085 54.9229 69.7683 54.8375 70.4687C54.8033 70.8958 54.735 71.3229 54.6667 71.75H45.305L43.4942 71.4596L36.4217 70.3321L35.4138 70.1783L33.1075 69.8025C32.0996 69.8025 29.9129 70.2467 27.6067 70.6737C26.3938 70.8958 25.1638 71.135 24.0533 71.2887C23.9167 71.3058 23.78 71.3229 23.6604 71.34H23.6433C22.4475 71.0837 21.2858 70.6908 20.1925 70.1783C19.8508 70.0246 19.5092 69.8537 19.1675 69.6658C18.2108 69.1362 17.2883 68.5042 16.4513 67.8037C16.4342 67.5987 16.4171 67.4279 16.4171 67.3425C16.4171 66.8983 16.4342 66.4712 16.4683 66.0442C16.5367 64.9508 16.6904 63.8917 16.9296 62.8667C17.3054 61.3121 17.8521 59.8087 18.5867 58.425C18.7233 58.1346 18.8771 57.8442 19.0479 57.5708C19.1163 57.4342 19.2017 57.3146 19.27 57.1779C19.5775 56.6825 19.9192 56.2042 20.2608 55.7258C20.9783 54.7862 21.7813 53.8979 22.6354 53.095C22.6525 53.095 22.6525 53.095 22.6525 53.095C22.7208 53.0267 22.7892 52.9583 22.8575 52.9071C22.9429 52.8387 23.0113 52.7533 23.0967 52.7021C23.4383 52.3946 23.78 52.1212 24.1388 51.865C24.1388 51.8479 24.1558 51.8479 24.1558 51.8479C27.3846 49.4392 31.3821 48.0212 35.7383 48.0212C39.1208 48.0212 42.2642 48.8754 45.0146 50.3787H45.0317C47.3892 51.6771 49.4392 53.4367 51.0621 55.555C51.6942 56.375 52.2579 57.2462 52.7363 58.1687H52.7533C52.8388 58.3396 52.9242 58.5104 53.0096 58.6812C53.5221 59.6892 53.9321 60.7483 54.2396 61.8417H54.2567C54.2738 61.9271 54.3079 62.0125 54.325 62.0979C54.53 62.8325 54.7008 63.5842 54.8204 64.3529C54.8375 64.5067 54.8546 64.6775 54.8717 64.8312C54.9912 65.6512 55.0425 66.4883 55.0425 67.3425Z" fill="#FFC107"/>
<path d="M51.5404 67.1546C51.5404 67.4279 51.5404 67.7183 51.5062 67.9917V68.0087C51.5062 68.0258 51.5062 68.0258 51.5062 68.0258C51.4721 69.2558 51.3012 70.4687 51.0279 71.5621C51.0279 71.6304 51.0108 71.6817 50.9767 71.75H42.9987L36.4217 70.3321L35.5504 70.1442L35.4137 70.1783L28.1192 71.6817L27.7946 71.75H27.3333C26.24 71.75 25.1637 71.6475 24.1217 71.4425C23.9679 71.4083 23.8142 71.3742 23.6604 71.34H23.6433C22.4475 71.0837 21.2858 70.6908 20.1925 70.1783C20.1583 69.9904 20.1242 69.8025 20.1071 69.6146C19.9875 68.88 19.9362 68.1112 19.9362 67.3425C19.9362 67.0521 19.9362 66.7617 19.9533 66.4712C20.0046 65.5487 20.1412 64.6433 20.3462 63.7721C20.4829 63.1229 20.6708 62.4908 20.8929 61.8929C21.0808 61.3633 21.3029 60.8508 21.5421 60.3554C21.7471 59.9283 21.9862 59.5183 22.2254 59.1083C22.4646 58.7154 22.7208 58.3396 22.9942 57.9637C23.6775 57.0242 24.4804 56.1529 25.3687 55.3842C25.8812 54.94 26.445 54.5129 27.0258 54.1371C29.52 52.4971 32.5096 51.5404 35.7383 51.5404C36.3704 51.5404 36.9854 51.5746 37.5833 51.66H37.6175C39.4454 51.865 41.1537 52.3775 42.7254 53.1462C42.7425 53.1462 42.7425 53.1462 42.7425 53.1462C45.2196 54.3592 47.3208 56.1871 48.8583 58.4421C49.1146 58.8179 49.3708 59.2279 49.5929 59.6379C49.7808 59.9625 49.9517 60.3042 50.1054 60.6458C50.3446 61.1754 50.5667 61.7392 50.7546 62.3029H50.7717C50.9596 62.935 51.1304 63.5671 51.25 64.2333V64.2504C51.4379 65.19 51.5404 66.1637 51.5404 67.1546Z" fill="#FFD54F"/>
<path d="M48.0212 67.5134V67.5646C48.0212 68.5725 47.9017 69.5634 47.6625 70.5371C47.5771 70.9471 47.4575 71.3571 47.3037 71.75H39.6504L35.7383 70.6738L31.8262 71.75H27.3333C26.24 71.75 25.1637 71.6475 24.1217 71.4425C24.0875 71.3913 24.0704 71.34 24.0533 71.2888C23.8142 70.5542 23.6262 69.8196 23.5408 69.0509C23.4725 68.5555 23.4383 68.043 23.4383 67.5134C23.4383 67.3084 23.4383 67.0863 23.4725 66.8813C23.4896 66.0784 23.6092 65.2925 23.8142 64.5409C23.9167 64.0284 24.0704 63.533 24.2754 63.0546C24.3437 62.8155 24.4462 62.5934 24.5658 62.3713C24.8221 61.7905 25.1296 61.2267 25.4712 60.68C25.8471 60.1334 26.2571 59.6209 26.7183 59.1425C27.265 58.5275 27.88 57.9638 28.5804 57.5025C29.7762 56.6313 31.1429 55.9821 32.6292 55.6234C33.62 55.35 34.6621 55.2134 35.7383 55.2134C39.155 55.2134 42.2129 56.58 44.4337 58.7838C44.5192 58.8692 44.6217 58.9717 44.7071 59.0913H44.7242C44.9633 59.3475 45.1854 59.6038 45.4075 59.8942C46.0396 60.6971 46.5692 61.5684 46.9792 62.525C47.1842 62.9692 47.355 63.4305 47.4917 63.9088C47.5087 63.9771 47.5258 64.0284 47.5429 64.0967C47.7821 64.9338 47.9358 65.805 47.97 66.7105C48.0042 66.9667 48.0212 67.24 48.0212 67.5134Z" fill="#FFE082"/>
<path d="M44.5192 67.5134C44.5192 68.2138 44.4337 68.88 44.2458 69.5121C44.075 70.1955 43.8187 70.8446 43.4942 71.4596C43.4429 71.5621 43.3233 71.75 43.3233 71.75H28.1533C28.1362 71.733 28.1192 71.6988 28.1192 71.6817C27.9142 71.3571 27.7433 71.0325 27.6067 70.6738C27.265 69.888 27.06 69.0338 26.9917 68.1455C26.9575 67.9405 26.9575 67.7184 26.9575 67.5134C26.9575 67.4109 26.9575 67.2913 26.9746 67.1888C26.9917 66.4371 27.0942 65.7196 27.2992 65.0534C27.47 64.4384 27.6921 63.8746 27.9825 63.328C27.9825 63.328 27.9996 63.3109 27.9996 63.2938C28.2046 62.935 28.4267 62.5763 28.6829 62.2346C29.52 61.1071 30.6304 60.1846 31.9117 59.5867C31.9287 59.5867 31.9287 59.5867 31.9287 59.5867C32.3387 59.3817 32.7658 59.2109 33.21 59.0913C33.21 59.0913 33.21 59.0913 33.2271 59.0913C34.0129 58.8521 34.8671 58.7325 35.7383 58.7325C36.7462 58.7325 37.72 58.8863 38.6083 59.2109C38.9329 59.2963 39.2404 59.433 39.5479 59.5867C39.5479 59.5867 39.5479 59.5867 39.565 59.5867C41.0342 60.2871 42.2812 61.3805 43.1354 62.7471C43.3062 63.0034 43.46 63.2767 43.5967 63.5671C43.665 63.6867 43.7333 63.8234 43.7846 63.943C44.1775 64.8313 44.4167 65.805 44.485 66.83C44.5021 66.9155 44.5021 67.0009 44.5021 67.1034C44.5192 67.24 44.5192 67.3767 44.5192 67.5134Z" fill="#FFECB3"/>
<path d="M51.25 18.7916H30.75C24.0875 18.7916 18.7917 24.0875 18.7917 30.75V51.25C18.7917 57.9125 24.0875 63.2083 30.75 63.2083H51.25C57.9125 63.2083 63.2083 57.9125 63.2083 51.25V30.75C63.2083 24.0875 57.9125 18.7916 51.25 18.7916Z" stroke="white" stroke-width="2" stroke-miterlimit="10" stroke-linecap="round" stroke-linejoin="round"/>
<path d="M52.9583 29.0417C53.9018 29.0417 54.6667 28.2768 54.6667 27.3333C54.6667 26.3898 53.9018 25.625 52.9583 25.625C52.0148 25.625 51.25 26.3898 51.25 27.3333C51.25 28.2768 52.0148 29.0417 52.9583 29.0417Z" fill="white"/>
<path d="M41 51.25C46.6609 51.25 51.25 46.6609 51.25 41C51.25 35.3391 46.6609 30.75 41 30.75C35.3391 30.75 30.75 35.3391 30.75 41C30.75 46.6609 35.3391 51.25 41 51.25Z" stroke="white" stroke-width="2" stroke-miterlimit="10" stroke-linecap="round" stroke-linejoin="round"/>
</svg>
