<svg width="82" height="82" viewBox="0 0 82 82" fill="none" xmlns="http://www.w3.org/2000/svg">
<rect width="82" height="82" rx="41" fill="#C2185B"/>
<path d="M41 6.83337C22.1298 6.83337 6.83334 22.1298 6.83334 41C6.83334 59.8703 22.1298 75.1667 41 75.1667C59.8703 75.1667 75.1667 59.8703 75.1667 41C75.1667 22.1298 59.8703 6.83337 41 6.83337Z" fill="url(#paint0_linear_106_770)"/>
<path d="M45.6245 50.0559H54.4668L55.8557 41.0735H45.6245V36.1637C45.6245 32.4327 46.8442 29.1237 50.3343 29.1237H55.9428V21.2858C54.9571 21.1526 52.8729 20.8622 48.9352 20.8622C40.7113 20.8622 35.8904 25.2048 35.8904 35.0994V41.0752H27.4358V50.0576H35.8887V74.7464C37.5628 74.9959 39.2592 75.1667 41 75.1667C42.5734 75.1667 44.1092 75.0232 45.6245 74.8182V50.0559Z" fill="white"/>
<defs>
<linearGradient id="paint0_linear_106_770" x1="17.0714" y1="17.0714" x2="69.384" y2="69.384" gradientUnits="userSpaceOnUse">
<stop stop-color="#2AA4F4"/>
<stop offset="1" stop-color="#007AD9"/>
</linearGradient>
</defs>
</svg>
