<svg width="82" height="82" viewBox="0 0 82 82" fill="none" xmlns="http://www.w3.org/2000/svg">
<rect width="82" height="82" rx="41" fill="#C2185B"/>
<path d="M74.5021 34.3085H71.75V34.1667H41V47.8334H60.3093C57.4922 55.7891 49.9226 61.5 41 61.5C29.6789 61.5 20.5 52.3212 20.5 41C20.5 29.6789 29.6789 20.5 41 20.5C46.2258 20.5 50.9801 22.4715 54.6 25.6917L64.2641 16.0276C58.1619 10.3406 49.9995 6.83337 41 6.83337C22.1315 6.83337 6.83333 22.1315 6.83333 41C6.83333 59.8686 22.1315 75.1667 41 75.1667C59.8685 75.1667 75.1667 59.8686 75.1667 41C75.1667 38.7092 74.9309 36.473 74.5021 34.3085Z" fill="#FBC02D"/>
<path d="M10.7728 25.0972L21.9982 33.3296C25.0356 25.8095 32.3917 20.5 41 20.5C46.2258 20.5 50.9801 22.4715 54.6 25.6917L64.2641 16.0276C58.1619 10.3406 49.9995 6.83337 41 6.83337C27.8766 6.83337 16.4957 14.2424 10.7728 25.0972Z" fill="#E53935"/>
<path d="M41 75.1666C49.8253 75.1666 57.8442 71.7892 63.907 66.297L53.3325 57.3487C49.9021 59.9471 45.6381 61.5 41 61.5C32.1133 61.5 24.5675 55.8334 21.7249 47.9255L10.5831 56.5099C16.2377 67.5748 27.7211 75.1666 41 75.1666Z" fill="#4CAF50"/>
<path d="M74.5021 34.3084L74.4748 34.1666H71.75H41V47.8333H60.3093C58.9563 51.6548 56.498 54.9502 53.3273 57.3504C53.329 57.3487 53.3308 57.3487 53.3325 57.347L63.907 66.2952C63.1588 66.9752 75.1667 58.0833 75.1667 41C75.1667 38.7091 74.9309 36.4729 74.5021 34.3084Z" fill="#1565C0"/>
</svg>
