<svg width="486" height="344" viewBox="0 0 486 344" fill="none" xmlns="http://www.w3.org/2000/svg">
<g clip-path="url(#clip0_113_14)">
<path opacity="0.1" d="M3.73277 181.1C12.3231 166.711 31.7493 169.219 45.5253 176.73C59.3013 184.241 73.0475 195.453 88.2083 193.299C100.992 191.482 111.474 180.051 117.137 166.864C122.8 153.676 124.461 138.807 126.055 124.243C128.058 105.947 130.059 87.6382 132.059 69.3182C132.792 62.6197 133.657 55.5498 137.33 50.2496C142.183 43.2583 151.08 41.1085 158.691 43.2103C166.301 45.312 172.79 50.9487 178.343 57.2364C196.128 77.3712 206.206 104.589 221.754 126.996C224.92 131.558 228.495 136.067 233.225 138.269C240.043 141.437 247.87 139.196 254.53 135.67C276.262 124.182 290.86 100.739 305.207 78.8656C312.187 68.2346 320.696 56.865 332.308 55.7071C344.524 54.4618 355.13 65.1366 362.31 76.4405C385.354 112.813 390.292 162.468 418.13 194.191C421.585 198.123 425.399 201.759 429.792 204.201C431.241 205.004 432.752 205.684 434.309 206.233C458.597 214.854 466.693 249.461 448.728 269.98C448.341 270.417 447.944 270.854 447.544 271.291C444.876 274.179 441.855 276.91 438.25 277.771C434.897 278.566 431.433 277.649 428.109 276.657C406.863 270.299 385.873 260.581 363.908 261.053C342.534 261.49 322.26 271.614 301.125 275.259C286.914 277.71 272.457 277.22 258.088 276.692C210.234 274.926 162.389 272.873 114.554 270.531C90.8119 269.412 67.0607 268.346 43.3223 267.101C25.0338 266.126 13.3841 263.981 11.2621 242.216C9.40424 223.156 -7.28208 199.556 3.73277 181.1Z" fill="#2271FF"/>
<path d="M336.582 344C400.119 344 451.626 336.619 451.626 327.514C451.626 318.409 400.119 311.027 336.582 311.027C273.044 311.027 221.537 318.409 221.537 327.514C221.537 336.619 273.044 344 336.582 344Z" fill="#30374E"/>
<path d="M63.379 256.391C63.379 256.391 69.0036 255.08 72.6895 258.956C72.6895 258.956 70.3203 261.141 64.7468 258.72L63.379 256.391Z" fill="#2271FF"/>
<path d="M62.757 256.334C62.757 256.334 59.4249 261.176 61.5384 266.144C61.5384 266.144 64.4188 264.724 64.3378 258.519L62.757 256.334Z" fill="#2271FF"/>
<path d="M59.0072 249.037C59.0072 249.037 61.0056 244.602 70.5121 249.963C70.5121 249.963 69.4894 252.926 65.4499 252.97C61.4104 253.013 60.2003 251.217 59.0072 249.037Z" fill="#2271FF"/>
<path d="M58.4021 248.766C58.4021 248.766 53.6425 248.539 53.911 259.655C53.911 259.655 56.9491 260.092 58.8453 256.43C60.7414 252.769 59.7358 250.877 58.4021 248.766Z" fill="#2271FF"/>
<path d="M55.087 240.114C55.087 240.114 57.2176 232.389 67.2183 237.108C67.2183 237.108 65.4713 244.182 56.2247 242.631L55.087 240.114Z" fill="#2271FF"/>
<path d="M51.3757 229.042C51.3757 229.042 55.8839 221.072 65.2199 227.539C65.2199 227.539 62.5823 234.91 52.3131 231.712L51.3757 229.042Z" fill="#2271FF"/>
<path d="M49.6116 218.38C49.6116 218.38 54.9933 210.974 64.2526 217.371C64.2526 217.371 59.1138 223.899 49.7266 220.168L49.6116 218.38Z" fill="#2271FF"/>
<path d="M48.0179 208.016C48.0179 208.016 53.4551 200.299 62.3309 206.639C62.3309 206.639 56.0756 213.556 48.1287 209.729L48.0179 208.016Z" fill="#2271FF"/>
<path d="M47.9412 198.726C47.9412 198.726 53.5445 188.882 61.8536 194.719C61.8536 194.719 55.7091 203.271 48.0605 200.513L47.9412 198.726Z" fill="#2271FF"/>
<path d="M48.6954 187.811C48.6954 187.811 54.6609 178.023 62.7953 184.674C62.7953 184.674 55.5089 193.304 48.7892 189.546L48.6954 187.811Z" fill="#2271FF"/>
<path d="M50.2422 177.997C50.2422 177.997 57.486 168.686 64.5381 171.718C64.5381 171.718 57.0045 181.593 50.0505 180.352L50.2422 177.997Z" fill="#2271FF"/>
<path d="M52.3728 168.646C52.3728 168.646 60.6989 157.286 66.1658 160.51C66.1658 160.51 60.0682 169.289 51.8572 170.713L52.3728 168.646Z" fill="#2271FF"/>
<path d="M55.6197 157.749C55.6197 157.749 62.9359 148.433 68.829 150.216C68.829 150.216 62.6717 159.781 54.7249 160.563L55.6197 157.749Z" fill="#2271FF"/>
<path d="M58.5385 147.563C58.5385 147.563 66.7112 138.562 70.6016 139.777C70.6016 139.777 64.913 149.547 58.2786 149.455L58.5385 147.563Z" fill="#2271FF"/>
<path d="M61.4232 138.143C61.4232 138.143 68.2793 127.59 72.4253 128.093C72.4253 128.093 68.4582 137.352 61.4914 139.161L61.4232 138.143Z" fill="#2271FF"/>
<path d="M64.4017 125.51C64.4017 125.51 70.5334 117.357 74.1212 117.13C74.1212 117.13 69.5576 127.765 64.291 128.053L64.4017 125.51Z" fill="#2271FF"/>
<path d="M66.1062 117.116L71.4666 100.648C71.4666 100.648 72.7449 115.111 65.5011 120.145L66.1062 117.116Z" fill="#2271FF"/>
<path d="M67.5507 99.2626C67.5507 99.2626 67.7382 85.8089 66.9839 84.7689C66.9839 84.7689 72.2975 95.5791 67.8958 105.179L67.5507 99.2626Z" fill="#2271FF"/>
<path d="M54.8143 239.953C54.8143 239.953 47.8858 236.186 44.2596 246.826C44.2596 246.826 50.4382 250.444 55.7645 242.539L54.8143 239.953Z" fill="#2271FF"/>
<path d="M51.1328 228.627C51.1328 228.627 42.73 225.372 39.4788 236.44C39.4788 236.44 46.0706 240.438 52.0532 231.301L51.1328 228.627Z" fill="#2271FF"/>
<path d="M49.2749 219.049C49.2749 219.049 42.9728 212.447 34.6339 220.067C34.6339 220.067 40.5738 225.83 49.39 220.849L49.2749 219.049Z" fill="#2271FF"/>
<path d="M47.8177 208.033C47.8177 208.033 41.4261 201.125 33.4536 208.628C33.4536 208.628 40.5525 214.627 47.9412 209.742L47.8177 208.033Z" fill="#2271FF"/>
<path d="M47.9583 198.988C47.9583 198.988 43.1177 188.733 34.3953 193.889C34.3953 193.889 39.875 202.904 47.7069 200.767L47.9583 198.988Z" fill="#2271FF"/>
<path d="M49.194 187.732C49.194 187.732 44.3662 177.289 35.533 182.895C35.533 182.895 41.7797 192.338 48.8872 189.419L49.194 187.732Z" fill="#2271FF"/>
<path d="M51.1243 177.988C51.1243 177.988 48.721 166.344 41.0895 165.811C41.0895 165.811 43.5098 178.102 50.255 180.178L51.1243 177.988Z" fill="#2271FF"/>
<path d="M52.5688 168.655C52.5688 168.655 51.005 154.537 44.7028 154.472C44.7028 154.472 45.619 165.208 51.9935 170.704L52.5688 168.655Z" fill="#2271FF"/>
<path d="M56.2461 157.299C56.2461 157.299 53.6 145.65 47.5237 144.627C47.5237 144.627 49.0151 155.988 55.8455 160.235L56.2461 157.299Z" fill="#2271FF"/>
<path d="M59.2544 147.598C59.2544 147.598 58.4022 135.333 54.6098 133.782C54.6098 133.782 53.0716 145.047 58.2956 149.241L59.2544 147.598Z" fill="#2271FF"/>
<path d="M61.696 137.99C61.696 137.99 60.3537 125.384 56.4506 123.867C56.4506 123.867 55.8114 133.957 61.1804 138.855L61.696 137.99Z" fill="#2271FF"/>
<path d="M64.9983 126.48C64.9983 126.48 64.2995 116.208 61.4403 113.979C61.4403 113.979 59.4887 125.423 63.72 128.643L64.9983 126.48Z" fill="#2271FF"/>
<path d="M65.7397 116.632L61.99 99.704C61.99 99.704 59.3354 113.966 66.0678 119.708L65.7397 116.632Z" fill="#2271FF"/>
<path d="M65.1559 99.5903C65.1559 99.5903 57.6437 88.5442 57.7034 87.2595C57.7034 87.2595 59.2118 99.267 68.1046 104.69L65.1559 99.5903Z" fill="#2271FF"/>
<path d="M65.7397 96.1427C65.7397 96.1427 58.2999 80.242 55.33 79.1016C55.33 79.1016 64.7426 83.222 66.2425 95.6184L65.7397 96.1427Z" fill="#2271FF"/>
<path d="M64.2653 128.136L63.8392 128.027C68.0364 109.675 68.6286 98.1047 65.501 95.448L65.7908 95.0897C69.0888 97.9037 68.569 109.334 64.2653 128.136Z" fill="#444053"/>
<path d="M52.2151 171.246L51.5546 171.058C52.0191 169.372 52.5219 167.655 53.0588 165.964C57.746 151.229 61.6406 137.562 64.031 127.101L64.5722 126.773C62.1775 137.26 58.3894 151.43 53.7107 166.178C53.1781 167.864 52.6753 169.568 52.2151 171.246Z" fill="#444053"/>
<path d="M72.2634 269.298C72.1696 269.207 62.7953 259.742 55.5941 242.976C51.3747 233.163 48.6983 222.726 47.6642 212.053C46.3859 198.713 48.133 183.595 51.9253 169.713L52.4707 170.289C43.9486 201.448 49.8331 227.242 56.4037 242.561C63.5324 259.166 72.8003 268.538 72.894 268.63L72.2634 269.298Z" fill="#444053"/>
<path d="M82.5837 219.394C82.5837 219.394 85.9925 218.594 88.2168 220.945C88.2168 220.945 86.7808 222.256 83.4146 220.801L82.5837 219.394Z" fill="#2271FF"/>
<path d="M82.213 219.364C82.213 219.364 80.2018 222.291 81.4801 225.293C81.4801 225.293 83.2186 224.419 83.1845 220.683L82.213 219.364Z" fill="#2271FF"/>
<path d="M79.946 214.946C79.946 214.946 81.1519 212.267 86.8916 215.51C86.8916 215.51 86.2738 217.297 83.8322 217.323C81.3906 217.349 80.6747 216.266 79.946 214.946Z" fill="#2271FF"/>
<path d="M79.5796 214.784C79.5796 214.784 76.6992 214.649 76.8611 221.365C76.8611 221.365 78.6976 221.627 79.8438 219.416C80.99 217.205 80.3849 216.06 79.5796 214.784Z" fill="#2271FF"/>
<path d="M77.5641 209.554C77.5641 209.554 78.8723 204.883 84.906 207.727C84.906 207.727 83.8535 212.005 78.263 211.066L77.5641 209.554Z" fill="#2271FF"/>
<path d="M75.3314 202.86C75.3314 202.86 78.0542 198.053 83.7001 201.951C83.7001 201.951 82.1022 206.408 75.8981 204.472L75.3314 202.86Z" fill="#2271FF"/>
<path d="M74.2618 196.415C74.2618 196.415 77.5173 191.936 83.1121 195.803C83.1121 195.803 80.01 199.736 74.3343 197.494L74.2618 196.415Z" fill="#2271FF"/>
<path d="M73.2988 190.149C73.2988 190.149 76.5884 185.482 81.953 189.319C81.953 189.319 78.1735 193.5 73.367 191.184L73.2988 190.149Z" fill="#2271FF"/>
<path d="M73.2562 184.53C73.2562 184.53 76.6651 178.583 81.6633 182.109C81.6633 182.109 77.9477 187.278 73.3244 185.605L73.2562 184.53Z" fill="#2271FF"/>
<path d="M73.6993 177.936C73.6993 177.936 77.317 172.015 82.2215 176.022C82.2215 176.022 77.8155 181.239 73.7505 178.967L73.6993 177.936Z" fill="#2271FF"/>
<path d="M74.6453 172.002C74.6453 172.002 79.0215 166.374 83.2868 168.209C83.2868 168.209 78.7317 174.178 74.5388 173.427L74.6453 172.002Z" fill="#2271FF"/>
<path d="M75.9321 166.348C75.9321 166.348 80.9645 159.483 84.271 161.428C84.271 161.428 80.5852 166.737 75.6211 167.598L75.9321 166.348Z" fill="#2271FF"/>
<path d="M77.8965 159.768C77.8965 159.768 82.3195 154.135 85.8903 155.214C85.8903 155.214 82.1704 160.995 77.3682 161.467L77.8965 159.768Z" fill="#2271FF"/>
<path d="M79.6606 153.602C79.6606 153.602 84.5992 148.162 86.9513 148.896C86.9513 148.896 83.5169 154.799 79.5029 154.747L79.6606 153.602Z" fill="#2271FF"/>
<path d="M81.4034 147.909C81.4034 147.909 85.5494 141.529 88.0549 141.826C88.0549 141.826 85.6602 147.424 81.446 148.52L81.4034 147.909Z" fill="#2271FF"/>
<path d="M83.2101 140.271C83.2101 140.271 86.9172 135.342 89.0861 135.202C89.0861 135.202 86.3249 141.634 83.1419 141.796L83.2101 140.271Z" fill="#2271FF"/>
<path d="M84.237 135.193L87.4711 125.248C87.4711 125.248 88.2381 133.987 83.8535 137.046L84.237 135.193Z" fill="#2271FF"/>
<path d="M85.1105 124.401C85.1105 124.401 85.2213 116.269 84.7654 115.64C84.7654 115.64 87.9782 122.172 85.3151 127.979L85.1105 124.401Z" fill="#2271FF"/>
<path d="M77.4065 209.458C77.4065 209.458 73.2221 207.177 71.0149 213.609C71.0149 213.609 74.7518 215.794 77.9732 211.022L77.4065 209.458Z" fill="#2271FF"/>
<path d="M75.1865 202.589C75.1865 202.589 70.103 200.623 68.1387 207.312C68.1387 207.312 72.1228 209.729 75.7404 204.21L75.1865 202.589Z" fill="#2271FF"/>
<path d="M74.0573 196.817C74.0573 196.817 70.2522 192.827 65.2071 197.428C65.2071 197.428 68.7992 200.924 74.1298 197.9L74.0573 196.817Z" fill="#2271FF"/>
<path d="M73.1795 190.158C73.1795 190.158 69.3147 185.985 64.4955 190.52C64.4955 190.52 68.7864 194.143 73.2477 191.193L73.1795 190.158Z" fill="#2271FF"/>
<path d="M73.2647 184.674C73.2647 184.674 70.3374 178.473 65.0621 181.589C65.0621 181.589 68.3773 187.038 73.1113 185.749L73.2647 184.674Z" fill="#2271FF"/>
<path d="M74.0104 177.879C74.0104 177.879 71.0916 171.565 65.7397 174.956C65.7397 174.956 69.515 180.667 73.8144 178.889L74.0104 177.879Z" fill="#2271FF"/>
<path d="M75.178 172.002C75.178 172.002 73.725 164.959 69.1102 164.64C69.1102 164.64 70.5718 172.068 74.6496 173.322L75.178 172.002Z" fill="#2271FF"/>
<path d="M76.0514 166.352C76.0514 166.352 75.114 157.819 71.2791 157.775C71.2791 157.775 71.833 164.268 75.685 167.593L76.0514 166.352Z" fill="#2271FF"/>
<path d="M78.2715 159.488C78.2715 159.488 76.6736 152.444 73.0005 151.824C73.0005 151.824 73.9038 158.688 78.0328 161.258L78.2715 159.488Z" fill="#2271FF"/>
<path d="M80.0909 153.624C80.0909 153.624 79.5668 146.196 77.2872 145.269C77.2872 145.269 76.354 152.081 79.5114 154.616L80.0909 153.624Z" fill="#2271FF"/>
<path d="M81.5695 147.812C81.5695 147.812 80.7599 140.192 78.3993 139.274C78.3993 139.274 78.0115 145.392 81.2585 148.337L81.5695 147.812Z" fill="#2271FF"/>
<path d="M83.5637 140.856C83.5637 140.856 83.1376 134.647 81.4332 133.297C81.4332 133.297 80.2529 140.218 82.8095 142.163L83.5637 140.856Z" fill="#2271FF"/>
<path d="M84.0239 134.901L81.757 124.667C81.757 124.667 80.1506 133.293 84.2199 136.762L84.0239 134.901Z" fill="#2271FF"/>
<path d="M83.6617 124.602C83.6617 124.602 79.1237 117.929 79.1578 117.147C79.1578 117.147 80.0654 124.405 85.4429 127.682L83.6617 124.602Z" fill="#2271FF"/>
<path d="M84.0026 122.513C84.0026 122.513 79.503 112.9 77.709 112.223C77.709 112.223 83.4018 114.713 84.3052 122.211L84.0026 122.513Z" fill="#2271FF"/>
<path d="M83.1206 141.852L82.8522 141.787C85.4088 130.693 85.7497 123.697 83.8578 122.093L84.0325 121.875C86.0394 123.579 85.7241 130.492 83.1206 141.852Z" fill="#444053"/>
<path d="M75.8384 167.921L75.4379 167.803C75.7191 166.785 76.0259 165.749 76.3497 164.744C79.1748 155.835 81.5355 147.572 82.98 141.249L83.3081 141.048C81.8593 147.384 79.5711 155.957 76.7418 164.876C76.4179 165.885 76.1154 166.903 75.8384 167.921Z" fill="#444053"/>
<path d="M87.9569 227.198C87.9015 227.141 82.2343 221.422 77.8795 211.284C75.3306 205.351 73.7127 199.043 73.0858 192.591C72.306 184.525 73.3713 175.384 75.668 166.99L75.9961 167.34C70.8445 186.177 74.4025 201.772 78.3738 211.035C82.686 221.085 88.285 226.735 88.3447 226.792L87.9569 227.198Z" fill="#444053"/>
<path d="M100.774 249.046C99.6806 249.245 98.6098 249.558 97.5784 249.981C74.5942 259.393 74.9777 321.003 74.9777 321.003H68.2111C68.2111 321.003 66.0806 294.563 56.7957 256.841C48.4313 222.903 82.7371 192.487 89.704 186.719C90.488 186.076 90.9226 185.736 90.9226 185.736C125.476 198.757 100.774 249.046 100.774 249.046Z" fill="#AFC0E0"/>
<path opacity="0.2" d="M93.4366 186.806C92.6398 186.43 91.8174 186.072 90.9439 185.744C90.9439 185.744 90.5178 186.085 89.7252 186.728C82.7584 192.495 48.4526 222.912 56.817 256.85C66.1019 294.572 68.2111 321.003 68.2111 321.003H72.0162C72.0162 321.003 69.907 294.563 60.6009 256.841C52.2705 223.06 86.2439 192.757 93.4366 186.806Z" fill="white"/>
<path d="M214.775 256.85C205.469 294.572 203.372 321.003 203.372 321.003H196.593C196.593 321.003 197.019 256.614 172.42 249.426C171.887 249.262 171.345 249.132 170.796 249.037C170.796 249.037 146.082 198.748 180.648 185.736C180.648 185.736 180.997 186.002 181.628 186.522C188.032 191.779 223.233 222.518 214.775 256.85Z" fill="#AFC0E0"/>
<path opacity="0.1" d="M100.774 249.046C99.6806 249.245 98.6098 249.558 97.5784 249.981C93.4229 229.127 90.7908 207.983 89.7039 186.728C90.488 186.085 90.9226 185.744 90.9226 185.744C125.476 198.757 100.774 249.046 100.774 249.046Z" fill="black"/>
<path opacity="0.1" d="M181.641 186.531C180.232 207.725 177.152 228.767 172.433 249.452C171.9 249.288 171.358 249.158 170.809 249.063C170.809 249.063 146.095 198.774 180.661 185.762C180.648 185.744 180.997 186.011 181.641 186.531Z" fill="black"/>
<path d="M168.99 258.58C166.603 268.234 163.807 278.138 160.6 288.293C160.6 288.293 145.379 304.552 108.615 288.293C108.615 288.293 104.941 277.675 100.902 259.624C92.0092 219.936 81.3437 144.304 104.068 66.6179C110.835 43.2639 120.453 20.8806 132.694 0C132.694 0 152.107 22.857 166.356 66.6047C180.605 110.352 189.673 175 168.99 258.58Z" fill="#E3E8F4"/>
<path d="M135.783 159.588C152.64 159.588 166.305 145.575 166.305 128.289C166.305 111.003 152.64 96.9905 135.783 96.9905C118.926 96.9905 105.261 111.003 105.261 128.289C105.261 145.575 118.926 159.588 135.783 159.588Z" fill="#AFC0E0"/>
<path d="M157.429 128.307C157.429 132.51 156.265 136.627 154.073 140.179C151.88 143.731 148.749 146.571 145.045 148.369C141.34 150.168 137.213 150.85 133.144 150.338C129.076 149.826 125.233 148.139 122.062 145.475C120.515 144.168 119.15 142.649 118.006 140.961C117.492 140.207 117.025 139.42 116.608 138.606C114.985 135.428 114.138 131.894 114.141 128.307C114.141 128.128 114.141 127.953 114.141 127.778C114.252 123.031 115.843 118.446 118.68 114.694C121.517 110.941 125.452 108.219 129.907 106.927C131.608 106.446 133.359 106.173 135.123 106.114H135.77C138.614 106.112 141.429 106.685 144.057 107.8C146.684 108.914 149.072 110.548 151.083 112.609C153.095 114.67 154.69 117.117 155.779 119.811C156.868 122.504 157.429 125.391 157.429 128.307Z" fill="#2271FF"/>
<path d="M166.352 66.6047C131.722 83.6066 104.047 66.6047 104.047 66.6047C110.821 43.2543 120.447 20.8754 132.694 0C132.694 0 152.107 22.857 166.352 66.6047Z" fill="#AFC0E0"/>
<path d="M168.99 258.58C167.37 265.117 165.566 271.766 163.578 278.527C162.635 281.752 161.641 285.003 160.595 288.28C160.595 288.28 145.375 304.539 108.61 288.28C108.61 288.28 107.417 284.832 105.628 278.527C104.29 273.764 102.623 267.38 100.885 259.611C100.885 259.611 114.571 265.602 133.998 265.602C145.998 265.644 157.889 263.258 168.99 258.58V258.58Z" fill="#AFC0E0"/>
<path d="M163.578 278.527C162.635 281.752 161.641 285.003 160.595 288.28C160.595 288.28 145.375 304.539 108.61 288.28C108.61 288.28 107.417 284.832 105.628 278.527C105.623 278.527 143.095 289.582 163.578 278.527Z" fill="#E3E8F4"/>
<path opacity="0.2" d="M129.92 106.896L129.873 106.931L114.15 127.748C114.15 127.922 114.15 128.097 114.15 128.276C114.147 131.864 114.993 135.398 116.617 138.575L135.144 106.083L129.92 106.896Z" fill="white"/>
<path opacity="0.2" d="M134.939 125.685L122.062 145.457C120.515 144.15 119.15 142.632 118.006 140.944L133.346 124.06L134.939 125.685Z" fill="white"/>
<path opacity="0.2" d="M116.838 288.284C116.838 288.284 113.165 277.662 109.126 259.616C100.233 219.923 89.5676 144.291 112.292 66.6048C118.4 45.5847 126.813 25.3425 137.368 6.26593C134.484 2.11925 132.681 0.00439453 132.681 0.00439453C120.438 20.8789 110.817 43.2563 104.047 66.6048C81.3224 144.291 91.9879 219.923 100.881 259.616C104.92 277.662 108.593 288.284 108.593 288.284C123.119 294.703 134.279 296.049 142.469 295.332C135.472 294.786 126.976 292.763 116.838 288.284Z" fill="white"/>
<path d="M399.253 318.508C399.253 318.508 419.169 293.095 417.849 267.642C417.229 256.972 420.001 246.384 425.749 237.466C428.515 233.248 431.653 229.299 435.123 225.669" stroke="#535461" stroke-width="2" stroke-miterlimit="10"/>
<path d="M434.369 209.641C432.946 213.185 435.076 226.106 435.076 226.106C435.076 226.106 445.46 218.468 446.884 214.924C447.567 213.222 447.563 211.312 446.872 209.613C446.182 207.914 444.862 206.567 443.202 205.866C441.542 205.165 439.679 205.17 438.023 205.878C436.366 206.586 435.052 207.939 434.369 209.641V209.641Z" fill="#2271FF"/>
<path d="M416.14 224.908C416.826 228.675 425.463 238.332 425.463 238.332C425.463 238.332 430.15 226.136 429.447 222.365C429.118 220.556 428.102 218.954 426.622 217.913C425.141 216.872 423.318 216.477 421.553 216.814C419.789 217.151 418.227 218.193 417.212 219.711C416.197 221.229 415.811 223.099 416.14 224.908V224.908Z" fill="#2271FF"/>
<path d="M403.127 258.65C405.572 261.547 417.785 265.414 417.785 265.414C417.785 265.414 415.807 252.467 413.362 249.566C412.175 248.22 410.521 247.405 408.755 247.295C406.989 247.185 405.251 247.789 403.914 248.977C402.577 250.165 401.746 251.842 401.601 253.65C401.455 255.459 402.006 257.253 403.135 258.65H403.127Z" fill="#2271FF"/>
<path d="M398.887 286.453C400.817 289.735 412.215 295.66 412.215 295.66C412.215 295.66 412.403 282.551 410.473 279.274C410.013 278.494 409.408 277.814 408.692 277.274C407.976 276.734 407.164 276.343 406.301 276.125C405.438 275.907 404.541 275.865 403.663 276.002C402.784 276.139 401.94 276.452 401.179 276.923C400.418 277.395 399.756 278.015 399.229 278.749C398.702 279.483 398.321 280.317 398.108 281.202C397.895 282.086 397.855 283.006 397.988 283.907C398.122 284.808 398.427 285.673 398.887 286.453Z" fill="#2271FF"/>
<path d="M438.327 244.567C434.859 245.987 422.28 243.671 422.28 243.671C422.28 243.671 429.831 233.101 433.303 231.677C434.97 230.994 436.834 231.018 438.483 231.743C440.133 232.469 441.434 233.837 442.1 235.546C442.767 237.255 442.743 239.166 442.036 240.858C441.328 242.55 439.994 243.884 438.327 244.567V244.567Z" fill="#2271FF"/>
<path d="M432.967 277.019C429.243 277.312 417.917 271.243 417.917 271.243C417.917 271.243 428.203 263.47 431.931 263.177C433.7 263.076 435.437 263.689 436.769 264.886C438.102 266.083 438.924 267.767 439.059 269.578C439.195 271.389 438.633 273.183 437.494 274.574C436.355 275.965 434.73 276.843 432.967 277.019V277.019Z" fill="#2271FF"/>
<path d="M423.537 307.825C419.911 308.76 407.75 304.74 407.75 304.74C407.75 304.74 416.609 295.297 420.235 294.366C421.096 294.144 421.992 294.098 422.872 294.231C423.751 294.364 424.596 294.673 425.358 295.14C426.121 295.608 426.786 296.225 427.317 296.956C427.847 297.687 428.231 298.519 428.448 299.402C428.665 300.286 428.71 301.205 428.58 302.106C428.451 303.008 428.15 303.874 427.693 304.656C427.237 305.439 426.636 306.121 425.923 306.664C425.209 307.208 424.399 307.602 423.537 307.825V307.825Z" fill="#2271FF"/>
<path opacity="0.25" d="M434.369 209.641C432.946 213.185 435.076 226.106 435.076 226.106C435.076 226.106 445.46 218.468 446.884 214.924C447.567 213.222 447.563 211.312 446.872 209.613C446.182 207.914 444.862 206.567 443.202 205.866C441.542 205.165 439.679 205.17 438.023 205.878C436.366 206.586 435.052 207.939 434.369 209.641V209.641Z" fill="black"/>
<path opacity="0.25" d="M416.14 224.908C416.826 228.675 425.463 238.332 425.463 238.332C425.463 238.332 430.15 226.136 429.447 222.365C429.118 220.556 428.102 218.954 426.622 217.913C425.141 216.872 423.318 216.477 421.553 216.814C419.789 217.151 418.227 218.193 417.212 219.711C416.197 221.229 415.811 223.099 416.14 224.908V224.908Z" fill="black"/>
<path opacity="0.25" d="M403.127 258.65C405.572 261.547 417.785 265.414 417.785 265.414C417.785 265.414 415.807 252.467 413.362 249.566C412.175 248.22 410.521 247.405 408.755 247.295C406.989 247.185 405.251 247.789 403.914 248.977C402.577 250.165 401.746 251.842 401.601 253.65C401.455 255.459 402.006 257.253 403.135 258.65H403.127Z" fill="black"/>
<path opacity="0.25" d="M398.887 286.453C400.817 289.735 412.215 295.66 412.215 295.66C412.215 295.66 412.403 282.551 410.473 279.274C410.013 278.494 409.408 277.814 408.692 277.274C407.976 276.734 407.164 276.343 406.301 276.125C405.438 275.907 404.541 275.865 403.663 276.002C402.784 276.139 401.94 276.452 401.179 276.923C400.418 277.395 399.756 278.015 399.229 278.749C398.702 279.483 398.321 280.317 398.108 281.202C397.895 282.086 397.855 283.006 397.988 283.907C398.122 284.808 398.427 285.673 398.887 286.453Z" fill="black"/>
<path opacity="0.25" d="M438.327 244.567C434.859 245.987 422.28 243.671 422.28 243.671C422.28 243.671 429.831 233.101 433.303 231.677C434.97 230.994 436.834 231.018 438.483 231.743C440.133 232.469 441.434 233.837 442.1 235.546C442.767 237.255 442.743 239.166 442.036 240.858C441.328 242.55 439.994 243.884 438.327 244.567V244.567Z" fill="black"/>
<path opacity="0.25" d="M432.967 277.019C429.243 277.312 417.917 271.243 417.917 271.243C417.917 271.243 428.203 263.47 431.931 263.177C433.7 263.076 435.437 263.689 436.769 264.886C438.102 266.083 438.924 267.767 439.059 269.578C439.195 271.389 438.633 273.183 437.494 274.574C436.355 275.965 434.73 276.843 432.967 277.019V277.019Z" fill="black"/>
<path opacity="0.25" d="M423.537 307.825C419.911 308.76 407.75 304.74 407.75 304.74C407.75 304.74 416.609 295.297 420.235 294.366C421.096 294.144 421.992 294.098 422.872 294.231C423.751 294.364 424.596 294.673 425.358 295.14C426.121 295.608 426.786 296.225 427.317 296.956C427.847 297.687 428.231 298.519 428.448 299.402C428.665 300.286 428.71 301.205 428.58 302.106C428.451 303.008 428.15 303.874 427.693 304.656C427.237 305.439 426.636 306.121 425.923 306.664C425.209 307.208 424.399 307.602 423.537 307.825V307.825Z" fill="black"/>
<path d="M399.432 317.446C399.432 317.446 427.683 302.485 436.533 278.671C440.182 268.656 446.902 260.126 455.682 254.363C459.871 251.659 464.293 249.353 468.892 247.477" stroke="#535461" stroke-width="2" stroke-miterlimit="10"/>
<path d="M474.555 232.503C471.853 235.155 468.696 247.853 468.696 247.853C468.696 247.853 481.206 245.183 483.908 242.535C485.207 241.263 485.961 239.514 486.003 237.672C486.045 235.831 485.372 234.047 484.131 232.715C482.891 231.382 481.185 230.609 479.389 230.566C477.593 230.523 475.854 231.213 474.555 232.485V232.503Z" fill="#2271FF"/>
<path d="M451.86 238.887C451.008 242.618 455.077 255.054 455.077 255.054C455.077 255.054 464.149 245.847 465.027 242.094C465.435 240.306 465.135 238.425 464.193 236.864C463.251 235.302 461.744 234.187 460.002 233.762C458.26 233.338 456.425 233.639 454.899 234.6C453.373 235.56 452.28 237.102 451.86 238.887V238.887Z" fill="#2271FF"/>
<path d="M426.626 264.326C427.717 267.992 437.356 276.6 437.356 276.6C437.356 276.6 440.667 263.928 439.576 260.28C439.317 259.408 438.893 258.597 438.328 257.893C437.763 257.189 437.069 256.606 436.284 256.178C435.5 255.749 434.641 255.483 433.756 255.395C432.871 255.306 431.978 255.398 431.128 255.663C430.278 255.929 429.487 256.364 428.801 256.943C428.114 257.522 427.546 258.234 427.128 259.039C426.71 259.843 426.45 260.724 426.364 261.631C426.278 262.538 426.367 263.454 426.626 264.326V264.326Z" fill="#2271FF"/>
<path d="M411.764 287.983C412.232 291.788 420.311 301.939 420.311 301.939C420.311 301.939 425.663 290.041 425.19 286.235C424.964 284.409 424.04 282.75 422.621 281.623C421.203 280.496 419.405 279.993 417.625 280.224C415.844 280.456 414.227 281.404 413.127 282.859C412.028 284.314 411.538 286.157 411.764 287.983V287.983Z" fill="#2271FF"/>
<path d="M464.375 266.078C460.638 265.938 450.058 258.593 450.058 258.593C450.058 258.593 461.137 252.069 464.874 252.209C465.762 252.243 466.635 252.455 467.443 252.835C468.25 253.214 468.978 253.753 469.582 254.421C470.187 255.089 470.658 255.872 470.967 256.726C471.277 257.58 471.419 258.489 471.387 259.399C471.354 260.31 471.147 261.205 470.777 262.034C470.406 262.862 469.881 263.608 469.23 264.228C468.579 264.848 467.815 265.331 466.982 265.648C466.149 265.966 465.263 266.112 464.375 266.078V266.078Z" fill="#2271FF"/>
<path d="M446.649 293.519C443.125 292.239 435.17 281.983 435.17 281.983C435.17 281.983 447.65 279.156 451.17 280.436C452.008 280.741 452.779 281.212 453.439 281.821C454.099 282.431 454.636 283.169 455.018 283.991C455.401 284.814 455.621 285.706 455.668 286.616C455.714 287.526 455.585 288.437 455.288 289.296C454.991 290.155 454.533 290.945 453.938 291.622C453.343 292.3 452.624 292.85 451.822 293.242C451.019 293.634 450.15 293.861 449.262 293.908C448.375 293.956 447.487 293.823 446.649 293.519V293.519Z" fill="#2271FF"/>
<path d="M425.851 317.765C422.169 317.114 412.642 308.384 412.642 308.384C412.642 308.384 424.474 303.438 428.156 304.089C429.925 304.402 431.5 305.422 432.534 306.926C433.569 308.43 433.979 310.293 433.674 312.107C433.369 313.92 432.374 315.536 430.907 316.597C429.441 317.658 427.624 318.078 425.855 317.765H425.851Z" fill="#2271FF"/>
<path d="M439.601 303.403L417.704 270.837C417.704 270.837 417.277 262.775 415.863 260.892C414.448 259.008 415.556 254.818 415.556 254.818C415.556 254.818 417.09 252.515 415.761 252.305C414.431 252.096 415.556 246.962 415.556 246.962L415.454 238.795C415.454 238.795 416.681 230.93 415.658 229.06C415.359 228.55 415.209 227.963 415.227 227.368C415.246 226.774 415.431 226.197 415.761 225.708C415.761 225.708 416.988 221.203 415.761 220.054C414.533 218.905 414.84 211.883 415.147 206.334C415.454 200.784 412.995 197.643 412.995 196.804C412.995 195.965 404.899 187.798 404.899 187.068C404.899 186.339 399.786 183.297 396.714 182.459C393.641 181.62 392.107 180.995 392.21 180.575C392.312 180.156 387.399 178.482 387.399 178.482C387.399 178.482 383.099 178.168 381.459 175.965C379.818 173.763 374.816 173.134 374.671 173.112C374.641 172.968 374.607 172.819 374.577 172.675C374.548 172.531 374.513 172.361 374.484 172.203C374.871 171.535 375.229 170.853 375.553 170.15C375.651 169.935 375.745 169.713 375.834 169.512C377.628 169.429 379.469 169.035 380.875 167.908C381.598 167.288 382.188 166.523 382.609 165.659C383.031 164.795 383.275 163.852 383.325 162.887C383.412 160.952 382.999 159.027 382.128 157.307C381.233 155.42 379.916 153.467 380.368 151.422C380.568 150.548 381.084 149.761 381.348 148.896C381.847 147.258 381.387 145.457 380.611 143.937C379.836 142.416 378.757 141.079 377.897 139.607C376.797 137.73 376.064 135.652 375.736 133.489C375.562 132.353 375.493 131.156 374.935 130.155C374.473 129.413 373.861 128.78 373.141 128.298C369.94 125.95 366.073 124.748 362.139 124.877C359.353 124.977 356.574 125.751 353.809 125.397C352.143 125.187 350.553 124.58 348.943 124.086C345.508 123.046 341.55 122.618 338.559 124.632C335.567 126.646 334.379 130.61 332.354 133.708C330.565 136.452 327.94 138.75 326.576 141.651C326.576 141.599 326.602 141.542 326.619 141.485C326.284 142.157 326.028 142.867 325.856 143.6C325.337 145.881 325.771 148.267 326.312 150.543C326.589 151.719 326.973 152.995 327.966 153.646C328.958 154.297 330.365 154.153 331.541 154.367C331.498 154.563 331.447 154.764 331.404 154.965C330.186 160.865 331.18 167.019 334.188 172.202C337.196 177.384 341.997 181.215 347.635 182.93C347.635 183.145 347.635 183.367 347.635 183.568C347.632 184.17 347.597 184.771 347.528 185.369V185.369C347.528 185.369 337.238 183.184 334.472 184.67C331.707 186.155 326.282 187.291 325.464 188.121C324.646 188.952 322.601 188.331 320.777 193.256C318.953 198.18 318.732 203.201 316.376 205.49C314.019 207.78 312.796 209.366 312.694 211.044C312.592 212.722 313.001 213.137 312.076 213.666C311.151 214.194 309.826 216.388 310.235 217.227C310.235 217.227 310.747 219.32 309.11 220.364C307.474 221.409 307.674 223.506 307.674 223.506C307.674 223.506 307.061 225.813 305.629 226.333C304.197 226.853 303.273 230.314 303.273 230.314L298.615 235.797L289.416 225.354C288.727 224.572 287.763 224.102 286.736 224.047C285.709 223.993 284.704 224.36 283.94 225.066L279.424 229.243C277.68 229.677 276.105 230.639 274.903 232.005C273.918 233.041 273.126 234.252 272.563 235.579L270.088 237.86C269.31 238.849 268.834 240.052 268.721 241.318C268.608 242.584 268.863 243.856 269.453 244.973L275.346 251.654L275.384 251.711C273.156 252 271.187 252.734 269.683 254.093C260.884 262.05 260.777 269.386 262.111 272.729C263.445 276.071 274.596 288.961 274.596 288.961C274.596 288.961 281.077 297.6 290.434 302.197L290.362 302.271C290.179 302.472 289.995 302.708 289.816 302.926L289.663 303.128L289.522 303.328L289.356 303.582C289.309 303.647 289.267 303.717 289.224 303.787C289.181 303.857 289.105 303.984 289.049 304.089L288.934 304.29C288.866 304.421 288.794 304.556 288.725 304.696L288.657 304.832C288.572 305.015 288.487 305.203 288.406 305.4C288.376 305.47 288.35 305.544 288.321 305.614C288.27 305.749 288.214 305.889 288.163 306.051C288.112 306.212 288.099 306.23 288.069 306.322C288.039 306.413 287.98 306.593 287.937 306.732C287.895 306.872 287.878 306.929 287.852 307.025C287.826 307.121 287.767 307.331 287.728 307.488C287.69 307.646 287.682 307.672 287.656 307.772C287.601 308.013 287.545 308.262 287.498 308.524C287.498 308.62 287.464 308.72 287.447 308.821C287.413 308.996 287.383 309.175 287.358 309.358C287.336 309.485 287.324 309.612 287.307 309.739C287.289 309.865 287.264 310.084 287.243 310.259L287.204 310.661C287.204 310.853 287.17 311.054 287.157 311.255C287.157 311.377 287.157 311.5 287.136 311.622C287.136 311.954 287.102 312.286 287.098 312.636C286.893 324.87 287.592 326.666 287.592 326.666C287.592 326.666 289.037 330.568 293.025 330.848C293.61 330.892 294.199 330.859 294.776 330.752C300.098 329.808 312.583 327.61 316.985 328.449C319.631 328.951 324.531 328.209 328.021 327.531L328.937 327.352L329.576 329.432L331.6 328.864L333.305 329.882L334.391 330.52C336.411 337.546 344.618 335.152 344.618 335.152L346.544 336.297L366.298 336.821C366.298 336.821 370.559 339.443 373.291 340.264C373.615 340.365 373.947 340.439 374.283 340.487C376.115 340.638 377.953 340.673 379.789 340.592C381.301 340.553 382.473 340.487 382.473 340.487C382.473 340.487 382.273 334.986 381.983 328.829C389.534 328.506 396.228 328.021 400.28 327.291C410.83 325.39 415.232 315.554 416.851 310.298C417.338 312.446 417.684 314.626 417.887 316.822C418.317 318.74 418.865 320.628 419.527 322.476C420.103 323.962 420.859 325.369 421.777 326.662C429.558 323.94 424.849 319.858 423.209 318.076C421.568 316.293 424.338 314.829 424.338 314.829C424.338 314.829 426.469 313.365 426.281 312.002C426.094 310.639 425.974 309.175 432.933 309.28C439.891 309.385 439.601 303.403 439.601 303.403ZM331.515 236.549C331.605 237.148 332.576 243.601 333.454 245.288C333.637 245.646 333.71 246.918 333.684 248.736C329.559 248.399 325.264 248.22 325.264 248.22C325.388 248.373 325.465 248.56 325.486 248.757L324.838 248.609L323.896 248.373L331.494 236.523L331.515 236.549ZM316.465 261.106L323.602 262.268L324.203 262.364C323.998 263.506 323.875 264.661 323.832 265.82C323.832 265.93 323.994 266.061 324.224 266.214C324.125 266.791 324.078 267.376 324.084 267.962C324.199 268.543 327.535 269.792 331.362 270.832C331.311 271.042 331.259 271.243 331.208 271.431C327.829 269.609 322.503 268.757 321.889 267.402C321.276 266.048 303.141 259.537 303.141 259.537C303.141 259.537 302.48 259.179 301.338 258.611L306.111 259.537L307.423 259.402C310.398 260.165 313.419 260.731 316.465 261.097V261.106Z" fill="url(#paint0_linear_113_14)"/>
<path d="M416.302 307.96C416.302 307.96 413.464 325.539 399.057 328.139C384.651 330.739 336.564 330.219 336.564 330.219C336.564 330.219 309.072 326.164 299.131 302.341C289.19 278.518 282.798 269.049 291.32 268.634C299.843 268.219 345.798 284.553 348.419 284.758C351.039 284.963 418.837 248.556 416.302 307.96Z" fill="#434175"/>
<path opacity="0.05" d="M416.302 307.96C416.302 307.96 413.464 325.539 399.057 328.139C384.651 330.739 336.564 330.219 336.564 330.219C336.564 330.219 309.072 326.164 299.131 302.341C289.19 278.518 282.798 269.049 291.32 268.634C299.843 268.219 345.798 284.553 348.419 284.758C351.039 284.963 418.837 248.556 416.302 307.96Z" fill="black"/>
<path d="M287.345 327.514C287.345 327.514 288.781 331.394 292.731 331.669C293.311 331.711 293.893 331.679 294.465 331.573C299.74 330.638 312.119 328.453 316.478 329.283C319.103 329.786 323.956 329.043 327.412 328.375C329.713 327.938 331.392 327.501 331.392 327.501C331.392 327.501 327.335 313.667 326.824 313.252C326.312 312.836 308.565 301.913 308.565 301.913L294.503 300.877H294.461C294.461 300.877 291.857 301.056 289.697 303.748C288.21 305.587 286.936 308.611 286.851 313.566C286.655 325.744 287.345 327.514 287.345 327.514Z" fill="#222127"/>
<path opacity="0.05" d="M287.345 327.514C287.345 327.514 288.781 331.394 292.731 331.669C291.345 329.842 290.064 327.934 288.896 325.954L288.968 315.865C288.342 308.31 291.789 303.473 294.508 300.89H294.465C294.465 300.89 287.059 301.406 286.855 313.562C286.65 325.718 287.345 327.514 287.345 327.514Z" fill="black"/>
<path opacity="0.1" d="M348.334 305.461L361.419 294.974L382.013 274.166C382.013 274.166 379.789 274.057 376.435 273.908C375.583 274.455 373.261 276.172 373.176 278.278C373.073 280.821 367.606 278.453 364.768 279.908C361.931 281.363 348.031 299.606 345.594 299.488C343.156 299.37 341.235 298.22 340.216 299.99C340.216 300.029 340.169 300.064 340.144 300.104L348.334 305.461Z" fill="black"/>
<path opacity="0.1" d="M289.701 303.757C290.166 303.988 290.634 304.194 291.116 304.421C301.061 308.79 313.333 317.966 314.249 319.609C314.803 320.623 321.919 325.054 327.412 328.375C329.713 327.938 331.392 327.501 331.392 327.501C331.392 327.501 327.335 313.667 326.824 313.252C326.312 312.836 308.565 301.913 308.565 301.913L294.503 300.877H294.461C294.461 300.877 291.862 301.065 289.701 303.757Z" fill="black"/>
<path d="M262.107 273.939C263.423 277.269 274.464 290.067 274.464 290.067C274.464 290.067 281.46 299.426 291.406 303.796C301.351 308.165 313.623 317.341 314.535 318.984C315.123 320.055 323.057 324.949 328.63 328.313L329.879 329.061L332.649 330.708L334.114 331.582C334.114 331.582 337.523 328.785 340.894 325.971C344.264 323.157 347.554 320.4 347.609 320.243C347.707 319.933 349.024 316.393 348.721 316.188C348.564 316.079 347.869 314.637 346.591 312.968C345.226 311.115 343.456 309.618 341.422 308.598C336.735 306.413 334.728 301.441 334.728 301.441C334.728 301.441 334.302 301.109 333.607 300.672C332.406 299.894 330.475 298.775 329.048 298.587C326.811 298.299 322.656 293.619 322.656 293.619C322.656 293.619 319.814 291.745 318.698 289.355C317.633 287.074 301.901 275.993 300.443 274.97L338.584 300.086L347.711 306.103L360.797 295.616L381.395 274.809C381.395 274.809 378.625 274.669 374.577 274.494C364.568 274.057 346.791 273.353 344.545 273.873C342.717 274.31 340.831 274.436 338.963 274.245C338.963 274.245 333.901 274.481 330.552 272.667C327.203 270.854 321.923 270.006 321.314 268.665C320.705 267.323 302.749 260.865 302.749 260.865C302.749 260.865 278.303 247.551 269.576 255.46C260.85 263.369 260.786 270.614 262.107 273.939Z" fill="#434175"/>
<path d="M340.928 197.586L344.072 208.3L348.129 232.433L363.043 233.473L367.359 226.132L371.684 218.804C371.684 218.804 374.369 209.051 376.299 199.618C378.003 191.272 379.12 183.171 377.262 182.292C375.617 181.51 374.535 178.701 373.853 175.677C373.764 175.306 373.683 174.925 373.606 174.545C373.109 171.985 372.779 169.394 372.617 166.789C372.617 166.789 341.371 165.129 345.734 178.338C346.513 180.594 346.911 182.971 346.91 185.364C346.906 185.961 346.87 186.558 346.804 187.151C346.582 189.213 345.945 191.205 344.933 193.001C343.922 194.797 342.558 196.358 340.928 197.586V197.586Z" fill="#EE8E9E"/>
<path d="M334.434 195.816L335.55 214.02L338.086 229.518L340.928 236.698L343.463 275.971C343.463 275.971 367.926 278.872 373.874 275.918C374.303 275.731 374.675 275.429 374.952 275.044C382.137 263.933 379.78 231.703 379.78 231.703L382.52 210.891L380.692 200.09L376.282 199.609L372.873 199.238C372.873 199.238 372.106 200.208 370.998 201.706C367.99 205.779 362.476 213.788 362.83 217.131C363.332 221.71 362.22 226.39 360.495 227.12C358.769 227.849 357.35 229.095 357.047 227.849C356.745 226.604 356.438 226.289 356.741 224.52C357.043 222.75 355.42 217.341 355.42 217.341C355.42 217.341 352.684 210.996 352.863 208.291C353.042 205.586 352.56 202.462 351.747 201.737C350.933 201.012 349.821 200.277 350.732 196.93C351.644 193.583 346.731 187.121 346.731 187.121L334.434 195.816Z" fill="#E3E8F4"/>
<path opacity="0.1" d="M366.746 241.281L367.76 272.388L373.619 275.717C374.047 275.53 374.42 275.228 374.697 274.843C381.885 263.714 379.529 231.489 379.529 231.489L382.269 210.681L380.441 199.884L376.026 199.404C377.731 191.058 378.847 182.957 376.993 182.078C375.344 181.296 374.262 178.487 373.559 175.463L370.406 197.485C370.406 197.485 370.67 199.469 370.764 201.514C370.836 203.035 370.811 204.573 370.508 205.39C369.796 207.264 370.304 210.594 370.304 210.594C368.476 213.897 367.564 220.019 367.116 225.931C366.515 233.792 366.746 241.281 366.746 241.281Z" fill="black"/>
<path d="M373.657 174.982C373.657 174.982 378.77 175.633 380.39 177.818C382.009 180.003 386.274 180.304 386.274 180.304C386.274 180.304 391.144 181.969 391.042 182.384C390.94 182.799 392.461 183.428 395.508 184.259C398.554 185.089 403.604 188.108 403.604 188.838C403.604 189.568 411.619 197.678 411.619 198.512C411.619 199.347 414.056 202.445 413.749 207.977C413.443 213.508 413.14 220.46 414.359 221.605C415.578 222.75 414.359 227.224 414.359 227.224C414.036 227.714 413.858 228.288 413.846 228.879C413.835 229.47 413.991 230.052 414.295 230.554C415.309 232.428 414.095 240.232 414.095 240.232L414.193 248.347C414.193 248.347 413.076 253.441 414.397 253.651C415.718 253.861 414.193 256.146 414.193 256.146C414.193 256.146 413.076 260.31 414.499 262.181C415.923 264.051 416.323 272.064 416.323 272.064L438.055 304.399C438.055 304.399 438.361 310.328 431.463 310.224C424.564 310.119 424.645 311.578 424.867 312.928C425.088 314.278 422.941 315.738 422.941 315.738C422.941 315.738 420.201 317.193 421.824 318.963C423.448 320.732 428.114 324.787 420.405 327.492C419.493 326.207 418.743 324.81 418.172 323.332C417.518 321.497 416.976 319.622 416.549 317.717C416.549 317.717 415.837 309.808 414.418 308.768C413 307.729 413.2 302.734 413.2 302.734C413.2 302.734 415.228 298.679 412.39 297.014C409.552 295.35 368.318 271.964 368.318 271.964L367.304 240.857C367.304 240.857 366.592 217.869 370.853 210.17C370.853 210.17 370.346 206.84 371.058 204.97C371.769 203.1 370.956 197.061 370.956 197.061L373.657 174.982Z" fill="#222127"/>
<path opacity="0.1" d="M347.068 187.462C347.068 187.462 336.871 185.307 334.131 186.762C331.392 188.218 326.035 189.384 325.183 190.197C324.331 191.01 322.341 190.407 320.517 195.296C318.694 200.186 318.485 205.176 316.154 207.465C313.823 209.755 312.604 211.315 312.502 212.98C312.4 214.644 312.805 215.06 311.893 215.601C310.981 216.143 309.66 218.306 310.065 219.141C310.47 219.975 331.204 238.257 331.204 238.257C331.204 238.257 332.222 245.249 333.134 246.996C334.046 248.744 332.12 273.109 330.092 274.774C328.064 276.438 343.787 276.285 343.787 276.285C343.787 276.285 344.494 260.315 345.104 259.48C345.713 258.646 344.678 241.565 344.678 241.565C344.678 241.565 344.575 227.001 345.896 223.152C347.217 219.302 347.068 206.521 347.068 206.521C347.068 206.521 348.236 198.844 349.654 197.053C351.073 195.261 347.068 187.462 347.068 187.462Z" fill="black"/>
<path d="M346.765 187.151C346.765 187.151 336.564 184.997 333.825 186.452C331.085 187.907 325.729 189.052 324.898 189.887C324.067 190.721 322.06 190.092 320.21 194.981C318.361 199.871 318.182 204.865 315.847 207.155C313.512 209.445 312.298 211.005 312.195 212.669C312.093 214.334 312.502 214.749 311.59 215.269C310.678 215.789 309.358 217.974 309.762 218.804C310.167 219.634 330.863 237.947 330.863 237.947C330.863 237.947 331.877 244.938 332.789 246.686C333.701 248.434 331.775 272.794 329.747 274.459C327.718 276.124 343.442 275.971 343.442 275.971C343.442 275.971 344.153 260 344.763 259.17C345.372 258.34 344.337 241.255 344.337 241.255C344.337 241.255 344.239 226.691 345.555 222.842C346.872 218.992 346.727 206.194 346.727 206.194C346.727 206.194 347.895 198.516 349.309 196.729C350.724 194.942 346.765 187.151 346.765 187.151Z" fill="#222127"/>
<path opacity="0.1" d="M345.692 178.338C346.47 180.594 346.868 182.971 346.868 185.364C351.856 186.88 357.196 186.637 362.035 184.676C366.874 182.715 370.933 179.149 373.563 174.545C373.066 171.985 372.736 169.394 372.575 166.789C372.575 166.789 341.333 165.129 345.692 178.338Z" fill="black"/>
<path d="M330.275 161.9C330.28 168.002 332.569 173.87 336.669 178.293C340.77 182.715 346.369 185.356 352.312 185.67C358.255 185.984 364.089 183.947 368.61 179.979C373.132 176.012 375.996 170.416 376.613 164.346C377.229 158.277 375.551 152.196 371.924 147.358C368.296 142.52 362.997 139.294 357.118 138.346C351.24 137.397 345.23 138.798 340.329 142.259C335.428 145.721 332.009 150.979 330.778 156.949C330.442 158.577 330.274 160.236 330.275 161.9Z" fill="#EE8E9E"/>
<path d="M315.361 217.035L309.784 218.804C309.784 218.804 310.291 220.884 308.667 221.924C307.044 222.964 307.248 225.048 307.248 225.048C307.248 225.048 306.639 227.334 305.22 227.854C303.801 228.373 302.885 231.786 302.885 231.786L298.219 237.3C298.219 237.3 296.493 238.755 296.8 239.485C297.107 240.215 294.972 240.42 294.972 240.42L296.089 258.956L305.727 260.83L311.693 260.206L316.563 258.331L320.824 255.709L322.767 250.654L331.289 237.34L315.361 217.035Z" fill="#222127"/>
<path d="M296.391 241.915C296.391 241.915 284.034 223.602 274.783 233.486C265.533 243.37 278.537 259.388 281.58 258.868C284.622 258.348 299.131 257.518 299.131 257.518L296.391 241.915Z" fill="#EE8E9E"/>
<path d="M282.249 229.155L270.802 239.744C268.596 241.783 268.421 245.27 270.41 247.532L283.128 261.99C285.117 264.251 288.517 264.431 290.722 262.391L302.17 251.803C304.375 249.763 304.551 246.276 302.562 244.015L289.844 229.556C287.855 227.295 284.455 227.115 282.249 229.155Z" fill="#30374E"/>
<path opacity="0.1" d="M282.249 229.155L270.802 239.744C268.596 241.783 268.421 245.27 270.41 247.532L283.128 261.99C285.117 264.251 288.517 264.431 290.722 262.391L302.17 251.803C304.375 249.763 304.551 246.276 302.562 244.015L289.844 229.556C287.855 227.295 284.455 227.115 282.249 229.155Z" fill="black"/>
<path d="M282.598 227.647L271.15 238.236C268.945 240.275 268.77 243.762 270.759 246.024L283.476 260.482C285.465 262.743 288.866 262.923 291.071 260.883L302.519 250.295C304.724 248.255 304.899 244.768 302.91 242.507L290.193 228.049C288.204 225.787 284.803 225.607 282.598 227.647Z" fill="#30374E"/>
<path d="M286.51 250.946C289.703 250.946 292.292 248.292 292.292 245.017C292.292 241.742 289.703 239.088 286.51 239.088C283.316 239.088 280.727 241.742 280.727 245.017C280.727 248.292 283.316 250.946 286.51 250.946Z" fill="#2271FF"/>
<path opacity="0.1" d="M286.51 250.946C289.703 250.946 292.292 248.292 292.292 245.017C292.292 241.742 289.703 239.088 286.51 239.088C283.316 239.088 280.727 241.742 280.727 245.017C280.727 248.292 283.316 250.946 286.51 250.946Z" fill="black"/>
<path d="M286.834 250.195C290.027 250.195 292.616 247.54 292.616 244.266C292.616 240.991 290.027 238.336 286.834 238.336C283.64 238.336 281.051 240.991 281.051 244.266C281.051 247.54 283.64 250.195 286.834 250.195Z" fill="#2271FF"/>
<path d="M288.38 245.747C288.278 259.48 315.975 262.39 315.975 262.39L323.048 263.544L326.219 264.059L327.539 250.654C327.539 250.654 326.086 250.431 324.271 249.998C321.591 249.356 318.118 248.25 317.39 246.699C316.175 244.099 288.478 232.018 288.38 245.747Z" fill="#EE8E9E"/>
<path opacity="0.1" d="M330.778 156.949C331.417 156.997 332.02 157.272 332.482 157.727C333.266 158.579 333.309 160.091 334.327 160.615C334.708 160.785 335.129 160.835 335.538 160.759C338.235 160.366 339.799 157.264 342.385 156.39C343.859 155.9 345.483 156.219 346.923 156.787C347.502 156.974 348.022 157.316 348.427 157.779C349.279 158.929 348.687 160.62 349.088 162.013C349.646 163.945 351.896 164.714 353.843 164.967C355.79 165.221 357.985 165.36 359.284 166.868C360.205 167.939 360.439 169.49 360.252 170.892C360.137 171.382 360.137 171.893 360.252 172.382C360.789 173.942 363.422 173.693 364.108 172.478C364.611 171.583 364.457 170.84 365.642 170.591C366.443 170.42 367.385 170.766 368.126 171.028C370.191 171.758 372.368 172.102 374.552 172.041C375.933 169.002 376.672 165.698 376.723 162.346C376.773 158.993 376.133 155.667 374.844 152.586C373.555 149.504 371.646 146.737 369.242 144.464C366.839 142.19 363.994 140.463 360.895 139.395C357.796 138.326 354.511 137.94 351.257 138.263C348.002 138.585 344.85 139.608 342.008 141.265C339.165 142.922 336.696 145.175 334.76 147.878C332.825 150.581 331.468 153.672 330.778 156.949V156.949Z" fill="black"/>
<path d="M360.239 171.753C360.124 171.263 360.124 170.753 360.239 170.263C360.422 168.852 360.192 167.305 359.272 166.239C357.993 164.731 355.778 164.587 353.83 164.338C351.883 164.089 349.633 163.32 349.075 161.389C348.675 159.995 349.28 158.299 348.415 157.15C348.012 156.687 347.493 156.346 346.915 156.163C345.47 155.59 343.847 155.289 342.372 155.761C339.786 156.635 338.222 159.746 335.525 160.13C335.116 160.206 334.695 160.156 334.315 159.986C333.296 159.462 333.254 157.95 332.47 157.102C331.238 155.765 328.899 156.626 327.391 155.634C326.406 154.983 326.027 153.72 325.754 152.553C325.217 150.29 324.787 147.917 325.303 145.654C326.185 141.782 329.564 139.13 331.694 135.827C333.701 132.746 334.826 128.836 337.843 126.808C340.86 124.781 344.733 125.231 348.133 126.266C349.727 126.751 351.304 127.354 352.953 127.577C355.697 127.922 358.449 127.14 361.211 127.062C365.11 126.932 368.943 128.126 372.115 130.457C372.829 130.937 373.436 131.567 373.896 132.305C374.445 133.301 374.518 134.49 374.684 135.617C375.006 137.768 375.73 139.834 376.815 141.704C377.667 143.168 378.736 144.496 379.508 146.008C380.279 147.52 380.73 149.307 380.236 150.932C379.976 151.806 379.461 152.562 379.269 153.44C378.817 155.472 380.121 157.412 381.012 159.287C381.874 160.997 382.283 162.909 382.196 164.832C382.146 165.789 381.905 166.726 381.487 167.583C381.069 168.441 380.484 169.202 379.767 169.817C378.331 170.971 376.444 171.355 374.624 171.417C372.398 171.494 370.177 171.152 368.071 170.407C367.325 170.145 366.366 169.8 365.587 169.97C364.402 170.219 364.555 170.962 364.053 171.858C363.405 173.081 360.776 173.313 360.239 171.753Z" fill="#020202"/>
<path opacity="0.1" d="M347.724 306.086L360.81 295.599L381.408 274.791C381.408 274.791 378.638 274.651 374.59 274.476C373.853 275.245 373.197 276.224 373.154 277.317C373.052 279.86 367.585 277.496 364.747 278.951C361.909 280.406 348.01 298.644 345.572 298.526C343.135 298.408 341.213 297.259 340.195 299.029C340.173 299.07 340.149 299.109 340.122 299.147C339.718 299.621 339.176 299.95 338.576 300.086L347.724 306.086Z" fill="black"/>
<path d="M321.348 305.356L327.923 326.88L328.954 330.262L332.086 329.388L338.989 327.444L369.737 318.783C369.737 318.783 375.515 318.705 380.816 315.755C386.675 312.487 393.283 310.844 399.922 311.482C403.987 311.871 408.508 310.075 412.279 302.97C412.279 302.97 420.801 277.19 399.292 269.762C377.782 262.333 376.759 273.694 376.759 273.694C376.759 273.694 376.648 273.755 376.469 273.878C375.617 274.424 373.295 276.141 373.21 278.247C373.107 280.79 367.64 278.422 364.802 279.877C361.965 281.332 348.065 299.575 345.628 299.457C343.19 299.339 341.269 298.19 340.25 299.96C340.25 299.999 340.203 300.034 340.178 300.073C339.428 301.135 337.169 301.384 335.674 301.423C334.86 301.45 334.268 301.423 334.268 301.423L334.076 301.484L332.482 301.939L321.348 305.356Z" fill="#434175"/>
<path opacity="0.1" d="M323.048 263.544L326.219 264.059L327.54 250.654C327.54 250.654 326.086 250.431 324.271 249.998C324.753 251.855 323.662 259.096 323.048 263.544Z" fill="black"/>
<path opacity="0.1" d="M406.003 200.841C406.003 200.841 415.437 198.031 413.102 225.498C410.767 252.965 393.322 270.317 393.322 270.317C393.322 270.317 373.235 279.366 364.206 277.911C355.177 276.456 348.585 276.163 348.585 276.163C345.743 274.69 342.633 273.84 339.453 273.668C334.379 273.458 323.73 270.234 323.526 269.194C323.321 268.154 326.163 252.86 324.945 251.716C324.945 251.716 339.147 252.314 340.57 253.367C341.993 254.42 344.017 253.664 345.538 253.367C347.059 253.07 351.73 248.906 360.959 252.55C360.959 252.55 364.104 252.86 365.322 252.03C366.541 251.2 368.493 251.82 368.493 251.82C368.493 251.82 370.406 251.091 370.7 250.654C370.994 250.217 373.435 250.654 373.435 250.654C373.58 250.726 373.739 250.765 373.901 250.766C374.062 250.768 374.222 250.732 374.368 250.662C374.514 250.592 374.643 250.49 374.746 250.362C374.849 250.234 374.922 250.085 374.961 249.924C375.28 249.072 375.762 248.295 376.38 247.639C376.38 247.639 379.12 231.825 384.293 225.896C384.293 225.896 385.814 224.541 385.409 222.877C385.004 221.212 393.842 197.507 406.003 200.841Z" fill="black"/>
<path d="M405.773 198.726C405.773 198.726 415.207 195.917 412.876 223.383C410.545 250.85 393.07 268.219 393.07 268.219C393.07 268.219 372.984 277.269 363.955 275.813C354.925 274.358 348.334 274.044 348.334 274.044C345.492 272.57 342.382 271.72 339.202 271.549C334.131 271.339 323.479 268.114 323.274 267.074C323.07 266.034 325.912 250.741 324.697 249.596C324.697 249.596 338.9 250.195 340.318 251.248C341.737 252.301 343.77 251.545 345.291 251.248C346.812 250.951 351.478 246.791 360.712 250.431C360.712 250.431 363.857 250.741 365.071 249.911C366.285 249.081 368.245 249.701 368.245 249.701C368.245 249.701 370.146 248.971 370.448 248.556C370.751 248.141 373.188 248.556 373.188 248.556C373.333 248.629 373.491 248.668 373.652 248.669C373.813 248.671 373.972 248.636 374.118 248.566C374.264 248.497 374.393 248.395 374.495 248.267C374.597 248.14 374.671 247.991 374.709 247.831C375.027 246.978 375.51 246.199 376.128 245.541C376.128 245.541 378.868 229.728 384.041 223.799C384.041 223.799 385.562 222.444 385.158 220.784C384.753 219.123 393.577 195.397 405.773 198.726Z" fill="#222127"/>
<path opacity="0.1" d="M332.482 301.939L345.879 318.543C345.93 318.495 345.964 318.46 345.964 318.447C346.067 318.132 347.383 314.597 347.081 314.388C346.778 314.178 344.443 308.978 339.777 306.793C336.927 305.483 335.06 303.084 334.042 301.441L332.482 301.939Z" fill="black"/>
<path opacity="0.1" d="M332.666 330.708L334.131 331.582C334.131 331.582 337.54 328.785 340.911 325.971C344.281 323.157 347.571 320.4 347.626 320.243C347.724 319.933 349.041 316.393 348.738 316.188C348.581 316.079 347.886 314.637 346.608 312.968C337.523 310.346 343.305 316.826 344.077 317.123C344.077 317.123 332.998 314.501 332.41 326.871C332.33 328.156 332.416 329.446 332.666 330.708V330.708Z" fill="black"/>
<path d="M343.868 335.943L345.798 337.087L365.399 337.607C365.399 337.607 369.6 340.229 372.328 341.024C372.649 341.127 372.978 341.202 373.312 341.247C375.126 341.398 376.948 341.433 378.766 341.352C380.266 341.313 381.429 341.247 381.429 341.247C381.429 341.247 380.5 315.904 379.801 313.282C379.469 312.006 377.829 312.286 376.209 312.924C374.993 313.43 373.82 314.039 372.703 314.746C372.703 314.746 364.385 315.572 363.064 316.306C361.743 317.04 357.993 315.869 355.658 316.306C353.323 316.743 349.169 313.488 349.169 313.488C337.804 309.642 344.196 316.817 345.006 317.132C345.006 317.132 333.952 314.51 333.343 326.88C332.734 339.25 343.868 335.943 343.868 335.943Z" fill="#222127"/>
<path d="M372.174 326.164C372.387 331.407 376.371 337.913 378.745 341.352C380.245 341.313 381.408 341.247 381.408 341.247C381.408 341.247 380.479 315.904 379.78 313.282C379.448 312.006 377.807 312.286 376.188 312.924C374.241 316.682 372.004 321.938 372.174 326.164Z" fill="#222127"/>
<path opacity="0.1" d="M372.174 326.164C372.387 331.407 376.371 337.913 378.745 341.352C380.245 341.313 381.408 341.247 381.408 341.247C381.408 341.247 380.479 315.904 379.78 313.282C379.448 312.006 377.807 312.286 376.188 312.924C374.241 316.682 372.004 321.938 372.174 326.164Z" fill="black"/>
<path opacity="0.05" d="M368.825 326.858C370.171 331.918 370.159 337.594 372.306 341.024C372.628 341.127 372.957 341.202 373.291 341.247C375.105 341.398 376.926 341.433 378.745 341.352C380.245 341.313 381.408 341.247 381.408 341.247C381.408 341.247 380.479 315.904 379.78 313.282C379.448 312.006 377.807 312.286 376.188 312.924C374.972 313.43 373.799 314.039 372.681 314.746C372.681 314.746 367.104 320.383 368.825 326.858Z" fill="black"/>
<path opacity="0.1" d="M301.279 275.534C301.279 275.534 311.002 278.772 319.243 290.272L301.279 275.534Z" fill="black"/>
<g opacity="0.1">
<path opacity="0.1" d="M380.304 150.705C380.288 150.779 380.268 150.852 380.245 150.924C380.151 151.222 380.039 151.514 379.908 151.797C380.008 151.422 380.141 151.056 380.304 150.705V150.705Z" fill="black"/>
<path opacity="0.1" d="M325.285 145.658C325.454 144.929 325.707 144.224 326.04 143.557C325.989 143.736 325.933 143.915 325.891 144.098C325.375 146.362 325.805 148.734 326.342 150.998C326.619 152.164 326.994 153.427 327.978 154.078C329.491 155.07 331.813 154.205 333.058 155.542C333.842 156.394 333.884 157.906 334.907 158.43C335.287 158.601 335.709 158.651 336.117 158.575C338.81 158.181 340.378 155.079 342.965 154.205C344.439 153.716 346.058 154.035 347.503 154.607C348.081 154.79 348.6 155.132 349.002 155.595C349.855 156.744 349.262 158.439 349.663 159.829C350.221 161.76 352.471 162.529 354.418 162.778C356.366 163.027 358.56 163.171 359.86 164.683C360.78 165.749 361.014 167.305 360.827 168.708C360.714 169.197 360.714 169.708 360.827 170.198C361.364 171.757 363.997 171.508 364.662 170.294C365.165 169.398 365.016 168.655 366.2 168.406C366.997 168.236 367.939 168.581 368.68 168.843C370.786 169.587 373.007 169.929 375.234 169.852C377.053 169.787 378.945 169.415 380.377 168.253C381.031 167.718 381.568 167.048 381.953 166.287C381.619 167.673 380.857 168.912 379.78 169.817C378.348 170.971 376.461 171.355 374.637 171.417C372.412 171.494 370.192 171.152 368.088 170.407C367.342 170.145 366.383 169.8 365.604 169.97C364.419 170.219 364.568 170.962 364.07 171.858C363.379 173.09 360.75 173.322 360.209 171.762C360.096 171.272 360.096 170.762 360.209 170.272C360.397 168.86 360.166 167.314 359.246 166.247C357.942 164.74 355.748 164.596 353.8 164.347C351.853 164.098 349.603 163.329 349.049 161.397C348.645 160.003 349.254 158.308 348.389 157.159C347.984 156.696 347.464 156.355 346.885 156.171C345.44 155.599 343.821 155.297 342.347 155.769C339.756 156.643 338.192 159.754 335.499 160.139C335.091 160.215 334.67 160.165 334.289 159.995C333.266 159.47 333.224 157.958 332.44 157.111C331.208 155.774 328.873 156.635 327.365 155.643C326.376 154.992 326.001 153.729 325.724 152.562C325.196 150.294 324.766 147.922 325.285 145.658Z" fill="black"/>
</g>
<path opacity="0.1" d="M381.877 228.92C380.019 231.493 377.897 233.875 376.252 236.597C374.607 239.319 373.444 242.496 373.789 245.677C375.494 243.885 376.269 241.412 377.343 239.166C379.158 235.365 381.877 232.14 384.161 228.644C384.587 227.976 387.403 224.122 385.984 223.938C384.817 223.785 382.512 228.041 381.877 228.92Z" fill="black"/>
</g>
<defs>
<linearGradient id="paint0_linear_113_14" x1="350.545" y1="340.614" x2="350.545" y2="123.208" gradientUnits="userSpaceOnUse">
<stop stop-color="#808080" stop-opacity="0.25"/>
<stop offset="0.54" stop-color="#808080" stop-opacity="0.12"/>
<stop offset="1" stop-color="#808080" stop-opacity="0.1"/>
</linearGradient>
<clipPath id="clip0_113_14">
<rect width="486" height="344" fill="white"/>
</clipPath>
</defs>
</svg>
