<svg width="80" height="84" viewBox="0 0 80 84" fill="none" xmlns="http://www.w3.org/2000/svg">
<path d="M58.6306 60.4485C59.1212 56.1612 58.9743 55.5318 62.0156 56.2268L62.7875 56.2977C65.1262 56.4093 68.1856 55.9026 69.9831 55.0259C73.8525 53.1405 76.1462 49.9938 72.3318 50.82C63.6293 52.7054 63.0312 49.6112 63.0312 49.6112C72.2206 35.2951 76.0618 17.1215 72.7456 12.6728C63.7018 0.539406 48.0475 6.277 47.7856 6.42531L47.7018 6.44172C45.9825 6.067 44.0581 5.84322 41.8962 5.80647C37.9581 5.73822 34.97 6.89059 32.7031 8.69528C32.7031 8.69528 4.77622 -3.38563 6.07559 23.8881C6.35184 29.69 13.9956 67.7899 23.1131 56.2819C26.4456 52.0741 29.6656 48.5159 29.6656 48.5159C31.2643 49.6308 33.1793 50.2005 35.1868 49.9957L35.3425 49.8566C35.2937 50.379 35.315 50.8902 35.4043 51.4953C33.0562 54.2508 33.7462 54.7345 29.0506 55.7491C24.2993 56.7767 27.0906 58.607 28.9125 59.0854C31.1218 59.6656 36.2325 60.4872 39.6862 55.4117L39.5487 55.9906C40.47 56.7649 40.4081 61.5536 40.5381 64.9746C40.6687 68.3963 40.8868 71.589 41.5512 73.4717C42.2156 75.3539 42.9993 80.2022 49.1706 78.8136C54.3281 77.656 58.2712 75.9858 58.6306 60.4485Z" fill="black"/>
<path d="M47.1612 82.1993C44.4318 82.1993 42.6543 81.0909 41.5749 80.0206C39.9456 78.4062 39.2993 76.3265 38.9131 75.0843L38.7462 74.5658C37.9687 72.3621 37.7049 69.1892 37.5487 65.1033C37.5249 64.4897 37.5087 63.8578 37.4906 63.1878C37.4774 62.6975 37.4612 62.0826 37.4374 61.4395C36.4668 61.9264 35.4293 62.2729 34.3362 62.4685C32.4118 62.8137 30.3431 62.7021 28.1862 62.1358C26.6643 61.7361 25.0831 60.9079 24.1818 59.6289C21.5549 62.0446 19.0493 61.7171 17.6843 61.2387C15.2762 60.3954 13.1212 58.0257 11.0956 53.9957C9.65245 51.1246 8.25682 47.3839 6.94682 42.8768C4.66557 35.0281 3.2162 26.7613 3.08745 24.047C2.68245 15.5519 4.86057 9.47631 9.55995 5.99097C16.9731 0.492904 28.2049 3.72625 32.2999 5.19428C35.0512 3.45325 38.2881 2.60603 41.9456 2.66706C43.9099 2.70053 45.7806 2.88165 47.5181 3.20715C49.3306 2.60865 52.9106 1.74962 57.0087 1.80344C64.5593 1.89794 70.8162 4.98756 75.1018 10.7383C78.1606 14.8412 76.6481 23.4571 75.4749 28.228C73.8237 34.9388 70.9306 42.0762 67.3768 48.2896C68.3418 48.2968 69.7399 48.1754 71.7274 47.7442C75.6487 46.8944 76.7956 49.102 77.1068 50.0903C78.3537 54.0554 72.9337 57.0518 71.2431 57.8761C69.0768 58.932 65.5449 59.5751 62.6524 59.436L62.5262 59.4274L61.7662 59.3572L61.6912 60.0227L61.6187 60.673C61.4243 68.5473 60.3531 73.5342 58.1487 76.8292C55.8381 80.2837 52.6268 81.2517 49.7981 81.8883C48.8331 82.1048 47.9562 82.1993 47.1612 82.1993ZM41.4174 53.5402C43.1793 55.0207 43.3337 57.8065 43.4718 63.0125C43.4893 63.6622 43.5056 64.2771 43.5274 64.8513C43.5937 66.5904 43.7493 70.6624 44.3568 72.3831C44.4424 72.6266 44.5193 72.8733 44.6006 73.1352C45.2774 75.3113 45.6168 76.4027 48.5437 75.7458C51.0006 75.1925 52.2637 74.6964 53.2524 73.2185C54.6893 71.07 55.4931 66.7479 55.6406 60.3724L58.6299 60.4486L55.6612 60.0745L55.7487 59.2962C56.0331 56.7303 56.2381 54.877 57.8712 53.6511C59.1818 52.6681 60.6749 52.7632 61.8643 52.9883C60.5574 51.9514 60.1962 50.7354 60.0999 50.2367L59.8506 48.9471L60.5512 47.8558C64.5868 41.5689 67.9143 33.8422 69.6818 26.6563C71.4981 19.2728 70.9443 15.3517 70.3906 14.6102C63.0599 4.77494 50.3481 8.83581 49.0206 9.2965L48.7962 9.42381L47.6712 9.64365L47.0949 9.51831C45.5062 9.17181 43.7412 8.98019 41.8493 8.94803C38.8768 8.89553 36.4787 9.63315 34.5124 11.1996L33.1481 12.2857L31.5649 11.6012C28.1824 10.149 18.2474 7.22931 13.0049 11.1281C10.0949 13.2924 8.76932 17.5331 9.06432 23.7327C9.16182 25.7795 10.4862 33.5279 12.6712 41.0426C15.6906 51.4277 18.4343 54.8777 19.5799 55.2786C19.7799 55.3495 20.2987 54.9262 20.8149 54.2752C24.1712 50.0365 27.3643 46.5026 27.4987 46.3543L29.2299 44.4413L31.3231 45.9015C32.1668 46.4901 33.0974 46.8242 34.0531 46.8872L39.0449 42.4168L38.3218 50.1658C38.3056 50.3397 38.2974 50.5766 38.3624 51.0163L38.5799 52.485L37.6362 53.5927L37.5274 53.7213L40.2699 55.0503L41.4174 53.5402Z" fill="black"/>
<path d="M72.3318 50.82C63.6287 52.7054 63.0306 49.6112 63.0306 49.6112C72.22 35.2945 76.0612 17.1203 72.7462 12.6729C63.7025 0.540128 48.0468 6.27772 47.7856 6.42669L47.7012 6.44244C45.9818 6.06772 44.0575 5.8446 41.8943 5.80785C37.9562 5.74025 34.9693 6.89197 32.7025 8.69666C32.7025 8.69666 4.77497 -3.38359 6.07372 23.8895C6.34997 29.6921 13.9937 67.792 23.1112 56.284C26.4437 52.0761 29.6631 48.5179 29.6631 48.5179C31.2625 49.6329 33.1768 50.2025 35.1837 49.9978L35.34 49.8586C35.2912 50.381 35.3137 50.8922 35.4025 51.4973C33.0537 54.2529 33.7437 54.7365 29.0481 55.7511C24.2968 56.7788 27.0881 58.6091 28.9106 59.0875C31.1193 59.6676 36.2306 60.4892 39.6837 55.4138L39.5456 55.9926C40.4662 56.767 41.1125 61.0273 41.0043 64.8894C40.8956 68.7514 40.8231 71.4033 41.5487 73.4744C42.2737 75.5456 42.9962 80.2049 49.1687 78.8163C54.3262 77.6561 56.9987 74.6485 57.3712 69.6321C57.635 66.0654 58.2318 66.593 58.27 63.4043L58.7493 61.8949C59.3018 57.0603 58.8368 55.5011 62.015 56.2262L62.7868 56.2971C65.1256 56.4087 68.1862 55.902 69.9831 55.0253C73.8518 53.1412 76.1462 49.9938 72.3318 50.82Z" fill="#336791"/>
<path d="M47.4731 80.2639C42.3281 80.2639 40.6981 75.9858 40.0312 74.2363C39.055 71.6723 38.8444 61.7222 39.0619 53.5624C39.0769 52.9843 39.5331 52.5275 40.0869 52.5452C40.6375 52.561 41.0712 53.0427 41.0556 53.6208C40.805 63.0321 41.1606 71.5607 41.8831 73.4586C43.0106 76.4176 44.7206 79.0059 49.555 77.9185C54.1444 76.8849 55.8631 75.0579 56.6287 70.3979C57.2162 66.822 58.3781 56.6488 58.5212 54.6413C58.5625 54.0651 59.0387 53.6313 59.59 53.6753C60.1387 53.7186 60.5506 54.2213 60.51 54.7975C60.3606 56.8876 59.2043 67.0411 58.5944 70.7542C57.6906 76.2582 55.3537 78.7545 49.9731 79.966C49.0587 80.1714 48.2281 80.2633 47.4731 80.2639ZM19.5756 59.3683C19.085 59.3683 18.6394 59.2731 18.2531 59.1386C14.9112 57.9678 11.7281 52.2532 8.79185 42.1516C6.55685 34.4623 5.1406 26.4363 5.01623 23.8277C4.6481 16.0945 6.54435 10.6233 10.6537 7.56718C18.7831 1.51918 32.4587 7.27842 33.0369 7.52649C33.5462 7.74502 33.7912 8.35664 33.5825 8.89214C33.3743 9.42699 32.7919 9.68358 32.2825 9.46571C32.1506 9.40927 19.0369 3.89283 11.8025 9.27868C8.28873 11.8945 6.6756 16.7547 7.00748 23.7234C7.11185 25.9212 8.43498 33.7542 10.6987 41.5399C13.32 50.5581 16.3031 56.2485 18.8837 57.1521C19.2887 57.2939 20.5212 57.725 22.2831 55.5003C25.5987 51.3121 28.6444 47.9692 28.675 47.9364C29.0562 47.519 29.6875 47.5052 30.085 47.9056C30.4825 48.3059 30.4962 48.9687 30.115 49.3854C30.085 49.4182 27.0856 52.7106 23.8169 56.8397C22.2687 58.7947 20.785 59.3683 19.5756 59.3683ZM62.9687 50.545C62.7769 50.545 62.5831 50.4872 62.4118 50.3665C61.9556 50.043 61.8344 49.3926 62.1425 48.9129C71.4319 34.4393 74.6925 16.9509 71.9 13.2037C68.385 8.48789 63.4218 6.02499 57.1475 5.88258C52.5019 5.77758 48.8093 7.02314 48.2056 7.24036L48.0537 7.30533C47.4469 7.50549 46.9812 7.15636 46.8056 6.74818C46.5975 6.26518 46.7681 5.69424 47.2 5.41927C47.2287 5.40155 47.32 5.36086 47.4681 5.30377L47.455 5.30771L47.4681 5.30311C48.4937 4.90871 52.2425 3.72811 56.8856 3.78389C63.8281 3.86133 69.5631 6.67205 73.4694 11.9135C75.3175 14.3935 75.3219 20.1068 73.4812 27.5894C71.605 35.2183 68.0743 43.4168 63.7956 50.0836C63.6044 50.3836 63.2894 50.545 62.9687 50.545ZM63.4437 57.2453C61.8575 57.2453 60.4356 57.0104 59.5844 56.4749C58.7094 55.9243 58.5425 55.1761 58.5206 54.7791C58.2819 50.3757 60.5956 49.6092 61.7756 49.2594C61.6112 48.9982 61.3775 48.6911 61.1356 48.3741C60.4475 47.4711 59.505 46.2347 58.7787 44.3854C58.665 44.0967 58.3087 43.4253 57.8962 42.6477C55.6594 38.4359 51.005 29.6716 53.995 25.1835C55.3787 23.1065 58.1344 22.2888 62.1944 22.7449C61 18.9242 55.3125 6.97261 41.8168 6.7403C37.7581 6.66943 34.4293 7.97996 31.9281 10.6319C26.3281 16.5703 26.5306 27.315 26.5337 27.4227C26.5481 28.0008 26.1137 28.4819 25.5631 28.497C25.0125 28.5153 24.555 28.056 24.54 27.4778C24.5275 27.0007 24.3187 15.725 30.5112 9.15793C33.4094 6.08471 37.2243 4.56746 41.85 4.64686C50.4837 4.79583 56.0412 9.40467 59.1825 13.2444C62.6069 17.4293 64.2856 22.0454 64.4237 23.5862C64.5269 24.7321 63.7437 24.9611 63.5856 24.9952L63.2256 25.0037C59.2412 24.3337 56.685 24.799 55.6281 26.3845C53.3537 29.7976 57.7569 38.088 59.6368 41.6285C60.1169 42.5315 60.4631 43.1845 60.6219 43.5874C61.2394 45.1598 62.045 46.2164 62.6918 47.0656C63.2612 47.8124 63.7544 48.4601 63.9306 49.22C64.0125 49.371 65.1744 51.1756 72.0687 49.6814C73.7969 49.3073 74.8331 49.6269 75.15 50.6329C75.7731 52.6115 72.2768 54.9196 70.3412 55.8632C68.6068 56.7098 65.8387 57.2453 63.4437 57.2453ZM60.5087 54.6065C60.7275 54.8382 61.8218 55.2378 64.0881 55.1355C66.1031 55.0449 68.2281 54.5849 69.5031 53.9634C71.1337 53.168 72.2225 52.2788 72.7862 51.6718L72.4737 51.7321C68.0656 52.6876 64.9475 52.5603 63.2062 51.3535C63.0818 51.2675 62.97 51.1783 62.8687 51.0903C62.68 51.1684 62.5056 51.2196 62.3812 51.2564C61.3937 51.5471 60.3725 51.8483 60.5087 54.6065ZM32.0325 60.457C30.9375 60.457 29.785 60.3001 28.6081 59.9911C27.3887 59.6708 25.3331 58.7068 25.3644 57.1232C25.4 55.3468 27.8606 54.8139 28.7868 54.6137C32.1331 53.8899 32.3512 53.5998 33.3969 52.2053C33.7019 51.7991 34.0812 51.2931 34.5987 50.6867C35.3669 49.7837 36.2062 49.3263 37.0937 49.3263C37.7118 49.3263 38.2187 49.5462 38.5537 49.6925C39.6212 50.1571 40.5119 51.2806 40.8781 52.624C41.2087 53.8361 41.0506 55.0029 40.4343 55.9092C38.4112 58.884 35.5056 60.457 32.0325 60.457ZM27.5187 57.2131C27.8194 57.4573 28.4219 57.7834 29.0925 57.9593C30.1119 58.2271 31.1006 58.3629 32.0331 58.3629C34.8743 58.3629 37.1556 57.1278 38.8125 54.6918C39.1581 54.1839 39.0544 53.5388 38.9619 53.1995C38.7681 52.4888 38.2868 51.8424 37.7912 51.6265C37.5225 51.5097 37.2994 51.4204 37.0944 51.4204C36.9844 51.4204 36.6494 51.4204 36.0856 52.0826C35.6094 52.6411 35.2662 53.0985 34.9644 53.5014C33.6619 55.2378 33.065 55.8271 29.19 56.6652C28.2444 56.8686 27.7593 57.076 27.5187 57.2131ZM35.1869 52.3831C34.7031 52.3831 34.2781 52.0124 34.2025 51.4946C34.1775 51.3207 34.1612 51.1461 34.1525 50.9702C31.6125 50.9204 29.1618 49.7759 27.3012 47.7375C24.9487 45.1605 23.8781 41.5898 24.3644 37.9417C24.8925 33.9799 24.695 30.4828 24.5887 28.6039C24.5594 28.0816 24.5381 27.7042 24.5394 27.443C24.5412 27.1116 24.5475 26.2329 27.345 24.7439C28.34 24.2143 30.335 23.2903 32.5144 23.0534C36.125 22.6616 38.505 24.3501 39.2175 27.8085C41.1406 37.1457 39.37 41.2755 38.0769 44.2916C37.8362 44.8533 37.6087 45.3836 37.4268 45.8974L37.2662 46.3502C36.5831 48.2737 35.9925 49.9353 36.1737 51.1763C36.2575 51.7479 35.8837 52.2821 35.3394 52.37L35.1869 52.3831ZM26.54 27.7331L26.5787 28.4805C26.6887 30.4322 26.8937 34.0639 26.3387 38.2324C25.9381 41.2413 26.8131 44.1781 28.7406 46.2886C30.2637 47.9567 32.2681 48.8775 34.3281 48.8775H34.3706C34.6012 47.857 34.9844 46.7794 35.3969 45.6185L35.5562 45.1683C35.7619 44.5882 36.0025 44.0265 36.2575 43.4319C37.5019 40.5286 39.0512 36.9147 37.2668 28.2515C36.9137 26.5354 36.0569 25.5425 34.6487 25.215C31.7562 24.5444 27.4456 26.8288 26.54 27.7331ZM32.5587 27.2888C32.5087 27.6589 33.2043 28.6472 34.1119 28.7791C35.0175 28.9124 35.7925 28.1393 35.8419 27.7692C35.8912 27.399 35.1962 26.9909 34.2887 26.8583C33.3819 26.7257 32.6069 26.9187 32.5587 27.2888ZM34.32 29.1434L34.0656 29.125C33.5031 29.043 32.9344 28.6709 32.545 28.1288C32.4081 27.9385 32.185 27.5697 32.2294 27.2402C32.2925 26.7572 32.8537 26.4678 33.7294 26.4678C33.925 26.4678 34.1287 26.4829 34.3337 26.5131C34.8125 26.5827 35.2569 26.7277 35.585 26.92C36.1537 27.2534 36.1956 27.6255 36.17 27.8177C36.1 28.3513 35.2919 29.1434 34.32 29.1434ZM32.8894 27.3505C32.9175 27.5789 33.4562 28.3322 34.1575 28.434L34.3206 28.4458C34.9681 28.4458 35.4519 27.9109 35.5087 27.7357C35.4487 27.6163 35.0325 27.3196 34.2431 27.2041C34.0681 27.1779 33.8956 27.1654 33.73 27.1654C33.2225 27.1654 32.9531 27.2855 32.8894 27.3505ZM60.1425 26.5335C60.1918 26.9036 59.4969 27.8919 58.59 28.0245C57.6837 28.157 56.9081 27.3846 56.8581 27.0145C56.8106 26.6444 57.5056 26.2355 58.4118 26.1036C59.3181 25.9704 60.0925 26.164 60.1425 26.5335ZM58.3806 28.2135C57.5081 28.2135 56.755 27.5008 56.6931 27.0381C56.6212 26.4829 57.4918 26.061 58.3881 25.9304C58.5856 25.9015 58.7812 25.887 58.9693 25.887C59.7431 25.887 60.2556 26.1253 60.3069 26.5098C60.34 26.7585 60.1581 27.1425 59.845 27.489C59.6381 27.7167 59.2037 28.1111 58.6119 28.197L58.3806 28.2135ZM58.97 26.2362C58.7975 26.2362 58.6175 26.25 58.435 26.2762C57.5344 26.4081 56.9968 26.7874 57.0231 26.9909C57.0531 27.2146 57.6281 27.865 58.3812 27.865L58.5669 27.8512C59.0587 27.7797 59.4281 27.4424 59.6043 27.2481C59.8812 26.943 59.9912 26.6555 59.9781 26.5577C59.9606 26.4278 59.6281 26.2362 58.97 26.2362ZM61.4481 47.7894C61.2575 47.7894 61.065 47.7316 60.8944 47.6122C60.4369 47.2906 60.3137 46.6403 60.6206 46.1599C62.7444 42.8295 62.3556 39.4334 61.98 36.1488C61.8194 34.7497 61.6544 33.3027 61.6968 31.914C61.7406 30.4854 61.9137 29.3068 62.0806 28.1669C62.2787 26.8163 62.4662 25.5406 62.3887 24.0259C62.3587 23.4484 62.7806 22.9556 63.3306 22.9241C63.8825 22.8932 64.3506 23.3356 64.38 23.913C64.4687 25.6442 64.2569 27.088 64.0519 28.4851C63.8937 29.5634 63.73 30.6783 63.6906 31.981C63.6525 33.2108 63.8018 34.5167 63.96 35.8988C64.36 39.3914 64.8131 43.3499 62.2781 47.3248C62.0856 47.626 61.77 47.7894 61.4481 47.7894Z" fill="white"/>
</svg>
