<svg width="82" height="82" viewBox="0 0 82 82" fill="none" xmlns="http://www.w3.org/2000/svg">
<path d="M81.976 0H0.0240234C0.0107557 0 0 0.0107557 0 0.0240234V81.976C0 81.9892 0.0107557 82 0.0240234 82H81.976C81.9892 82 82 81.9892 82 81.976V0.0240234C82 0.0107557 81.9892 0 81.976 0Z" fill="#37AEE2"/>
<path d="M31.8711 64.7031C30.1094 64.7031 30.2695 64.0625 29.7891 62.4609L24.6641 45.6445L63.9023 22.582" fill="#C8DAEA"/>
<path d="M31.8711 64.7031C32.9922 64.7031 33.6328 64.0625 34.4336 63.4219L41.6406 56.5352L32.6719 51.0898" fill="#A9C9DD"/>
<path d="M32.6719 51.0899L54.293 66.9453C56.5352 68.3868 58.457 67.586 59.0977 64.7032L67.9062 23.3828C68.707 19.8594 66.4648 18.2578 64.0625 19.3789L12.6523 39.2383C9.28905 40.5196 9.28905 42.6016 12.0117 43.4024L25.3047 47.5664L55.7344 28.1875C57.1758 27.3867 58.457 27.7071 57.4961 28.8282" fill="#F6FBFE"/>
</svg>
