<svg width="713" height="672" viewBox="0 0 713 672" fill="none" xmlns="http://www.w3.org/2000/svg">
<g clip-path="url(#clip0_106_2)">
<path d="M517.447 380.968L517.823 565.962L548.87 616.329L551.233 620.161L673.329 619.912L675.31 380.647L517.447 380.968Z" fill="#DD5151"/>
<path opacity="0.1" d="M517.447 380.968L517.823 565.962L548.87 616.329L550.29 380.901L517.447 380.968Z" fill="black"/>
<path d="M222.678 376.633L223.054 561.629L192.212 612.122L189.865 615.961L67.7686 616.21L64.8149 376.954L222.678 376.633Z" fill="#DD5151"/>
<path opacity="0.1" d="M222.678 376.633L223.054 561.629L192.213 612.122L189.835 376.7L222.678 376.633Z" fill="black"/>
<path d="M712.291 371.938L712.314 383.037L48.797 384.387L48.7644 368.354L110.364 336.163L657.951 335.049L712.291 371.938Z" fill="#DD5151"/>
<path opacity="0.1" d="M712.291 371.938L712.314 383.037L48.7971 384.387L48.7645 368.354L712.291 371.938Z" fill="black"/>
<path d="M143.852 428.593L114.252 428.653L101.902 420.045L157.401 419.932L143.852 428.593Z" fill="#0B0B0F"/>
<path d="M143.925 464.359L114.325 464.419L101.974 455.811L157.473 455.698L143.925 464.359Z" fill="#0B0B0F"/>
<path d="M144.028 514.925L114.428 514.985L102.077 506.376L157.576 506.263L144.028 514.925Z" fill="#0B0B0F"/>
<path d="M144.131 565.489L114.531 565.55L102.18 556.942L157.679 556.829L144.131 565.489Z" fill="#0B0B0F"/>
<path d="M596.483 432.605L626.083 432.545L638.399 423.887L582.9 424L596.483 432.605Z" fill="#0B0B0F"/>
<path d="M596.556 468.371L626.156 468.311L638.471 459.653L582.972 459.766L596.556 468.371Z" fill="#0B0B0F"/>
<path d="M596.659 518.937L626.259 518.877L638.574 510.219L583.075 510.332L596.659 518.937Z" fill="#0B0B0F"/>
<path d="M596.762 569.502L626.362 569.442L638.677 560.784L583.178 560.896L596.762 569.502Z" fill="#0B0B0F"/>
<path d="M616.007 121.205L366.822 121.712C365.584 121.714 364.359 121.96 363.217 122.436C362.074 122.912 361.037 123.608 360.163 124.485C359.29 125.362 358.598 126.402 358.127 127.547C357.656 128.691 357.415 129.917 357.417 131.155L357.759 299.012C357.761 300.25 358.007 301.475 358.483 302.617C358.959 303.76 359.655 304.797 360.532 305.671C361.409 306.544 362.449 307.236 363.594 307.707C364.738 308.178 365.964 308.42 367.202 308.417L461.794 308.225L458.296 330.858C458.296 330.858 438.066 341.658 452.307 341.946C466.547 342.233 533.634 341.781 533.634 341.781C533.634 341.781 546.608 341.754 526.016 330.404L522.637 308.101L616.387 307.91C617.624 307.908 618.849 307.662 619.992 307.186C621.134 306.71 622.172 306.014 623.045 305.137C623.918 304.26 624.61 303.22 625.082 302.075C625.553 300.931 625.794 299.705 625.791 298.467L625.45 130.61C625.448 129.372 625.201 128.147 624.725 127.005C624.25 125.862 623.553 124.825 622.676 123.951C621.8 123.078 620.759 122.386 619.615 121.915C618.47 121.444 617.244 121.202 616.007 121.205Z" fill="#0B0B0F"/>
<path d="M606.432 131.193L376.437 131.66C370.914 131.672 366.446 136.158 366.457 141.681L366.701 261.551C366.713 267.074 371.199 271.542 376.722 271.531L606.717 271.063C612.239 271.052 616.708 266.566 616.696 261.043L616.453 141.172C616.441 135.65 611.955 131.181 606.432 131.193Z" fill="white"/>
<path d="M491.429 128.579C492.303 128.577 493.01 127.867 493.008 126.993C493.006 126.119 492.296 125.412 491.422 125.414C490.549 125.416 489.842 126.126 489.843 127C489.845 127.873 490.555 128.58 491.429 128.579Z" fill="white"/>
<path d="M491.78 301.36C495.101 301.353 497.787 298.656 497.781 295.335C497.774 292.015 495.076 289.328 491.756 289.335C488.435 289.342 485.749 292.039 485.756 295.36C485.762 298.68 488.46 301.367 491.78 301.36Z" fill="white"/>
<path d="M482.528 358.973L482.535 362.138L312.285 362.484L312.28 359.952L312.513 359.319L316.685 347.918L479.024 347.588L482.528 358.973Z" fill="#0B0B0F"/>
<path d="M548.039 355.741C547.732 357.068 546.564 358.469 543.921 359.797C534.437 364.563 515.122 358.59 515.122 358.59C515.122 358.59 500.243 356.089 500.23 349.443C500.647 349.156 501.082 348.897 501.532 348.665C505.519 346.546 518.742 341.308 542.223 348.803C543.953 349.342 545.499 350.351 546.689 351.717C547.216 352.233 547.614 352.867 547.848 353.567C548.083 354.266 548.149 355.012 548.039 355.741Z" fill="#0B0B0F"/>
<path opacity="0.1" d="M548.039 355.741C536.429 360.218 526.072 360.571 515.427 353.21C511.402 350.246 506.531 348.653 501.532 348.665C505.519 346.546 518.742 341.308 542.223 348.803C543.953 349.342 545.499 350.351 546.689 351.717C547.216 352.233 547.614 352.867 547.848 353.567C548.083 354.266 548.149 355.012 548.039 355.741Z" fill="black"/>
<path d="M533.465 353.173C535.737 353.168 537.577 352.598 537.576 351.899C537.575 351.2 535.732 350.637 533.46 350.642C531.188 350.646 529.347 351.217 529.348 351.916C529.35 352.615 531.193 353.178 533.465 353.173Z" fill="white"/>
<path opacity="0.1" d="M482.528 358.973L482.535 362.138L312.285 362.484L312.28 359.952L312.513 359.319L482.528 358.973Z" fill="black"/>
<path d="M95.0105 1.80829C93.2824 1.66994 91.553 2.05997 90.0515 2.92668C88.5776 3.94048 87.6509 5.71318 86.7047 7.36296C83.087 13.746 78.1831 19.3081 72.3036 23.6969C68.0211 26.8476 62.5763 30.7764 63.3218 36.5679C63.7128 38.4802 64.4233 40.313 65.4235 41.9891C69.3963 49.9681 80.2058 56.1184 79.1623 65.2344C83.0799 58.6455 77.8153 55.4021 81.7329 48.8132C83.5986 45.6754 86.8435 42.1311 89.6739 44.0935C90.6216 44.7506 91.2454 45.9313 92.232 46.5075C94.586 47.8824 97.082 45.2396 99.1595 43.3671C106.323 36.9099 116.533 38.5769 125.468 40.5661C129.686 41.5052 134.319 42.7391 136.82 46.7638C140.108 52.0553 133.729 57.7904 132.127 63.7838C131.996 64.2945 131.991 64.8293 132.112 65.3424C132.233 65.8555 132.476 66.3317 132.821 66.7302C133.166 67.1287 133.603 67.4377 134.093 67.6308C134.584 67.8239 135.114 67.8952 135.638 67.8388C138.317 67.569 141.491 67.3459 141.647 66.1697C145.019 66.2828 149.149 65.8926 150.587 62.379C151.025 60.9891 151.256 59.5418 151.271 58.0844C151.789 52.1862 154.281 46.8011 155.927 41.185C157.574 35.5689 158.282 28.9896 155.473 24.019C154.471 22.3654 153.233 20.8669 151.798 19.5709C135.888 4.23652 115.006 1.74482 95.0105 1.80829Z" fill="black"/>
<path d="M82.6391 76.7387C82.6391 76.7387 86.151 105.51 73.4932 107.838C60.8355 110.166 85.0889 149.255 85.0889 149.255L142.66 156.045L128.752 110.028C128.752 110.028 119.536 106.593 125.245 83.5588C130.954 60.5245 82.6391 76.7387 82.6391 76.7387Z" fill="#FFAAAA"/>
<path d="M48.535 571.222L53.2688 634.525L77.4417 634.476L70.407 571.177L48.535 571.222Z" fill="#FFAAAA"/>
<path d="M225.566 451.144L229.127 504.088L255.58 492.524L245.13 448.802L225.566 451.144Z" fill="#FFAAAA"/>
<path d="M30.7764 329.519C30.7764 329.519 32.0633 396.282 39.0147 418.14C45.966 439.997 44.8172 441.151 43.6731 444.607C42.529 448.062 41.3731 445.763 41.3849 451.518C41.3966 457.274 39.2792 548.218 41.5979 556.271C43.9166 564.325 34.7356 578.157 41.6447 579.294C48.5539 580.431 80.7833 579.214 81.9204 572.305C83.0575 565.396 72.6926 563.115 77.2878 558.501C81.8829 553.887 88.5977 459.48 88.5977 459.48L104.58 393.833L134.439 359.238L197.752 359.109L217.476 435.044C217.476 435.044 209.462 456.932 215.218 456.92C220.973 456.909 255.521 463.745 255.47 438.42C255.418 413.095 243.755 338.295 241.448 335.997C239.141 333.7 242.578 325.635 239.118 322.189C235.657 318.742 195.318 294.65 180.344 290.076C165.37 285.502 144.366 280.064 144.366 280.064L30.7764 329.519Z" fill="black"/>
<path d="M255.561 483.315C255.561 483.315 238.283 477.594 230.26 494.877C222.237 512.161 225.7 516.758 225.7 516.758C225.7 516.758 252.194 525.913 256.79 521.3C258.789 519.292 265.149 518.583 271.697 518.423C281.669 518.179 284.294 504.064 274.868 500.798C274.587 500.7 274.302 500.616 274.014 500.544C264.801 498.261 255.561 483.315 255.561 483.315Z" fill="black"/>
<path d="M108.578 95.6797C127.651 95.6409 143.081 80.148 143.042 61.0754C143.003 42.0028 127.51 26.5729 108.438 26.6116C89.3652 26.6504 73.9352 42.1433 73.974 61.2159C74.0128 80.2885 89.5056 95.7185 108.578 95.6797Z" fill="#FFAAAA"/>
<path d="M63.7379 122.247C63.7379 122.247 120.167 133.644 133.943 115.197C147.719 96.7512 153.618 166.959 153.618 166.959L160.674 240.617L150.396 280.928C150.396 280.928 96.3817 324.781 79.1217 328.27C61.8617 331.758 35.3903 334.114 35.3903 334.114C35.3903 334.114 43.1884 206.322 43.1837 204.02C43.1791 201.717 63.7379 122.247 63.7379 122.247Z" fill="#23235E"/>
<path d="M80.8483 100.623C80.8483 100.623 68.2839 93.4594 64.8445 100.373C61.4052 107.287 29.2086 124.62 25.7552 124.627C22.3017 124.634 32.8563 220.157 28.2752 231.677C23.694 243.198 1.9934 327.275 14.6699 334.156C27.3464 341.037 18.1093 327.243 30.8069 344.484C43.5045 361.725 105.666 361.599 109.105 354.685C112.544 347.771 81.3584 296.033 87.0158 247.674C92.6731 199.315 101.746 132.53 93.6697 123.337C85.5931 114.145 80.8483 100.623 80.8483 100.623Z" fill="black"/>
<path d="M122.418 108.314L124.01 102.793C124.01 102.793 171.937 118.574 174.261 128.929C176.584 139.285 175.581 211.808 167.534 217.581C159.488 223.353 147.995 232.585 156.081 246.382C164.168 260.179 173.407 275.126 180.316 276.263C187.225 277.4 199.904 285.432 196.467 293.497C193.03 301.562 151.559 286.681 151.559 286.681C151.559 286.681 123.89 266.017 124.975 233.783C126.061 201.549 122.418 108.314 122.418 108.314Z" fill="black"/>
<path d="M162.984 244.066L135.462 295.923C135.462 295.923 95.2563 337.446 118.288 342.004C141.32 346.561 153.896 303.944 153.896 303.944L183.739 261.291L162.984 244.066Z" fill="#FFAAAA"/>
<path d="M96.7112 10.8406C95.319 10.7403 93.9253 11.0136 92.6741 11.6322C91.5433 12.4615 90.6122 13.5331 89.9487 14.7684C86.8877 19.3932 82.8933 23.3267 78.222 26.3163C74.7352 28.5442 70.3021 31.3222 70.9077 35.4154C71.2348 36.7876 71.8145 38.0868 72.6173 39.2466C75.8609 44.9423 77.1609 51.5394 76.3208 58.0398L85.8924 44.0663C87.4119 41.8482 90.0541 39.3424 92.3578 40.7288C93.1291 41.193 93.6366 42.0273 94.4396 42.4344C96.3556 43.4057 98.388 41.5372 100.08 40.2132C105.913 35.6478 114.223 36.8238 121.496 38.2278C124.93 38.8906 128.701 39.7617 130.736 42.6058C134.117 47.332 130.611 54.1782 132.59 59.642C133.14 59.2553 133.606 58.762 133.962 58.1915C134.318 57.6209 134.556 56.9848 134.661 56.3207C137.406 56.3999 140.768 56.1232 141.939 53.6395C142.295 52.6663 142.484 51.64 142.497 50.6039C142.92 46.435 144.95 42.6283 146.291 38.6585C147.633 34.6887 148.211 30.0384 145.926 26.5258C145.09 25.3358 144.082 24.2765 142.935 23.3827C129.987 12.548 112.988 10.7914 96.7112 10.8406Z" fill="black"/>
<path d="M162.74 124.348L173.471 127.173C173.471 127.173 198.561 191.041 192.894 234.796C187.228 278.551 183.755 269.349 183.755 269.349C183.755 269.349 174.504 248.647 153.793 253.294L162.74 124.348Z" fill="black"/>
<path d="M50.2417 626.164C47.4734 629.942 48.041 635.333 45.5901 639.324C43.4657 642.784 39.4525 644.604 36.7927 647.671C35.9441 648.69 35.1879 649.782 34.5332 650.935C32.0685 655.083 30.0691 660.396 32.5133 664.556C34.4795 667.902 38.6006 669.203 42.3795 670.088C47.1559 671.206 52.118 672.099 56.9454 671.227C61.7728 670.355 66.4865 667.388 68.199 662.791C68.5351 661.636 68.935 660.5 69.3971 659.388C72.0041 654.23 80.214 654.158 82.8824 649.031C84.7498 645.443 83.0177 641.114 81.2877 637.458L76.0039 626.292C74.2504 622.586 67.177 624.734 63.4855 623.853C58.6709 622.703 53.694 621.436 50.2417 626.164Z" fill="black"/>
<path d="M11.0807 267.398L59.5805 342.123C59.5805 342.123 89.5873 380.05 98.7612 362.764C107.935 345.478 66.4358 316.784 66.4358 316.784L35.2381 259.291L11.0807 267.398Z" fill="#FFAAAA"/>
<path d="M34.9689 126.91L25.7551 124.627C25.7551 124.627 7.34871 130.42 2.79335 154.603C-1.76202 178.786 1.88804 275.474 7.64605 276.614C13.4041 277.753 36.039 259.719 39.6757 263.526C43.3125 267.332 31.7613 247.786 35.1936 237.419C38.6259 227.052 34.9689 126.91 34.9689 126.91Z" fill="black"/>
<path d="M467.866 177.413L438.114 177.473L438.129 184.636L467.881 184.576L467.866 177.413Z" fill="#23235E"/>
<path d="M570.897 177.203L560.429 177.225L560.444 184.387L570.912 184.366L570.897 177.203Z" fill="#23235E"/>
<path d="M591.834 177.161L581.366 177.182L581.38 184.345L591.849 184.323L591.834 177.161Z" fill="#23235E"/>
<path d="M549.41 177.247L478.335 177.392L478.349 184.554L549.424 184.41L549.41 177.247Z" fill="#23235E"/>
<path d="M430.495 223.77L400.742 223.831L400.757 230.994L430.509 230.933L430.495 223.77Z" fill="#23235E"/>
<path d="M533.526 223.561L523.057 223.582L523.072 230.745L533.54 230.724L533.526 223.561Z" fill="#23235E"/>
<path d="M554.462 223.518L543.994 223.54L544.009 230.702L554.477 230.681L554.462 223.518Z" fill="#23235E"/>
<path d="M512.038 223.605L440.963 223.749L440.978 230.912L512.052 230.767L512.038 223.605Z" fill="#23235E"/>
<path d="M553.299 193.217L523.547 193.278L523.561 200.44L553.313 200.38L553.299 193.217Z" fill="#23235E"/>
<path d="M593.52 193.136L563.767 193.196L563.782 200.359L593.534 200.298L593.52 193.136Z" fill="#23235E"/>
<path d="M411.149 193.506L400.681 193.528L400.695 200.69L411.164 200.669L411.149 193.506Z" fill="#23235E"/>
<path d="M432.086 193.464L421.617 193.485L421.632 200.648L432.1 200.626L432.086 193.464Z" fill="#23235E"/>
<path d="M513.629 193.298L442.554 193.443L442.569 200.605L513.644 200.461L513.629 193.298Z" fill="#23235E"/>
<path d="M491.622 208.77L461.869 208.83L461.884 215.993L491.636 215.933L491.622 208.77Z" fill="#23235E"/>
<path d="M451.401 208.852L421.649 208.912L421.663 216.075L451.416 216.014L451.401 208.852Z" fill="#23235E"/>
<path d="M411.18 208.934L400.712 208.955L400.727 216.117L411.195 216.096L411.18 208.934Z" fill="#23235E"/>
<path d="M593.551 208.563L583.083 208.584L583.097 215.747L593.566 215.725L593.551 208.563Z" fill="#23235E"/>
<path d="M572.614 208.605L501.539 208.75L501.554 215.912L572.629 215.768L572.614 208.605Z" fill="#23235E"/>
</g>
<defs>
<clipPath id="clip0_106_2">
<rect width="711.188" height="669.683" fill="white" transform="translate(0.349243 2.00067) rotate(-0.11653)"/>
</clipPath>
</defs>
</svg>
