<svg width="672" height="445" viewBox="0 0 672 445" fill="none" xmlns="http://www.w3.org/2000/svg">
<g clip-path="url(#clip0_106_404)">
<path d="M562.034 -6.42878e-08L-14 0L-14 295.382L562.034 295.382L562.034 -6.42878e-08Z" fill="#E9EFA1"/>
<path d="M95.2128 41.644L90.1332 41.644L90.1332 49.3918L95.2128 49.3918L95.2128 41.644Z" fill="#23235E"/>
<path d="M112.484 39.7071L107.404 39.7071L107.404 47.4548L112.484 47.4548L112.484 39.7071Z" fill="#23235E"/>
<path d="M121.627 39.7071L116.547 39.7071L116.547 47.4548L121.627 47.4548L121.627 39.7071Z" fill="#23235E"/>
<path d="M121.627 62.9503L116.547 62.9503L116.547 70.698L121.627 70.698L121.627 62.9503Z" fill="#23235E"/>
<path d="M131.786 51.3287L126.707 51.3287L126.707 59.0765L131.786 59.0765L131.786 51.3287Z" fill="#23235E"/>
<path d="M131.786 63.9188L126.707 63.9188L126.707 71.6665L131.786 71.6665L131.786 63.9188Z" fill="#23235E"/>
<path d="M121.627 88.1304L116.547 88.1304L116.547 95.8782L121.627 95.8782L121.627 88.1304Z" fill="#23235E"/>
<path d="M131.786 100.721L126.707 100.721L126.707 108.468L131.786 108.468L131.786 100.721Z" fill="#23235E"/>
<path d="M121.627 148.175L116.547 148.175L116.547 155.923L121.627 155.923L121.627 148.175Z" fill="#23235E"/>
<path d="M112.484 100.721L107.404 100.721L107.404 108.468L112.484 108.468L112.484 100.721Z" fill="#23235E"/>
<path d="M95.2128 54.2341L90.1332 54.2341L90.1332 61.9819L95.2128 61.9819L95.2128 54.2341Z" fill="#23235E"/>
<path d="M95.2128 175.292L90.1332 175.292L90.1332 183.04L95.2128 183.04L95.2128 175.292Z" fill="#23235E"/>
<path d="M95.2128 200.473L90.1332 200.473L90.1332 208.22L95.2128 208.22L95.2128 200.473Z" fill="#23235E"/>
<path d="M95.2128 213.063L90.1332 213.063L90.1332 220.81L95.2128 220.81L95.2128 213.063Z" fill="#23235E"/>
<path d="M95.2129 67.7927L88.1013 67.7927L88.1013 68.7611L95.2129 68.7611L95.2129 67.7927Z" fill="#23235E"/>
<path d="M122.643 79.4142L115.531 79.4142L115.531 80.3827L122.643 80.3827L122.643 79.4142Z" fill="#23235E"/>
<path d="M95.2129 129.774L88.1013 129.774L88.1013 130.743L95.2129 130.743L95.2129 129.774Z" fill="#23235E"/>
<path d="M95.2129 140.428L88.1013 140.428L88.1013 141.396L95.2129 141.396L95.2129 140.428Z" fill="#23235E"/>
<path d="M122.643 202.409L115.531 202.409L115.531 203.378L122.643 203.378L122.643 202.409Z" fill="#23235E"/>
<path d="M114.516 225.653L107.404 225.653L107.404 226.621L114.516 226.621L114.516 225.653Z" fill="#23235E"/>
<path d="M90.1332 76.5091L90.1332 78.4458L92.1648 78.4458L92.1648 82.3197L90.1332 82.3197L90.1332 84.2564L95.2128 84.2564L95.2128 76.5091L90.1332 76.5091Z" fill="#23235E"/>
<path d="M107.404 62.9506L107.404 64.8872L109.436 64.8872L109.436 68.7612L107.404 68.7612L107.404 70.6979L112.484 70.6979L112.484 62.9506L107.404 62.9506Z" fill="#23235E"/>
<path d="M126.707 75.5402L126.707 77.4775L128.739 77.4775L128.739 81.3514L126.707 81.3514L126.707 83.2881L131.787 83.2881L131.787 75.5402L126.707 75.5402Z" fill="#23235E"/>
<path d="M126.707 113.311L126.707 115.248L128.739 115.248L128.739 119.122L126.707 119.122L126.707 121.058L131.787 121.058L131.787 113.311L126.707 113.311Z" fill="#23235E"/>
<path d="M126.707 125.9L126.707 127.838L128.739 127.838L128.739 131.712L126.707 131.712L126.707 133.648L131.787 133.648L131.787 125.9L126.707 125.9Z" fill="#23235E"/>
<path d="M126.707 87.162L126.707 89.0987L128.739 89.0987L128.739 92.9727L126.707 92.9727L126.707 94.91L131.787 94.91L131.787 87.162L126.707 87.162Z" fill="#23235E"/>
<path d="M116.547 51.3286L116.547 53.2659L118.579 53.2659L118.579 57.1393L116.547 57.1393L116.547 59.0765L121.627 59.0765L121.627 51.3286L116.547 51.3286Z" fill="#23235E"/>
<path d="M121.627 113.311L116.547 113.311L116.547 121.058L121.627 121.058L121.627 113.311Z" fill="#23235E"/>
<path d="M121.627 136.554L116.547 136.554L116.547 144.302L121.627 144.302L121.627 136.554Z" fill="#23235E"/>
<path d="M116.547 124.932L116.547 126.869L118.579 126.869L118.579 130.743L116.547 130.743L116.547 132.68L121.627 132.68L121.627 124.932L116.547 124.932Z" fill="#23235E"/>
<path d="M107.404 75.5402L107.404 77.4775L109.436 77.4775L109.436 81.3514L107.404 81.3514L107.404 83.2881L112.484 83.2881L112.484 75.5402L107.404 75.5402Z" fill="#23235E"/>
<path d="M107.404 88.1304L107.404 90.0677L109.436 90.0677L109.436 93.941L107.404 93.941L107.404 95.8783L112.484 95.8783L112.484 88.1304L107.404 88.1304Z" fill="#23235E"/>
<path d="M112.484 125.901L107.404 125.901L107.404 133.648L112.484 133.648L112.484 125.901Z" fill="#23235E"/>
<path d="M107.404 113.311L107.404 115.248L109.436 115.248L109.436 119.122L107.404 119.122L107.404 121.058L112.484 121.058L112.484 113.311L107.404 113.311Z" fill="#23235E"/>
<path d="M112.484 151.081L107.404 151.081L107.404 158.828L112.484 158.828L112.484 151.081Z" fill="#23235E"/>
<path d="M107.404 138.491L107.404 140.427L109.436 140.427L109.436 144.301L107.404 144.301L107.404 146.239L112.484 146.239L112.484 138.491L107.404 138.491Z" fill="#23235E"/>
<path d="M112.484 176.261L107.404 176.261L107.404 184.009L112.484 184.009L112.484 176.261Z" fill="#23235E"/>
<path d="M121.627 174.324L116.547 174.324L116.547 182.072L121.627 182.072L121.627 174.324Z" fill="#23235E"/>
<path d="M107.404 163.671L107.404 165.608L109.436 165.608L109.436 169.482L107.404 169.482L107.404 171.418L112.484 171.418L112.484 163.671L107.404 163.671Z" fill="#23235E"/>
<path d="M126.707 163.671L126.707 165.608L128.739 165.608L128.739 169.482L126.707 169.482L126.707 171.418L131.787 171.418L131.787 163.671L126.707 163.671Z" fill="#23235E"/>
<path d="M183.599 51.3287L178.519 51.3287L178.519 59.0765L183.599 59.0765L183.599 51.3287Z" fill="#23235E"/>
<path d="M183.599 63.9188L178.519 63.9188L178.519 71.6665L183.599 71.6665L183.599 63.9188Z" fill="#23235E"/>
<path d="M183.599 100.721L178.519 100.721L178.519 108.468L183.599 108.468L183.599 100.721Z" fill="#23235E"/>
<path d="M178.519 75.5402L178.519 77.4775L180.551 77.4775L180.551 81.3514L178.519 81.3514L178.519 83.2881L183.599 83.2881L183.599 75.5402L178.519 75.5402Z" fill="#23235E"/>
<path d="M178.519 113.311L178.519 115.248L180.551 115.248L180.551 119.122L178.519 119.122L178.519 121.058L183.599 121.058L183.599 113.311L178.519 113.311Z" fill="#23235E"/>
<path d="M178.519 125.9L178.519 127.838L180.551 127.838L180.551 131.712L178.519 131.712L178.519 133.648L183.599 133.648L183.599 125.9L178.519 125.9Z" fill="#23235E"/>
<path d="M178.519 87.162L178.519 89.0987L180.551 89.0987L180.551 92.9727L178.519 92.9727L178.519 94.91L183.599 94.91L183.599 87.162L178.519 87.162Z" fill="#23235E"/>
<path d="M178.519 163.671L178.519 165.608L180.551 165.608L180.551 169.482L178.519 169.482L178.519 171.418L183.599 171.418L183.599 163.671L178.519 163.671Z" fill="#23235E"/>
<path d="M112.484 201.441L107.404 201.441L107.404 209.189L112.484 209.189L112.484 201.441Z" fill="#23235E"/>
<path d="M121.627 186.914L116.547 186.914L116.547 194.662L121.627 194.662L121.627 186.914Z" fill="#23235E"/>
<path d="M112.484 234.369L107.404 234.369L107.404 242.117L112.484 242.117L112.484 234.369Z" fill="#23235E"/>
<path d="M121.627 211.126L116.547 211.126L116.547 218.873L121.627 218.873L121.627 211.126Z" fill="#23235E"/>
<path d="M107.404 188.851L107.404 190.788L109.436 190.788L109.436 194.662L107.404 194.662L107.404 196.599L112.484 196.599L112.484 188.851L107.404 188.851Z" fill="#23235E"/>
<path d="M107.404 247.928L107.404 249.864L109.436 249.864L109.436 253.738L107.404 253.738L107.404 255.675L112.484 255.675L112.484 247.928L107.404 247.928Z" fill="#23235E"/>
<path d="M168.36 39.7071L163.28 39.7071L163.28 47.4548L168.36 47.4548L168.36 39.7071Z" fill="#23235E"/>
<path d="M168.36 100.721L163.28 100.721L163.28 108.468L168.36 108.468L168.36 100.721Z" fill="#23235E"/>
<path d="M170.392 225.653L163.28 225.653L163.28 226.621L170.392 226.621L170.392 225.653Z" fill="#23235E"/>
<path d="M163.28 62.9506L163.28 64.8872L165.313 64.8872L165.313 68.7612L163.28 68.7612L163.28 70.6979L168.36 70.6979L168.36 62.9506L163.28 62.9506Z" fill="#23235E"/>
<path d="M163.28 75.5402L163.28 77.4775L165.313 77.4775L165.313 81.3514L163.28 81.3514L163.28 83.2881L168.36 83.2881L168.36 75.5402L163.28 75.5402Z" fill="#23235E"/>
<path d="M163.28 88.1304L163.28 90.0677L165.313 90.0677L165.313 93.941L163.28 93.941L163.28 95.8783L168.36 95.8783L168.36 88.1304L163.28 88.1304Z" fill="#23235E"/>
<path d="M168.36 125.901L163.28 125.901L163.28 133.648L168.36 133.648L168.36 125.901Z" fill="#23235E"/>
<path d="M163.28 113.311L163.28 115.248L165.313 115.248L165.313 119.122L163.28 119.122L163.28 121.058L168.36 121.058L168.36 113.311L163.28 113.311Z" fill="#23235E"/>
<path d="M168.36 151.081L163.28 151.081L163.28 158.828L168.36 158.828L168.36 151.081Z" fill="#23235E"/>
<path d="M163.28 138.491L163.28 140.427L165.313 140.427L165.313 144.301L163.28 144.301L163.28 146.239L168.36 146.239L168.36 138.491L163.28 138.491Z" fill="#23235E"/>
<path d="M168.36 176.261L163.28 176.261L163.28 184.009L168.36 184.009L168.36 176.261Z" fill="#23235E"/>
<path d="M163.28 163.671L163.28 165.608L165.313 165.608L165.313 169.482L163.28 169.482L163.28 171.418L168.36 171.418L168.36 163.671L163.28 163.671Z" fill="#23235E"/>
<path d="M168.36 201.441L163.28 201.441L163.28 209.189L168.36 209.189L168.36 201.441Z" fill="#23235E"/>
<path d="M168.36 234.369L163.28 234.369L163.28 242.117L168.36 242.117L168.36 234.369Z" fill="#23235E"/>
<path d="M163.28 188.851L163.28 190.788L165.313 190.788L165.313 194.662L163.28 194.662L163.28 196.599L168.36 196.599L168.36 188.851L163.28 188.851Z" fill="#23235E"/>
<path d="M163.28 247.928L163.28 249.864L165.313 249.864L165.313 253.738L163.28 253.738L163.28 255.675L168.36 255.675L168.36 247.928L163.28 247.928Z" fill="#23235E"/>
<path d="M192.742 39.7071L187.663 39.7071L187.663 47.4548L192.742 47.4548L192.742 39.7071Z" fill="#23235E"/>
<path d="M192.742 100.721L187.663 100.721L187.663 108.468L192.742 108.468L192.742 100.721Z" fill="#23235E"/>
<path d="M194.774 225.653L187.663 225.653L187.663 226.621L194.774 226.621L194.774 225.653Z" fill="#23235E"/>
<path d="M187.663 62.9506L187.663 64.8872L189.695 64.8872L189.695 68.7612L187.663 68.7612L187.663 70.6979L192.742 70.6979L192.742 62.9506L187.663 62.9506Z" fill="#23235E"/>
<path d="M187.663 75.5402L187.663 77.4775L189.695 77.4775L189.695 81.3514L187.663 81.3514L187.663 83.2881L192.742 83.2881L192.742 75.5402L187.663 75.5402Z" fill="#23235E"/>
<path d="M187.663 88.1304L187.663 90.0677L189.695 90.0677L189.695 93.941L187.663 93.941L187.663 95.8783L192.742 95.8783L192.742 88.1304L187.663 88.1304Z" fill="#23235E"/>
<path d="M192.742 125.901L187.663 125.901L187.663 133.648L192.742 133.648L192.742 125.901Z" fill="#23235E"/>
<path d="M187.663 113.311L187.663 115.248L189.695 115.248L189.695 119.122L187.663 119.122L187.663 121.058L192.742 121.058L192.742 113.311L187.663 113.311Z" fill="#23235E"/>
<path d="M192.742 151.081L187.663 151.081L187.663 158.828L192.742 158.828L192.742 151.081Z" fill="#23235E"/>
<path d="M187.663 138.491L187.663 140.427L189.695 140.427L189.695 144.301L187.663 144.301L187.663 146.239L192.742 146.239L192.742 138.491L187.663 138.491Z" fill="#23235E"/>
<path d="M192.742 176.261L187.663 176.261L187.663 184.009L192.742 184.009L192.742 176.261Z" fill="#23235E"/>
<path d="M187.663 163.671L187.663 165.608L189.695 165.608L189.695 169.482L187.663 169.482L187.663 171.418L192.742 171.418L192.742 163.671L187.663 163.671Z" fill="#23235E"/>
<path d="M192.742 201.441L187.663 201.441L187.663 209.189L192.742 209.189L192.742 201.441Z" fill="#23235E"/>
<path d="M192.742 234.369L187.663 234.369L187.663 242.117L192.742 242.117L192.742 234.369Z" fill="#23235E"/>
<path d="M187.663 188.851L187.663 190.788L189.695 190.788L189.695 194.662L187.663 194.662L187.663 196.599L192.742 196.599L192.742 188.851L187.663 188.851Z" fill="#23235E"/>
<path d="M187.663 247.928L187.663 249.864L189.695 249.864L189.695 253.738L187.663 253.738L187.663 255.675L192.742 255.675L192.742 247.928L187.663 247.928Z" fill="#23235E"/>
<path d="M116.547 234.369L116.547 236.306L118.579 236.306L118.579 240.18L116.547 240.18L116.547 242.116L121.627 242.116L121.627 234.369L116.547 234.369Z" fill="#23235E"/>
<path d="M116.547 246.959L116.547 248.896L118.579 248.896L118.579 252.77L116.547 252.77L116.547 254.707L121.627 254.707L121.627 246.959L116.547 246.959Z" fill="#23235E"/>
<path d="M90.1332 100.721L90.1332 102.657L92.1648 102.657L92.1648 106.531L90.1332 106.531L90.1332 108.469L95.2128 108.469L95.2128 100.721L90.1332 100.721Z" fill="#23235E"/>
<path d="M90.1332 150.113L90.1332 152.049L92.1648 152.049L92.1648 155.923L90.1332 155.923L90.1332 157.86L95.2128 157.86L95.2128 150.113L90.1332 150.113Z" fill="#23235E"/>
<path d="M90.1332 162.702L90.1332 164.64L92.1648 164.64L92.1648 168.513L90.1332 168.513L90.1332 170.45L95.2128 170.45L95.2128 162.702L90.1332 162.702Z" fill="#23235E"/>
<path d="M90.1332 187.883L90.1332 189.819L92.1648 189.819L92.1648 193.693L90.1332 193.693L90.1332 195.63L95.2128 195.63L95.2128 187.883L90.1332 187.883Z" fill="#23235E"/>
<path d="M90.1332 223.715L90.1332 225.653L92.1648 225.653L92.1648 229.527L90.1332 229.527L90.1332 231.463L95.2128 231.463L95.2128 223.715L90.1332 223.715Z" fill="#23235E"/>
<path d="M90.1332 234.369L90.1332 236.306L92.1648 236.306L92.1648 240.18L90.1332 240.18L90.1332 242.116L95.2128 242.116L95.2128 234.369L90.1332 234.369Z" fill="#23235E"/>
<path d="M148.041 41.644L142.962 41.644L142.962 49.3918L148.041 49.3918L148.041 41.644Z" fill="#23235E"/>
<path d="M148.041 54.2341L142.962 54.2341L142.962 61.9819L148.041 61.9819L148.041 54.2341Z" fill="#23235E"/>
<path d="M148.041 67.7927L140.93 67.7927L140.93 68.7611L148.041 68.7611L148.041 67.7927Z" fill="#23235E"/>
<path d="M148.041 129.774L140.93 129.774L140.93 130.743L148.041 130.743L148.041 129.774Z" fill="#23235E"/>
<path d="M148.041 140.428L140.93 140.428L140.93 141.396L148.041 141.396L148.041 140.428Z" fill="#23235E"/>
<path d="M142.962 76.5091L142.962 78.4458L144.993 78.4458L144.993 82.3197L142.962 82.3197L142.962 84.2564L148.041 84.2564L148.041 76.5091L142.962 76.5091Z" fill="#23235E"/>
<path d="M142.962 100.721L142.962 102.657L144.993 102.657L144.993 106.531L142.962 106.531L142.962 108.469L148.041 108.469L148.041 100.721L142.962 100.721Z" fill="#23235E"/>
<path d="M142.962 150.113L142.962 152.049L144.993 152.049L144.993 155.923L142.962 155.923L142.962 157.86L148.041 157.86L148.041 150.113L142.962 150.113Z" fill="#23235E"/>
<path d="M205.95 125.901L200.87 125.901L200.87 133.648L205.95 133.648L205.95 125.901Z" fill="#23235E"/>
<path d="M205.95 138.491L200.87 138.491L200.87 146.238L205.95 146.238L205.95 138.491Z" fill="#23235E"/>
<path d="M205.95 152.049L198.838 152.049L198.838 153.018L205.95 153.018L205.95 152.049Z" fill="#23235E"/>
<path d="M205.95 214.031L198.838 214.031L198.838 215L205.95 215L205.95 214.031Z" fill="#23235E"/>
<path d="M205.95 224.684L198.838 224.684L198.838 225.653L205.95 225.653L205.95 224.684Z" fill="#23235E"/>
<path d="M200.87 160.766L200.87 162.702L202.902 162.702L202.902 166.576L200.87 166.576L200.87 168.513L205.95 168.513L205.95 160.766L200.87 160.766Z" fill="#23235E"/>
<path d="M200.87 184.977L200.87 186.914L202.902 186.914L202.902 190.788L200.87 190.788L200.87 192.725L205.95 192.725L205.95 184.977L200.87 184.977Z" fill="#23235E"/>
<path d="M200.87 234.369L200.87 236.306L202.902 236.306L202.902 240.18L200.87 240.18L200.87 242.116L205.95 242.116L205.95 234.369L200.87 234.369Z" fill="#23235E"/>
<path d="M222.204 41.644L217.125 41.644L217.125 49.3918L222.204 49.3918L222.204 41.644Z" fill="#23235E"/>
<path d="M239.475 39.7071L234.396 39.7071L234.396 47.4548L239.475 47.4548L239.475 39.7071Z" fill="#23235E"/>
<path d="M248.619 39.7071L243.539 39.7071L243.539 47.4548L248.619 47.4548L248.619 39.7071Z" fill="#23235E"/>
<path d="M248.619 62.9503L243.539 62.9503L243.539 70.698L248.619 70.698L248.619 62.9503Z" fill="#23235E"/>
<path d="M258.778 51.3287L253.698 51.3287L253.698 59.0765L258.778 59.0765L258.778 51.3287Z" fill="#23235E"/>
<path d="M258.778 63.9188L253.698 63.9188L253.698 71.6665L258.778 71.6665L258.778 63.9188Z" fill="#23235E"/>
<path d="M248.619 88.1304L243.539 88.1304L243.539 95.8782L248.619 95.8782L248.619 88.1304Z" fill="#23235E"/>
<path d="M258.778 100.721L253.698 100.721L253.698 108.468L258.778 108.468L258.778 100.721Z" fill="#23235E"/>
<path d="M248.619 148.175L243.539 148.175L243.539 155.923L248.619 155.923L248.619 148.175Z" fill="#23235E"/>
<path d="M239.475 100.721L234.396 100.721L234.396 108.468L239.475 108.468L239.475 100.721Z" fill="#23235E"/>
<path d="M222.204 54.2341L217.125 54.2341L217.125 61.9819L222.204 61.9819L222.204 54.2341Z" fill="#23235E"/>
<path d="M222.204 175.292L217.125 175.292L217.125 183.04L222.204 183.04L222.204 175.292Z" fill="#23235E"/>
<path d="M222.204 200.473L217.125 200.473L217.125 208.22L222.204 208.22L222.204 200.473Z" fill="#23235E"/>
<path d="M222.204 213.063L217.125 213.063L217.125 220.81L222.204 220.81L222.204 213.063Z" fill="#23235E"/>
<path d="M222.204 67.7927L215.093 67.7927L215.093 68.7611L222.204 68.7611L222.204 67.7927Z" fill="#23235E"/>
<path d="M249.635 79.4142L242.523 79.4142L242.523 80.3827L249.635 80.3827L249.635 79.4142Z" fill="#23235E"/>
<path d="M222.204 129.774L215.093 129.774L215.093 130.743L222.204 130.743L222.204 129.774Z" fill="#23235E"/>
<path d="M222.204 140.428L215.093 140.428L215.093 141.396L222.204 141.396L222.204 140.428Z" fill="#23235E"/>
<path d="M249.635 202.409L242.523 202.409L242.523 203.378L249.635 203.378L249.635 202.409Z" fill="#23235E"/>
<path d="M241.507 225.653L234.396 225.653L234.396 226.621L241.507 226.621L241.507 225.653Z" fill="#23235E"/>
<path d="M217.125 76.5091L217.125 78.4458L219.157 78.4458L219.157 82.3197L217.125 82.3197L217.125 84.2564L222.204 84.2564L222.204 76.5091L217.125 76.5091Z" fill="#23235E"/>
<path d="M234.396 62.9506L234.396 64.8872L236.427 64.8872L236.427 68.7612L234.396 68.7612L234.396 70.6979L239.475 70.6979L239.475 62.9506L234.396 62.9506Z" fill="#23235E"/>
<path d="M253.698 75.5402L253.698 77.4775L255.73 77.4775L255.73 81.3514L253.698 81.3514L253.698 83.2881L258.778 83.2881L258.778 75.5402L253.698 75.5402Z" fill="#23235E"/>
<path d="M253.698 113.311L253.698 115.248L255.73 115.248L255.73 119.122L253.698 119.122L253.698 121.058L258.778 121.058L258.778 113.311L253.698 113.311Z" fill="#23235E"/>
<path d="M253.698 125.9L253.698 127.838L255.73 127.838L255.73 131.712L253.698 131.712L253.698 133.648L258.778 133.648L258.778 125.9L253.698 125.9Z" fill="#23235E"/>
<path d="M253.698 87.162L253.698 89.0987L255.73 89.0987L255.73 92.9727L253.698 92.9727L253.698 94.91L258.778 94.91L258.778 87.162L253.698 87.162Z" fill="#23235E"/>
<path d="M243.539 51.3286L243.539 53.2659L245.571 53.2659L245.571 57.1393L243.539 57.1393L243.539 59.0765L248.619 59.0765L248.619 51.3286L243.539 51.3286Z" fill="#23235E"/>
<path d="M248.619 113.311L243.539 113.311L243.539 121.058L248.619 121.058L248.619 113.311Z" fill="#23235E"/>
<path d="M248.619 136.554L243.539 136.554L243.539 144.302L248.619 144.302L248.619 136.554Z" fill="#23235E"/>
<path d="M243.539 124.932L243.539 126.869L245.571 126.869L245.571 130.743L243.539 130.743L243.539 132.68L248.619 132.68L248.619 124.932L243.539 124.932Z" fill="#23235E"/>
<path d="M234.396 75.5402L234.396 77.4775L236.427 77.4775L236.427 81.3514L234.396 81.3514L234.396 83.2881L239.475 83.2881L239.475 75.5402L234.396 75.5402Z" fill="#23235E"/>
<path d="M234.396 88.1304L234.396 90.0677L236.427 90.0677L236.427 93.941L234.396 93.941L234.396 95.8783L239.475 95.8783L239.475 88.1304L234.396 88.1304Z" fill="#23235E"/>
<path d="M239.475 125.901L234.396 125.901L234.396 133.648L239.475 133.648L239.475 125.901Z" fill="#23235E"/>
<path d="M234.396 113.311L234.396 115.248L236.427 115.248L236.427 119.122L234.396 119.122L234.396 121.058L239.475 121.058L239.475 113.311L234.396 113.311Z" fill="#23235E"/>
<path d="M239.475 151.081L234.396 151.081L234.396 158.828L239.475 158.828L239.475 151.081Z" fill="#23235E"/>
<path d="M234.396 138.491L234.396 140.427L236.427 140.427L236.427 144.301L234.396 144.301L234.396 146.239L239.475 146.239L239.475 138.491L234.396 138.491Z" fill="#23235E"/>
<path d="M239.475 176.261L234.396 176.261L234.396 184.009L239.475 184.009L239.475 176.261Z" fill="#23235E"/>
<path d="M248.619 174.324L243.539 174.324L243.539 182.072L248.619 182.072L248.619 174.324Z" fill="#23235E"/>
<path d="M234.396 163.671L234.396 165.608L236.427 165.608L236.427 169.482L234.396 169.482L234.396 171.418L239.475 171.418L239.475 163.671L234.396 163.671Z" fill="#23235E"/>
<path d="M253.698 163.671L253.698 165.608L255.73 165.608L255.73 169.482L253.698 169.482L253.698 171.418L258.778 171.418L258.778 163.671L253.698 163.671Z" fill="#23235E"/>
<path d="M310.591 51.3287L305.511 51.3287L305.511 59.0765L310.591 59.0765L310.591 51.3287Z" fill="#23235E"/>
<path d="M310.591 63.9188L305.511 63.9188L305.511 71.6665L310.591 71.6665L310.591 63.9188Z" fill="#23235E"/>
<path d="M310.591 100.721L305.511 100.721L305.511 108.468L310.591 108.468L310.591 100.721Z" fill="#23235E"/>
<path d="M305.511 75.5402L305.511 77.4775L307.543 77.4775L307.543 81.3514L305.511 81.3514L305.511 83.2881L310.591 83.2881L310.591 75.5402L305.511 75.5402Z" fill="#23235E"/>
<path d="M305.511 113.311L305.511 115.248L307.543 115.248L307.543 119.122L305.511 119.122L305.511 121.058L310.591 121.058L310.591 113.311L305.511 113.311Z" fill="#23235E"/>
<path d="M305.511 125.9L305.511 127.838L307.543 127.838L307.543 131.712L305.511 131.712L305.511 133.648L310.591 133.648L310.591 125.9L305.511 125.9Z" fill="#23235E"/>
<path d="M305.511 87.162L305.511 89.0987L307.543 89.0987L307.543 92.9727L305.511 92.9727L305.511 94.91L310.591 94.91L310.591 87.162L305.511 87.162Z" fill="#23235E"/>
<path d="M305.511 163.671L305.511 165.608L307.543 165.608L307.543 169.482L305.511 169.482L305.511 171.418L310.591 171.418L310.591 163.671L305.511 163.671Z" fill="#23235E"/>
<path d="M239.475 201.441L234.396 201.441L234.396 209.189L239.475 209.189L239.475 201.441Z" fill="#23235E"/>
<path d="M248.619 186.914L243.539 186.914L243.539 194.662L248.619 194.662L248.619 186.914Z" fill="#23235E"/>
<path d="M239.475 234.369L234.396 234.369L234.396 242.117L239.475 242.117L239.475 234.369Z" fill="#23235E"/>
<path d="M248.619 211.126L243.539 211.126L243.539 218.873L248.619 218.873L248.619 211.126Z" fill="#23235E"/>
<path d="M234.396 188.851L234.396 190.788L236.427 190.788L236.427 194.662L234.396 194.662L234.396 196.599L239.475 196.599L239.475 188.851L234.396 188.851Z" fill="#23235E"/>
<path d="M234.396 247.928L234.396 249.864L236.427 249.864L236.427 253.738L234.396 253.738L234.396 255.675L239.475 255.675L239.475 247.928L234.396 247.928Z" fill="#23235E"/>
<path d="M295.352 39.7071L290.272 39.7071L290.272 47.4548L295.352 47.4548L295.352 39.7071Z" fill="#23235E"/>
<path d="M295.352 100.721L290.272 100.721L290.272 108.468L295.352 108.468L295.352 100.721Z" fill="#23235E"/>
<path d="M297.384 225.653L290.272 225.653L290.272 226.621L297.384 226.621L297.384 225.653Z" fill="#23235E"/>
<path d="M290.272 62.9506L290.272 64.8872L292.304 64.8872L292.304 68.7612L290.272 68.7612L290.272 70.6979L295.351 70.6979L295.351 62.9506L290.272 62.9506Z" fill="#23235E"/>
<path d="M290.272 75.5402L290.272 77.4775L292.304 77.4775L292.304 81.3514L290.272 81.3514L290.272 83.2881L295.351 83.2881L295.351 75.5402L290.272 75.5402Z" fill="#23235E"/>
<path d="M290.272 88.1304L290.272 90.0677L292.304 90.0677L292.304 93.941L290.272 93.941L290.272 95.8783L295.351 95.8783L295.351 88.1304L290.272 88.1304Z" fill="#23235E"/>
<path d="M295.352 125.901L290.272 125.901L290.272 133.648L295.352 133.648L295.352 125.901Z" fill="#23235E"/>
<path d="M290.272 113.311L290.272 115.248L292.304 115.248L292.304 119.122L290.272 119.122L290.272 121.058L295.351 121.058L295.351 113.311L290.272 113.311Z" fill="#23235E"/>
<path d="M295.352 151.081L290.272 151.081L290.272 158.828L295.352 158.828L295.352 151.081Z" fill="#23235E"/>
<path d="M290.272 138.491L290.272 140.427L292.304 140.427L292.304 144.301L290.272 144.301L290.272 146.239L295.351 146.239L295.351 138.491L290.272 138.491Z" fill="#23235E"/>
<path d="M295.352 176.261L290.272 176.261L290.272 184.009L295.352 184.009L295.352 176.261Z" fill="#23235E"/>
<path d="M290.272 163.671L290.272 165.608L292.304 165.608L292.304 169.482L290.272 169.482L290.272 171.418L295.351 171.418L295.351 163.671L290.272 163.671Z" fill="#23235E"/>
<path d="M295.352 201.441L290.272 201.441L290.272 209.189L295.352 209.189L295.352 201.441Z" fill="#23235E"/>
<path d="M295.352 234.369L290.272 234.369L290.272 242.117L295.352 242.117L295.352 234.369Z" fill="#23235E"/>
<path d="M290.272 188.851L290.272 190.788L292.304 190.788L292.304 194.662L290.272 194.662L290.272 196.599L295.351 196.599L295.351 188.851L290.272 188.851Z" fill="#23235E"/>
<path d="M290.272 247.928L290.272 249.864L292.304 249.864L292.304 253.738L290.272 253.738L290.272 255.675L295.351 255.675L295.351 247.928L290.272 247.928Z" fill="#23235E"/>
<path d="M319.734 39.7071L314.654 39.7071L314.654 47.4548L319.734 47.4548L319.734 39.7071Z" fill="#23235E"/>
<path d="M319.734 100.721L314.654 100.721L314.654 108.468L319.734 108.468L319.734 100.721Z" fill="#23235E"/>
<path d="M321.766 225.653L314.654 225.653L314.654 226.621L321.766 226.621L321.766 225.653Z" fill="#23235E"/>
<path d="M314.654 62.9506L314.654 64.8872L316.686 64.8872L316.686 68.7612L314.654 68.7612L314.654 70.6979L319.734 70.6979L319.734 62.9506L314.654 62.9506Z" fill="#23235E"/>
<path d="M314.654 75.5402L314.654 77.4775L316.686 77.4775L316.686 81.3514L314.654 81.3514L314.654 83.2881L319.734 83.2881L319.734 75.5402L314.654 75.5402Z" fill="#23235E"/>
<path d="M314.654 88.1304L314.654 90.0677L316.686 90.0677L316.686 93.941L314.654 93.941L314.654 95.8783L319.734 95.8783L319.734 88.1304L314.654 88.1304Z" fill="#23235E"/>
<path d="M319.734 125.901L314.654 125.901L314.654 133.648L319.734 133.648L319.734 125.901Z" fill="#23235E"/>
<path d="M314.654 113.311L314.654 115.248L316.686 115.248L316.686 119.122L314.654 119.122L314.654 121.058L319.734 121.058L319.734 113.311L314.654 113.311Z" fill="#23235E"/>
<path d="M319.734 151.081L314.654 151.081L314.654 158.828L319.734 158.828L319.734 151.081Z" fill="#23235E"/>
<path d="M314.654 138.491L314.654 140.427L316.686 140.427L316.686 144.301L314.654 144.301L314.654 146.239L319.734 146.239L319.734 138.491L314.654 138.491Z" fill="#23235E"/>
<path d="M319.734 176.261L314.654 176.261L314.654 184.009L319.734 184.009L319.734 176.261Z" fill="#23235E"/>
<path d="M314.654 163.671L314.654 165.608L316.686 165.608L316.686 169.482L314.654 169.482L314.654 171.418L319.734 171.418L319.734 163.671L314.654 163.671Z" fill="#23235E"/>
<path d="M319.734 201.441L314.654 201.441L314.654 209.189L319.734 209.189L319.734 201.441Z" fill="#23235E"/>
<path d="M319.734 234.369L314.654 234.369L314.654 242.117L319.734 242.117L319.734 234.369Z" fill="#23235E"/>
<path d="M314.654 188.851L314.654 190.788L316.686 190.788L316.686 194.662L314.654 194.662L314.654 196.599L319.734 196.599L319.734 188.851L314.654 188.851Z" fill="#23235E"/>
<path d="M314.654 247.928L314.654 249.864L316.686 249.864L316.686 253.738L314.654 253.738L314.654 255.675L319.734 255.675L319.734 247.928L314.654 247.928Z" fill="#23235E"/>
<path d="M243.539 234.369L243.539 236.306L245.571 236.306L245.571 240.18L243.539 240.18L243.539 242.116L248.619 242.116L248.619 234.369L243.539 234.369Z" fill="#23235E"/>
<path d="M243.539 246.959L243.539 248.896L245.571 248.896L245.571 252.77L243.539 252.77L243.539 254.707L248.619 254.707L248.619 246.959L243.539 246.959Z" fill="#23235E"/>
<path d="M217.125 100.721L217.125 102.657L219.157 102.657L219.157 106.531L217.125 106.531L217.125 108.469L222.204 108.469L222.204 100.721L217.125 100.721Z" fill="#23235E"/>
<path d="M217.125 150.113L217.125 152.049L219.157 152.049L219.157 155.923L217.125 155.923L217.125 157.86L222.204 157.86L222.204 150.113L217.125 150.113Z" fill="#23235E"/>
<path d="M217.125 162.702L217.125 164.64L219.157 164.64L219.157 168.513L217.125 168.513L217.125 170.45L222.204 170.45L222.204 162.702L217.125 162.702Z" fill="#23235E"/>
<path d="M217.125 187.883L217.125 189.819L219.157 189.819L219.157 193.693L217.125 193.693L217.125 195.63L222.204 195.63L222.204 187.883L217.125 187.883Z" fill="#23235E"/>
<path d="M217.125 223.715L217.125 225.653L219.157 225.653L219.157 229.527L217.125 229.527L217.125 231.463L222.204 231.463L222.204 223.715L217.125 223.715Z" fill="#23235E"/>
<path d="M217.125 234.369L217.125 236.306L219.157 236.306L219.157 240.18L217.125 240.18L217.125 242.116L222.204 242.116L222.204 234.369L217.125 234.369Z" fill="#23235E"/>
<path d="M275.033 41.644L269.953 41.644L269.953 49.3918L275.033 49.3918L275.033 41.644Z" fill="#23235E"/>
<path d="M275.033 54.2341L269.953 54.2341L269.953 61.9819L275.033 61.9819L275.033 54.2341Z" fill="#23235E"/>
<path d="M275.033 67.7927L267.922 67.7927L267.922 68.7611L275.033 68.7611L275.033 67.7927Z" fill="#23235E"/>
<path d="M275.033 129.774L267.922 129.774L267.922 130.743L275.033 130.743L275.033 129.774Z" fill="#23235E"/>
<path d="M275.033 140.428L267.922 140.428L267.922 141.396L275.033 141.396L275.033 140.428Z" fill="#23235E"/>
<path d="M269.953 76.5091L269.953 78.4458L271.985 78.4458L271.985 82.3197L269.953 82.3197L269.953 84.2564L275.033 84.2564L275.033 76.5091L269.953 76.5091Z" fill="#23235E"/>
<path d="M269.953 100.721L269.953 102.657L271.985 102.657L271.985 106.531L269.953 106.531L269.953 108.469L275.033 108.469L275.033 100.721L269.953 100.721Z" fill="#23235E"/>
<path d="M269.953 150.113L269.953 152.049L271.985 152.049L271.985 155.923L269.953 155.923L269.953 157.86L275.033 157.86L275.033 150.113L269.953 150.113Z" fill="#23235E"/>
<path d="M332.941 125.901L327.861 125.901L327.861 133.648L332.941 133.648L332.941 125.901Z" fill="#23235E"/>
<path d="M332.941 138.491L327.861 138.491L327.861 146.238L332.941 146.238L332.941 138.491Z" fill="#23235E"/>
<path d="M332.941 152.049L325.83 152.049L325.83 153.018L332.941 153.018L332.941 152.049Z" fill="#23235E"/>
<path d="M332.941 214.031L325.83 214.031L325.83 215L332.941 215L332.941 214.031Z" fill="#23235E"/>
<path d="M332.941 224.684L325.83 224.684L325.83 225.653L332.941 225.653L332.941 224.684Z" fill="#23235E"/>
<path d="M327.861 160.766L327.861 162.702L329.894 162.702L329.894 166.576L327.861 166.576L327.861 168.513L332.941 168.513L332.941 160.766L327.861 160.766Z" fill="#23235E"/>
<path d="M327.861 184.977L327.861 186.914L329.894 186.914L329.894 190.788L327.861 190.788L327.861 192.725L332.941 192.725L332.941 184.977L327.861 184.977Z" fill="#23235E"/>
<path d="M327.861 234.369L327.861 236.306L329.894 236.306L329.894 240.18L327.861 240.18L327.861 242.116L332.941 242.116L332.941 234.369L327.861 234.369Z" fill="#23235E"/>
<path d="M349.196 41.644L344.116 41.644L344.116 49.3918L349.196 49.3918L349.196 41.644Z" fill="#23235E"/>
<path d="M366.467 39.7071L361.387 39.7071L361.387 47.4548L366.467 47.4548L366.467 39.7071Z" fill="#23235E"/>
<path d="M375.61 39.7071L370.531 39.7071L370.531 47.4548L375.61 47.4548L375.61 39.7071Z" fill="#23235E"/>
<path d="M375.61 62.9503L370.531 62.9503L370.531 70.698L375.61 70.698L375.61 62.9503Z" fill="#23235E"/>
<path d="M385.77 51.3287L380.69 51.3287L380.69 59.0765L385.77 59.0765L385.77 51.3287Z" fill="#23235E"/>
<path d="M385.77 63.9188L380.69 63.9188L380.69 71.6665L385.77 71.6665L385.77 63.9188Z" fill="#23235E"/>
<path d="M375.61 88.1304L370.531 88.1304L370.531 95.8782L375.61 95.8782L375.61 88.1304Z" fill="#23235E"/>
<path d="M385.77 100.721L380.69 100.721L380.69 108.468L385.77 108.468L385.77 100.721Z" fill="#23235E"/>
<path d="M375.61 148.175L370.531 148.175L370.531 155.923L375.61 155.923L375.61 148.175Z" fill="#23235E"/>
<path d="M366.467 100.721L361.387 100.721L361.387 108.468L366.467 108.468L366.467 100.721Z" fill="#23235E"/>
<path d="M349.196 54.2341L344.116 54.2341L344.116 61.9819L349.196 61.9819L349.196 54.2341Z" fill="#23235E"/>
<path d="M349.196 175.292L344.116 175.292L344.116 183.04L349.196 183.04L349.196 175.292Z" fill="#23235E"/>
<path d="M349.196 200.473L344.116 200.473L344.116 208.22L349.196 208.22L349.196 200.473Z" fill="#23235E"/>
<path d="M349.196 213.063L344.116 213.063L344.116 220.81L349.196 220.81L349.196 213.063Z" fill="#23235E"/>
<path d="M349.196 67.7927L342.085 67.7927L342.085 68.7611L349.196 68.7611L349.196 67.7927Z" fill="#23235E"/>
<path d="M376.626 79.4142L369.515 79.4142L369.515 80.3827L376.626 80.3827L376.626 79.4142Z" fill="#23235E"/>
<path d="M349.196 129.774L342.085 129.774L342.085 130.743L349.196 130.743L349.196 129.774Z" fill="#23235E"/>
<path d="M349.196 140.428L342.085 140.428L342.085 141.396L349.196 141.396L349.196 140.428Z" fill="#23235E"/>
<path d="M376.626 202.409L369.515 202.409L369.515 203.378L376.626 203.378L376.626 202.409Z" fill="#23235E"/>
<path d="M368.499 225.653L361.387 225.653L361.387 226.621L368.499 226.621L368.499 225.653Z" fill="#23235E"/>
<path d="M344.116 76.5091L344.116 78.4458L346.148 78.4458L346.148 82.3197L344.116 82.3197L344.116 84.2564L349.196 84.2564L349.196 76.5091L344.116 76.5091Z" fill="#23235E"/>
<path d="M361.387 62.9506L361.387 64.8872L363.419 64.8872L363.419 68.7612L361.387 68.7612L361.387 70.6979L366.467 70.6979L366.467 62.9506L361.387 62.9506Z" fill="#23235E"/>
<path d="M380.69 75.5402L380.69 77.4775L382.722 77.4775L382.722 81.3514L380.69 81.3514L380.69 83.2881L385.77 83.2881L385.77 75.5402L380.69 75.5402Z" fill="#23235E"/>
<path d="M380.69 113.311L380.69 115.248L382.722 115.248L382.722 119.122L380.69 119.122L380.69 121.058L385.77 121.058L385.77 113.311L380.69 113.311Z" fill="#23235E"/>
<path d="M380.69 125.9L380.69 127.838L382.722 127.838L382.722 131.712L380.69 131.712L380.69 133.648L385.77 133.648L385.77 125.9L380.69 125.9Z" fill="#23235E"/>
<path d="M380.69 87.162L380.69 89.0987L382.722 89.0987L382.722 92.9727L380.69 92.9727L380.69 94.91L385.77 94.91L385.77 87.162L380.69 87.162Z" fill="#23235E"/>
<path d="M370.531 51.3286L370.531 53.2659L372.562 53.2659L372.562 57.1393L370.531 57.1393L370.531 59.0765L375.61 59.0765L375.61 51.3286L370.531 51.3286Z" fill="#23235E"/>
<path d="M375.61 113.311L370.531 113.311L370.531 121.058L375.61 121.058L375.61 113.311Z" fill="#23235E"/>
<path d="M375.61 136.554L370.531 136.554L370.531 144.302L375.61 144.302L375.61 136.554Z" fill="#23235E"/>
<path d="M370.531 124.932L370.531 126.869L372.562 126.869L372.562 130.743L370.531 130.743L370.531 132.68L375.61 132.68L375.61 124.932L370.531 124.932Z" fill="#23235E"/>
<path d="M361.387 75.5402L361.387 77.4775L363.419 77.4775L363.419 81.3514L361.387 81.3514L361.387 83.2881L366.467 83.2881L366.467 75.5402L361.387 75.5402Z" fill="#23235E"/>
<path d="M361.387 88.1304L361.387 90.0677L363.419 90.0677L363.419 93.941L361.387 93.941L361.387 95.8783L366.467 95.8783L366.467 88.1304L361.387 88.1304Z" fill="#23235E"/>
<path d="M366.467 125.901L361.387 125.901L361.387 133.648L366.467 133.648L366.467 125.901Z" fill="#23235E"/>
<path d="M361.387 113.311L361.387 115.248L363.419 115.248L363.419 119.122L361.387 119.122L361.387 121.058L366.467 121.058L366.467 113.311L361.387 113.311Z" fill="#23235E"/>
<path d="M366.467 151.081L361.387 151.081L361.387 158.828L366.467 158.828L366.467 151.081Z" fill="#23235E"/>
<path d="M361.387 138.491L361.387 140.427L363.419 140.427L363.419 144.301L361.387 144.301L361.387 146.239L366.467 146.239L366.467 138.491L361.387 138.491Z" fill="#23235E"/>
<path d="M366.467 176.261L361.387 176.261L361.387 184.009L366.467 184.009L366.467 176.261Z" fill="#23235E"/>
<path d="M375.61 174.324L370.531 174.324L370.531 182.072L375.61 182.072L375.61 174.324Z" fill="#23235E"/>
<path d="M361.387 163.671L361.387 165.608L363.419 165.608L363.419 169.482L361.387 169.482L361.387 171.418L366.467 171.418L366.467 163.671L361.387 163.671Z" fill="#23235E"/>
<path d="M380.69 163.671L380.69 165.608L382.722 165.608L382.722 169.482L380.69 169.482L380.69 171.418L385.77 171.418L385.77 163.671L380.69 163.671Z" fill="#23235E"/>
<path d="M437.582 51.3287L432.503 51.3287L432.503 59.0765L437.582 59.0765L437.582 51.3287Z" fill="#23235E"/>
<path d="M437.582 63.9188L432.503 63.9188L432.503 71.6665L437.582 71.6665L437.582 63.9188Z" fill="#23235E"/>
<path d="M437.582 100.721L432.503 100.721L432.503 108.468L437.582 108.468L437.582 100.721Z" fill="#23235E"/>
<path d="M432.503 75.5402L432.503 77.4775L434.534 77.4775L434.534 81.3514L432.503 81.3514L432.503 83.2881L437.582 83.2881L437.582 75.5402L432.503 75.5402Z" fill="#23235E"/>
<path d="M432.503 113.311L432.503 115.248L434.534 115.248L434.534 119.122L432.503 119.122L432.503 121.058L437.582 121.058L437.582 113.311L432.503 113.311Z" fill="#23235E"/>
<path d="M432.503 125.9L432.503 127.838L434.534 127.838L434.534 131.712L432.503 131.712L432.503 133.648L437.582 133.648L437.582 125.9L432.503 125.9Z" fill="#23235E"/>
<path d="M432.503 87.162L432.503 89.0987L434.534 89.0987L434.534 92.9727L432.503 92.9727L432.503 94.91L437.582 94.91L437.582 87.162L432.503 87.162Z" fill="#23235E"/>
<path d="M432.503 163.671L432.503 165.608L434.534 165.608L434.534 169.482L432.503 169.482L432.503 171.418L437.582 171.418L437.582 163.671L432.503 163.671Z" fill="#23235E"/>
<path d="M366.467 201.441L361.387 201.441L361.387 209.189L366.467 209.189L366.467 201.441Z" fill="#23235E"/>
<path d="M375.61 186.914L370.531 186.914L370.531 194.662L375.61 194.662L375.61 186.914Z" fill="#23235E"/>
<path d="M366.467 234.369L361.387 234.369L361.387 242.117L366.467 242.117L366.467 234.369Z" fill="#23235E"/>
<path d="M375.61 211.126L370.531 211.126L370.531 218.873L375.61 218.873L375.61 211.126Z" fill="#23235E"/>
<path d="M361.387 188.851L361.387 190.788L363.419 190.788L363.419 194.662L361.387 194.662L361.387 196.599L366.467 196.599L366.467 188.851L361.387 188.851Z" fill="#23235E"/>
<path d="M361.387 247.928L361.387 249.864L363.419 249.864L363.419 253.738L361.387 253.738L361.387 255.675L366.467 255.675L366.467 247.928L361.387 247.928Z" fill="#23235E"/>
<path d="M422.343 39.7071L417.264 39.7071L417.264 47.4548L422.343 47.4548L422.343 39.7071Z" fill="#23235E"/>
<path d="M422.343 100.721L417.264 100.721L417.264 108.468L422.343 108.468L422.343 100.721Z" fill="#23235E"/>
<path d="M424.375 225.653L417.264 225.653L417.264 226.621L424.375 226.621L424.375 225.653Z" fill="#23235E"/>
<path d="M417.264 62.9506L417.264 64.8872L419.295 64.8872L419.295 68.7612L417.264 68.7612L417.264 70.6979L422.344 70.6979L422.344 62.9506L417.264 62.9506Z" fill="#23235E"/>
<path d="M417.264 75.5402L417.264 77.4775L419.295 77.4775L419.295 81.3514L417.264 81.3514L417.264 83.2881L422.344 83.2881L422.344 75.5402L417.264 75.5402Z" fill="#23235E"/>
<path d="M417.264 88.1304L417.264 90.0677L419.295 90.0677L419.295 93.941L417.264 93.941L417.264 95.8783L422.344 95.8783L422.344 88.1304L417.264 88.1304Z" fill="#23235E"/>
<path d="M422.343 125.901L417.264 125.901L417.264 133.648L422.343 133.648L422.343 125.901Z" fill="#23235E"/>
<path d="M417.264 113.311L417.264 115.248L419.295 115.248L419.295 119.122L417.264 119.122L417.264 121.058L422.344 121.058L422.344 113.311L417.264 113.311Z" fill="#23235E"/>
<path d="M422.343 151.081L417.264 151.081L417.264 158.828L422.343 158.828L422.343 151.081Z" fill="#23235E"/>
<path d="M417.264 138.491L417.264 140.427L419.295 140.427L419.295 144.301L417.264 144.301L417.264 146.239L422.344 146.239L422.344 138.491L417.264 138.491Z" fill="#23235E"/>
<path d="M422.343 176.261L417.264 176.261L417.264 184.009L422.343 184.009L422.343 176.261Z" fill="#23235E"/>
<path d="M417.264 163.671L417.264 165.608L419.295 165.608L419.295 169.482L417.264 169.482L417.264 171.418L422.344 171.418L422.344 163.671L417.264 163.671Z" fill="#23235E"/>
<path d="M422.343 201.441L417.264 201.441L417.264 209.189L422.343 209.189L422.343 201.441Z" fill="#23235E"/>
<path d="M422.343 234.369L417.264 234.369L417.264 242.117L422.343 242.117L422.343 234.369Z" fill="#23235E"/>
<path d="M417.264 188.851L417.264 190.788L419.295 190.788L419.295 194.662L417.264 194.662L417.264 196.599L422.344 196.599L422.344 188.851L417.264 188.851Z" fill="#23235E"/>
<path d="M417.264 247.928L417.264 249.864L419.295 249.864L419.295 253.738L417.264 253.738L417.264 255.675L422.344 255.675L422.344 247.928L417.264 247.928Z" fill="#23235E"/>
<path d="M446.726 39.7071L441.646 39.7071L441.646 47.4548L446.726 47.4548L446.726 39.7071Z" fill="#23235E"/>
<path d="M446.726 100.721L441.646 100.721L441.646 108.468L446.726 108.468L446.726 100.721Z" fill="#23235E"/>
<path d="M448.758 225.653L441.646 225.653L441.646 226.621L448.758 226.621L448.758 225.653Z" fill="#23235E"/>
<path d="M441.646 62.9506L441.646 64.8872L443.678 64.8872L443.678 68.7612L441.646 68.7612L441.646 70.6979L446.726 70.6979L446.726 62.9506L441.646 62.9506Z" fill="#23235E"/>
<path d="M441.646 75.5402L441.646 77.4775L443.678 77.4775L443.678 81.3514L441.646 81.3514L441.646 83.2881L446.726 83.2881L446.726 75.5402L441.646 75.5402Z" fill="#23235E"/>
<path d="M441.646 88.1304L441.646 90.0677L443.678 90.0677L443.678 93.941L441.646 93.941L441.646 95.8783L446.726 95.8783L446.726 88.1304L441.646 88.1304Z" fill="#23235E"/>
<path d="M446.726 125.901L441.646 125.901L441.646 133.648L446.726 133.648L446.726 125.901Z" fill="#23235E"/>
<path d="M441.646 113.311L441.646 115.248L443.678 115.248L443.678 119.122L441.646 119.122L441.646 121.058L446.726 121.058L446.726 113.311L441.646 113.311Z" fill="#23235E"/>
<path d="M446.726 151.081L441.646 151.081L441.646 158.828L446.726 158.828L446.726 151.081Z" fill="#23235E"/>
<path d="M441.646 138.491L441.646 140.427L443.678 140.427L443.678 144.301L441.646 144.301L441.646 146.239L446.726 146.239L446.726 138.491L441.646 138.491Z" fill="#23235E"/>
<path d="M446.726 176.261L441.646 176.261L441.646 184.009L446.726 184.009L446.726 176.261Z" fill="#23235E"/>
<path d="M441.646 163.671L441.646 165.608L443.678 165.608L443.678 169.482L441.646 169.482L441.646 171.418L446.726 171.418L446.726 163.671L441.646 163.671Z" fill="#23235E"/>
<path d="M446.726 201.441L441.646 201.441L441.646 209.189L446.726 209.189L446.726 201.441Z" fill="#23235E"/>
<path d="M446.726 234.369L441.646 234.369L441.646 242.117L446.726 242.117L446.726 234.369Z" fill="#23235E"/>
<path d="M441.646 188.851L441.646 190.788L443.678 190.788L443.678 194.662L441.646 194.662L441.646 196.599L446.726 196.599L446.726 188.851L441.646 188.851Z" fill="#23235E"/>
<path d="M441.646 247.928L441.646 249.864L443.678 249.864L443.678 253.738L441.646 253.738L441.646 255.675L446.726 255.675L446.726 247.928L441.646 247.928Z" fill="#23235E"/>
<path d="M370.531 234.369L370.531 236.306L372.562 236.306L372.562 240.18L370.531 240.18L370.531 242.116L375.61 242.116L375.61 234.369L370.531 234.369Z" fill="#23235E"/>
<path d="M370.531 246.959L370.531 248.896L372.562 248.896L372.562 252.77L370.531 252.77L370.531 254.707L375.61 254.707L375.61 246.959L370.531 246.959Z" fill="#23235E"/>
<path d="M344.116 100.721L344.116 102.657L346.148 102.657L346.148 106.531L344.116 106.531L344.116 108.469L349.196 108.469L349.196 100.721L344.116 100.721Z" fill="#23235E"/>
<path d="M344.116 150.113L344.116 152.049L346.148 152.049L346.148 155.923L344.116 155.923L344.116 157.86L349.196 157.86L349.196 150.113L344.116 150.113Z" fill="#23235E"/>
<path d="M344.116 162.702L344.116 164.64L346.148 164.64L346.148 168.513L344.116 168.513L344.116 170.45L349.196 170.45L349.196 162.702L344.116 162.702Z" fill="#23235E"/>
<path d="M344.116 187.883L344.116 189.819L346.148 189.819L346.148 193.693L344.116 193.693L344.116 195.63L349.196 195.63L349.196 187.883L344.116 187.883Z" fill="#23235E"/>
<path d="M344.116 223.715L344.116 225.653L346.148 225.653L346.148 229.527L344.116 229.527L344.116 231.463L349.196 231.463L349.196 223.715L344.116 223.715Z" fill="#23235E"/>
<path d="M344.116 234.369L344.116 236.306L346.148 236.306L346.148 240.18L344.116 240.18L344.116 242.116L349.196 242.116L349.196 234.369L344.116 234.369Z" fill="#23235E"/>
<path d="M402.025 41.644L396.945 41.644L396.945 49.3918L402.025 49.3918L402.025 41.644Z" fill="#23235E"/>
<path d="M402.025 54.2341L396.945 54.2341L396.945 61.9819L402.025 61.9819L402.025 54.2341Z" fill="#23235E"/>
<path d="M402.025 67.7927L394.913 67.7927L394.913 68.7611L402.025 68.7611L402.025 67.7927Z" fill="#23235E"/>
<path d="M402.025 129.774L394.913 129.774L394.913 130.743L402.025 130.743L402.025 129.774Z" fill="#23235E"/>
<path d="M402.025 140.428L394.913 140.428L394.913 141.396L402.025 141.396L402.025 140.428Z" fill="#23235E"/>
<path d="M396.945 76.5091L396.945 78.4458L398.977 78.4458L398.977 82.3197L396.945 82.3197L396.945 84.2564L402.024 84.2564L402.024 76.5091L396.945 76.5091Z" fill="#23235E"/>
<path d="M396.945 100.721L396.945 102.657L398.977 102.657L398.977 106.531L396.945 106.531L396.945 108.469L402.024 108.469L402.024 100.721L396.945 100.721Z" fill="#23235E"/>
<path d="M396.945 150.113L396.945 152.049L398.977 152.049L398.977 155.923L396.945 155.923L396.945 157.86L402.024 157.86L402.024 150.113L396.945 150.113Z" fill="#23235E"/>
<path d="M459.933 125.901L454.853 125.901L454.853 133.648L459.933 133.648L459.933 125.901Z" fill="#23235E"/>
<path d="M459.933 138.491L454.853 138.491L454.853 146.238L459.933 146.238L459.933 138.491Z" fill="#23235E"/>
<path d="M459.933 152.049L452.821 152.049L452.821 153.018L459.933 153.018L459.933 152.049Z" fill="#23235E"/>
<path d="M459.933 214.031L452.821 214.031L452.821 215L459.933 215L459.933 214.031Z" fill="#23235E"/>
<path d="M459.933 224.684L452.821 224.684L452.821 225.653L459.933 225.653L459.933 224.684Z" fill="#23235E"/>
<path d="M454.853 160.766L454.853 162.702L456.885 162.702L456.885 166.576L454.853 166.576L454.853 168.513L459.933 168.513L459.933 160.766L454.853 160.766Z" fill="#23235E"/>
<path d="M454.853 184.977L454.853 186.914L456.885 186.914L456.885 190.788L454.853 190.788L454.853 192.725L459.933 192.725L459.933 184.977L454.853 184.977Z" fill="#23235E"/>
<path d="M454.853 234.369L454.853 236.306L456.885 236.306L456.885 240.18L454.853 240.18L454.853 242.116L459.933 242.116L459.933 234.369L454.853 234.369Z" fill="#23235E"/>
<path d="M672 443.397L127.168 443.397L127.168 445L672 445L672 443.397Z" fill="black"/>
<path d="M239.784 253.75L239.784 286.383L244.392 306.465C244.392 306.465 243.734 319.017 244.392 322.782C245.051 326.547 243.734 332.823 239.784 332.823C235.834 332.823 233.859 342.237 233.859 342.237C233.859 342.237 232.543 346.002 229.251 346.63C225.959 347.257 225.959 346.63 225.959 346.63L223.326 352.905L168.685 387.421L179.218 412.524C179.218 412.524 195.676 406.876 196.993 404.993C198.31 403.111 209.501 407.504 209.501 403.111C209.501 398.718 211.476 387.421 215.426 386.794C219.376 386.166 252.292 371.732 252.292 371.732C252.292 371.732 269.409 353.533 270.725 346.63C272.042 339.726 277.967 320.272 277.967 320.272L294.425 346.63L294.425 399.345L291.792 427.586L320.758 423.82C320.758 423.82 318.125 406.248 320.758 403.738C323.391 401.228 327.341 371.105 324.708 367.339C322.075 363.574 326.025 346.63 324.708 344.119C323.391 341.609 324.05 323.41 320.758 318.389C317.466 313.369 297.717 261.908 297.717 261.908L239.784 253.75Z" fill="black"/>
<path d="M295.742 426.331C295.742 426.331 285.867 442.02 292.45 443.902C299.033 445.785 311.542 443.902 312.858 443.902C314.175 443.902 337.875 444.53 337.875 444.53C337.875 444.53 353.674 441.392 353.674 436.999C353.674 432.606 343.799 432.606 340.508 431.979C337.216 431.351 316.808 423.82 316.808 423.82L295.742 426.331Z" fill="black"/>
<path d="M171.708 388.129C171.708 388.129 152.681 385.727 153.486 392.234C154.29 398.741 161.074 408.934 161.597 410.086C161.952 410.866 166.11 420.741 168.757 427.034C170.67 431.647 173.544 435.843 177.207 439.367C179.795 441.833 182.615 443.81 184.465 443.046C188.694 441.3 184.769 432.662 184.065 429.533C183.361 426.404 182.498 405.559 182.498 405.559L171.708 388.129Z" fill="black"/>
<path d="M303.971 149.888L325.037 103.448C325.037 103.448 323.062 99.0547 318.454 99.6823C318.454 99.6823 312.2 84.3069 300.35 84.3069C300.35 84.3069 282.575 74.8935 277.309 84.3069C277.309 84.3069 266.117 93.7204 266.776 102.506C267.434 111.292 268.092 117.568 268.092 117.568C268.092 117.568 257.559 118.823 259.534 123.844C261.509 128.864 262.167 128.864 259.534 130.747L256.901 132.63C256.901 132.63 202.26 179.697 232.543 248.729L235.176 259.398L235.176 269.439C235.176 269.439 301.667 270.067 301.667 269.439C301.667 268.811 300.35 265.046 302.983 262.536C305.617 260.025 305.617 256.26 305.617 256.26C305.617 256.26 302.983 243.709 304.3 239.943C305.617 236.178 306.275 219.861 303.642 216.096C301.008 212.33 302.325 182.207 302.325 182.207L308.25 171.539L306.275 165.263L304.3 158.987L303.971 149.888Z" fill="#040405"/>
<path opacity="0.1" d="M298.375 275.715C298.375 275.715 290.475 255.005 291.134 251.24C291.792 247.474 289.817 239.943 289.817 239.943L287.184 189.111C287.184 189.111 298.375 143.926 273.359 136.395C273.359 136.395 267.029 139.028 261.842 147.501C256.713 149.679 250.49 155.19 249.001 169.028C246.367 193.503 258.217 256.26 264.142 266.929C270.067 277.597 274.017 285.128 274.017 285.128L280.21 282.504C280.465 282.988 280.6 283.245 280.6 283.245L298.375 275.715Z" fill="black"/>
<path d="M301.996 144.24C303.087 144.24 303.971 143.397 303.971 142.357C303.971 141.317 303.087 140.474 301.996 140.474C300.905 140.474 300.021 141.317 300.021 142.357C300.021 143.397 300.905 144.24 301.996 144.24Z" fill="white"/>
<path d="M302.654 142.357L301.338 142.357L301.338 171.852L302.654 171.852L302.654 142.357Z" fill="#6B6896"/>
<path d="M278.296 277.911L283.563 288.58C283.563 288.58 295.413 284.814 295.413 282.932C295.413 281.049 290.146 272.891 290.146 272.891L278.296 277.911Z" fill="#FF8C8C"/>
<path d="M270.725 136.395C270.725 136.395 255.584 142.671 252.951 167.146C250.317 191.621 262.167 254.377 268.092 265.046C274.017 275.715 277.967 283.245 277.967 283.245L295.742 275.715C295.742 275.715 287.842 255.005 288.5 251.24C289.159 247.474 287.184 239.943 287.184 239.943L284.55 189.111C284.55 189.111 295.742 143.926 270.725 136.395Z" fill="#040405"/>
<path d="M669.14 440.972L657.268 440.972" stroke="#6B6896" stroke-width="3" stroke-linecap="round"/>
<path d="M365.229 443.346L704.754 443.346" stroke="#6B6896" stroke-width="3" stroke-linecap="round"/>
<path d="M524.307 443.346L683.385 443.346" stroke="#6B6896" stroke-width="3" stroke-linecap="round"/>
<path d="M633.525 443.346C641.052 452.981 647.588 454.742 658.983 448.095C659.491 447.798 666.454 442.073 661.357 444.533C647.478 451.234 634.957 460.944 622.577 469.991C615.945 474.838 595.448 488.434 602.659 484.501C617.487 476.413 631.049 465.559 645.133 456.273C650.984 452.415 668.987 443.008 662.017 443.742C659.754 443.98 644.077 448.053 650.145 446.512C724.112 427.727 799.818 407.895 872.011 383.197C895.329 375.22 822.55 382.947 798.143 386.363C715.461 397.936 635.121 423.151 554.118 442.555C469.407 462.847 384.998 475.82 299.012 487.93C234.564 497.008 428.551 474.149 492.65 462.868C588.358 446.026 682.058 420.584 777.962 404.698C786.657 403.258 812.29 396.737 803.815 399.158C790.634 402.924 778.489 409.839 765.431 414.063C756.29 417.021 744.422 419.327 734.829 420.79C719.766 423.088 704.335 423.093 689.453 426.594C677.335 429.446 695.958 429.101 696.84 429.101C707.074 429.101 734.319 427.952 705.546 430.156C657.59 433.829 513.409 438.598 561.505 438.598C580.675 438.598 599.845 438.598 619.016 438.598C637.57 438.598 656.125 438.473 674.68 438.598C680.055 438.634 695.672 437.44 690.772 439.653C660.963 453.115 624.16 458.621 592.898 468.145C579.384 472.262 565.52 475.506 552.535 481.071C548.4 482.843 561.567 480.839 565.99 480.016C606.174 472.537 646.281 464.898 686.551 457.856C716.055 452.697 737.852 449.177 766.354 443.214C774.288 441.555 785.185 443.524 789.833 436.883C793.541 431.586 776.878 436.781 770.443 437.411C741.741 440.218 716.448 443.74 687.343 447.699C617.649 457.18 548.088 467.255 478.14 474.74C461.966 476.471 445.76 477.901 429.599 479.752C427.041 480.045 424.442 480.166 421.949 480.808C420.968 481.06 423.971 480.978 424.982 480.939C460.589 479.596 496.239 472.089 531.166 465.77C564.262 459.783 597.254 452.843 630.623 448.491C637.605 447.58 616.668 450.451 609.782 451.92C579.013 458.484 548.798 467.312 518.24 474.74C501.043 478.92 487.814 481.971 470.754 484.501C464.902 485.369 451.001 491.622 453.078 486.084C453.869 483.976 457.461 485.045 459.674 484.633C467.839 483.11 476.029 481.727 484.208 480.28C507.018 476.244 546.238 469.354 568.891 465.243C573.062 464.486 624.234 457.592 590.788 457.592C544.395 457.592 498.245 464.369 451.759 464.715C444.461 464.769 422.566 464.874 429.863 464.715C440.87 464.476 451.582 463.546 462.312 461.022C465.084 460.369 479.583 458.167 467.192 457.724C450.934 457.143 434.649 457.946 418.387 457.46C413.245 457.307 404.404 456.809 414.562 453.635C427.269 449.664 440.352 446.156 453.474 443.874C456.831 443.29 459.311 443.346 456.244 443.346C447.681 443.346 444.884 443.285 434.743 443.742C407.975 444.95 381.393 448.21 354.677 450.074C333.297 451.565 364.464 450.469 365.361 450.469C375.474 450.469 404.672 450.469 378.684 450.469C373.803 450.469 368.922 450.469 364.042 450.469C338.353 450.469 370.71 449.174 367.472 448.095C359.569 445.461 344.548 445.721 362.855 445.721C374.726 445.721 386.598 445.721 398.469 445.721C405.56 445.721 413.45 445.721 401.371 445.721C343.767 445.721 516.563 443.346 574.168 443.346C596.943 443.346 619.719 443.346 642.495 443.346C651.661 443.346 616.943 443.346 613.476 443.346C597.119 443.346 548.05 443.346 564.407 443.346C580.636 443.346 596.996 442.698 613.212 443.346C623.867 443.773 592.202 447.371 581.554 447.963C580.783 448.006 569.44 448.095 572.849 448.095C594.858 448.095 616.825 449.392 638.801 450.469C664.259 451.717 689.683 452.844 715.175 452.844C724.455 452.844 711.845 453.856 710.69 454.031C699.053 455.794 687.353 455.218 675.603 455.218C646.716 455.218 617.828 455.218 588.941 455.218C579.241 455.218 579.403 455.218 591.315 455.218C616.905 455.218 693.674 455.218 668.085 455.218C633.099 455.218 599.841 445.721 564.934 445.721C535.55 445.721 566.04 445.721 577.465 445.721C586.308 445.721 614.743 445.721 588.941 445.721C584.776 445.721 546.838 445.721 561.505 445.721C601.556 445.721 641.069 448.77 681.011 450.469C720.02 452.129 525.102 445.907 563.879 450.469C601.974 454.951 639.607 462.401 677.846 466.034C683.777 466.598 699.728 467.089 683.386 467.089C662.193 467.089 641 467.089 619.807 467.089C604.767 467.089 589.193 466.016 574.168 467.089C563.248 467.869 595.989 468.884 606.88 469.991C628.429 472.183 649.85 474.212 671.514 474.212" stroke="#6B6896" stroke-width="3" stroke-linecap="round"/>
<path d="M120.676 443.346L282.129 443.346" stroke="#E9EFA1" stroke-width="3" stroke-linecap="round"/>
<path d="M123.05 440.972L260.76 440.972" stroke="#E9EFA1" stroke-width="3" stroke-linecap="round"/>
<path d="M670 426L485 435.168M485 435.168L387.5 440L670 395L729.5 426L591.5 440L485 435.168Z" stroke="#E9EFA1"/>
<path d="M591.654 387.86C614.892 403.353 642.829 410.188 668.687 420.045C692.369 429.073 714.916 441.349 738.86 449.592C743.823 451.301 759.674 451.966 754.425 451.966C734.63 451.966 714.838 452.161 695.068 450.911C659.723 448.678 626.03 440.237 591.126 435.874C590.244 435.764 571.703 433.241 580.31 432.972C598.384 432.407 616.573 432.972 634.655 432.972C644.51 432.972 658.408 435.517 667.631 430.598C671.772 428.389 645.725 427.605 642.569 427.168C615.389 423.405 585.46 418.533 559.469 409.757C544.229 404.611 567.237 406.855 571.604 406.855C593.852 406.855 616.1 406.855 638.348 406.855C645.735 406.855 653.122 406.855 660.508 406.855C660.682 406.855 644.723 406.855 639.931 406.855C629.115 406.855 618.299 406.855 607.482 406.855C593.812 406.855 620.387 409.626 621.201 409.757C652.937 414.85 684.873 419.791 716.436 425.849C721.48 426.817 741.66 430.598 740.179 430.598C691.814 430.598 643.449 430.598 595.083 430.598C549.356 430.598 686.538 430.598 732.265 430.598C743.527 430.598 764.088 430.598 739.916 430.598C718.378 430.598 697.522 427.699 676.073 426.377C665.276 425.711 632.807 425.849 643.624 425.849C658.662 425.849 673.699 425.849 688.736 425.849C690.298 425.849 711.276 425.849 700.608 425.849C687.593 425.849 674.578 425.849 661.564 425.849C653.462 425.849 616.282 429.994 613.022 423.475" stroke="#E9EFA1" stroke-width="3" stroke-linecap="round"/>
<path d="M643.505 415.908C639.045 417.007 634.287 418.655 629.648 418.655C621.637 418.655 645.702 418.707 653.669 417.862C660.905 417.094 654.624 417.458 651.715 418.655C648.388 420.026 643.945 421.807 640.331 421.952C639.985 421.965 641.715 421.952 641.369 421.952C639.944 421.952 638.52 421.952 637.096 421.952C633.301 421.952 629.506 421.952 625.711 421.952C622.568 421.952 631.999 421.952 635.142 421.952C639.061 421.952 635.403 422.006 633.555 422.226C631.279 422.497 629.033 422.501 626.749 422.501C621.95 422.501 636.291 423.525 641.063 424.027C645.28 424.471 644.35 424.149 640.575 424.149C639.68 424.149 638.785 424.149 637.889 424.149C637.42 424.149 640.604 423.36 641.369 423.02C643.006 422.292 648.737 420.853 644.512 420.853C641.104 420.853 637.696 420.853 634.288 420.853C631.916 420.853 626.928 420.853 632.334 420.853C636.197 420.853 639.722 419.754 643.505 419.754C644.373 419.754 645.057 419.173 647.595 418.411C660.542 414.527 673.267 409.991 686.357 406.569C689.386 405.777 692.444 405.088 695.452 404.219C696.691 403.861 696.475 403.822 695.666 403.822C689.739 403.822 684.168 404.92 678.299 405.409C668.839 406.198 659.689 407.141 650.281 408.766C646.782 409.371 649.41 409.289 651.197 409.316C656.816 409.399 662.372 410.318 667.983 410.415C672.08 410.485 676.185 410.415 680.283 410.415C682.58 410.415 678.705 411.133 678.33 411.239C676.036 411.888 673.786 412.422 671.524 413.162C670.418 413.523 669.385 413.711 668.227 413.711C668.116 413.711 672.722 413.711 673.63 413.711C673.787 413.711 678.674 413.711 677.658 413.711C675.349 413.711 673.04 413.711 670.73 413.711C667.271 413.711 663.812 413.711 660.353 413.711C658.759 413.711 664.111 413.711 664.443 413.711C667.291 413.711 670.14 413.711 672.989 413.711C674.281 413.711 675.573 413.711 676.865 413.711C680.176 413.711 670.293 414.525 667.007 414.932C646.951 417.415 626.763 418.873 606.758 421.769C602.506 422.384 589.703 423.6 594 423.6C598.791 423.6 603.585 423.655 608.375 423.539C622.517 423.196 636.652 422.315 650.769 421.433C654.448 421.203 658.132 420.928 661.818 420.853C662.152 420.846 664.169 420.853 662.489 420.853C648.886 420.853 635.623 422.095 622.11 423.569C617.963 424.022 613.762 424.423 609.596 424.668C606.176 424.869 610.332 424.699 611.366 424.699C627.553 424.699 676.112 424.699 659.926 424.699C648.012 424.699 635.996 426.844 624.094 427.446C619.734 427.666 615.38 427.868 611.03 428.239C609.81 428.343 606.206 428.157 607.368 428.544C608.381 428.882 611.248 428.544 612.038 428.544C619.018 428.544 625.964 428.406 632.914 427.69C640.588 426.899 663.641 425.248 655.927 425.248C642.939 425.248 630.072 425.574 617.135 426.774C616.285 426.853 614.172 426.896 616.402 426.896C625.23 426.896 633.97 425.965 642.742 425.034C646.272 424.66 652.676 425.288 655.988 423.356C658.512 421.884 650.149 422.963 647.229 423.05C639.351 423.286 631.487 425.197 623.727 426.469C622.794 426.622 620.098 427.313 621.041 427.384C624.542 427.649 628.158 427.485 631.663 427.446C638.735 427.366 645.567 425.848 652.601 425.37C659.784 424.882 648.235 425.461 646.801 425.614C640.051 426.335 633.213 427.367 626.566 428.758C623.489 429.402 627.522 429.078 628.214 429.033C632.864 428.728 637.525 428.047 642.101 427.171C644.384 426.734 647.461 426.347 643.261 426.347C639.667 426.347 636.085 426.282 632.517 426.774C630.342 427.074 632.116 426.896 633.189 426.896C636.054 426.896 638.937 426.988 641.796 426.774C643.698 426.631 649.401 425.566 644.299 425.828C642 425.946 639.613 426.255 637.34 426.621C634.646 427.056 639.783 426.896 640.331 426.896C643.749 426.896 647.169 426.86 650.586 426.896C654.948 426.942 650.259 428.015 648.755 428.331C643.763 429.377 638.928 431.111 633.921 432.054C631.276 432.553 623.202 432.939 625.894 432.939C629.198 432.939 632.37 432.727 635.631 432.115C638.231 431.628 641.859 431.291 637.218 431.291C615.394 431.291 594.003 436.492 572.329 438.311C570.95 438.427 566.794 438.433 568.179 438.433C574.395 438.433 580.54 438.198 586.736 437.579C590.829 437.169 594.79 436.332 598.791 435.717C603.028 435.065 607.73 435.753 612.007 435.625C622.619 435.308 633.393 434.791 643.688 432.268C647.088 431.434 650.355 430.742 653.577 429.338C654.444 428.96 657.844 427.923 654.981 428.025C648.41 428.26 641.912 428.944 635.417 429.948C631.062 430.622 626.627 431.841 622.201 431.841C610.288 431.841 646.028 431.841 657.942 431.841C660.414 431.841 652.997 431.841 650.525 431.841C644.011 431.841 637.733 432.928 631.297 433.794C625.886 434.522 620.594 435.633 615.212 436.266C613.293 436.492 611.511 437.504 609.596 437.823C607.238 438.216 611.594 437.884 612.007 437.884C623.984 437.884 635.927 437.334 647.9 437.334" stroke="#E9EFA1" stroke-width="3" stroke-linecap="round"/>
<path d="M624.277 435.686C616.074 435.686 607.977 436.785 599.799 436.785C591.664 436.785 604.632 435.537 606.574 435.167C619.656 432.676 632.774 431.805 645.947 430.07C649.403 429.615 659.78 428.544 656.294 428.544C634.694 428.544 569.904 429.603 591.497 429.063C602.406 428.79 613.282 426.528 624.033 424.821C629.534 423.947 635.096 423.555 640.606 422.745C642.377 422.485 651.693 420.853 644.879 420.853C629.573 420.853 614.313 423.713 599.158 425.492C591.202 426.426 567.31 428.544 575.321 428.544C594.991 428.544 614.688 428.691 634.318 427.201C636.861 427.008 639.375 426.481 641.918 426.347C643.382 426.27 638.985 426.361 637.523 426.469C612.41 428.329 587.369 431.706 562.38 434.71C558.886 435.129 556.756 435.345 553.467 435.595C550.682 435.806 552.236 435.686 553.345 435.686C562.183 435.686 571.014 435.59 579.838 435.015C586.26 434.596 592.599 433.764 598.944 432.726C603.565 431.969 598.79 432.382 596.838 432.42C590.244 432.55 583.615 432.696 577.03 433.061C568.109 433.557 559.343 435.54 550.476 436.541C549.185 436.687 546.329 436.488 545.104 437.304C544.859 437.468 545.694 437.334 545.99 437.334C548.38 437.334 550.771 437.334 553.162 437.334C572.915 437.334 592.658 436.785 612.404 436.785C612.879 436.785 621.876 436.785 616.463 436.785C608.528 436.785 600.592 436.785 592.657 436.785C571.105 436.785 548.249 435.337 527.036 440.051C525.367 440.422 533.873 440.081 532.163 440.081C522.908 440.081 513.66 441.519 504.45 442.279C500.728 442.586 497.016 443.298 493.279 443.378C491.397 443.418 487.081 443.378 492.12 443.378C510.595 443.378 529.071 443.378 547.546 443.378C549.886 443.378 556.889 443.099 554.566 443.378C548.391 444.119 542.249 445.118 536.07 445.85C527.155 446.906 518.175 448.176 509.211 448.749C507.221 448.877 501.235 448.871 503.229 448.871C516.119 448.871 528.898 447.347 541.503 444.721C547.836 443.401 554.201 442.313 560.609 441.424C565.944 440.684 555.366 441.18 554.932 441.18C538.563 441.18 522.193 441.18 505.824 441.18C496.471 441.18 505.987 441.18 509.272 441.18C518.542 441.18 505.414 441.719 505.61 441.729C505.918 441.747 509.024 441.774 507.685 442.157C504.977 442.931 501.349 442.441 498.498 442.798C494.24 443.33 500.671 443.196 502.192 443.378C506.66 443.911 520.09 445.026 515.59 445.026C508.511 445.026 501.442 445.575 494.348 445.575C493.49 445.575 491.312 445.575 493.707 445.575C497.186 445.575 500.666 445.599 504.145 445.575C507.874 445.549 511.566 445.263 515.285 445.056C515.752 445.03 518.489 445.026 516.384 445.026C512.945 445.026 502.629 445.026 506.068 445.026C512.463 445.026 519.388 445.285 525.693 444.354C530.656 443.622 524.189 443.378 522.824 443.378C519.365 443.378 515.906 443.378 512.447 443.378C497.654 443.378 542.032 443.378 556.825 443.378C557.865 443.378 554.247 443.421 554.017 443.439C549.339 443.806 544.798 444.985 540.099 445.3C529.701 445.999 498.424 446.125 508.845 446.125C515.739 446.125 522.675 447.204 529.539 447.773C533.02 448.061 536.987 447.669 540.404 448.353C542.674 448.807 535.85 449.298 533.537 449.39C529.548 449.55 525.535 449.421 521.542 449.421C519.19 449.421 526.054 449.421 526.639 449.421C531.656 449.421 527.93 449.421 525.266 449.421C520.647 449.421 516.028 449.421 511.409 449.421C507.195 449.421 513.862 449.416 514.827 449.421C520.167 449.449 525.485 449.789 530.821 449.94C533.164 450.006 534.701 449.97 531.706 449.97C527.219 449.97 522.732 449.97 518.246 449.97C517.073 449.97 509.509 449.97 514.827 449.97C522.702 449.97 530.576 449.97 538.451 449.97C538.534 449.97 541.016 449.846 539.977 450.092C536.802 450.844 533.524 451.034 530.271 451.069C526.661 451.107 523.047 451.069 519.436 451.069C512.448 451.069 526.747 451.069 527.28 451.069C540.231 451.069 579.085 451.069 566.134 451.069C561.891 451.069 557.649 451.069 553.406 451.069" stroke="#E9EFA1" stroke-width="3" stroke-linecap="round"/>
<path d="M359.474 442.279C371.528 442.279 383.395 441.729 395.428 441.729C402.059 441.729 408.621 441.18 415.206 441.18C426.168 441.18 436.926 439.92 447.803 439.532C455.943 439.241 464.201 439.333 472.342 439.532C482.16 439.771 491.89 440.631 501.734 440.631C504.032 440.631 503.318 441.735 501.398 442.279C498.015 443.237 494.251 443.42 490.777 444.202C480.225 446.576 469.431 446.125 458.638 446.125C445.185 446.125 432.028 443.378 418.807 443.378" stroke="#E9EFA1" stroke-width="10"/>
<path d="M220.48 443.927C235.052 443.927 249.316 442.279 263.881 442.279C272.122 442.279 280.363 442.279 288.604 442.279" stroke="#E9EFA1" stroke-width="10"/>
<path d="M338.048 441.729C333.289 441.729 328.637 441.18 323.886 441.18C321.483 441.18 318.685 441.58 316.317 441.15C314.244 440.773 314.89 440.631 316.683 440.631C320.061 440.631 323.439 440.631 326.816 440.631C329.645 440.631 332.473 440.631 335.301 440.631" stroke="black" stroke-width="10" stroke-linecap="round"/>
<path d="M335.301 440.631C329.725 440.631 323.56 441.515 318.27 439.532" stroke="black" stroke-width="10" stroke-linecap="round"/>
<path d="M346.289 440.081C341.547 440.081 336.739 440.33 332.005 440.081C330.507 440.002 329.033 438.983 327.61 438.983" stroke="black" stroke-width="10" stroke-linecap="round"/>
<path d="M313.326 438.983C324.675 440.521 336.492 441.729 347.937 441.729C353.92 441.729 345.199 441.729 343.542 441.729C340.779 441.729 337.516 441.602 334.874 440.753C332.745 440.069 330.512 439.928 328.342 439.471C325.296 438.83 322.25 437.659 319.247 436.816C315.498 435.763 316.198 435.646 319.491 435.686C324.294 435.746 328.796 437.139 333.439 438.158C335.864 438.691 338.369 439.394 340.856 439.532C342.654 439.632 337.255 439.532 335.454 439.532C329.909 439.532 324.364 439.532 318.82 439.532C317.172 439.532 315.523 439.532 313.875 439.532C310.658 439.532 318.574 439.754 319.308 439.837C323.987 440.365 327.939 441.729 332.676 441.729C336.11 441.729 327.168 441.729 326.358 441.729C325.587 441.729 319.475 442.144 319.491 442.157C320.583 443.05 323.605 443.527 324.924 443.927C329.04 445.176 333.312 445.977 337.499 446.949C339.714 447.463 346.457 448.322 344.183 448.322C341.774 448.322 339.357 448.384 336.949 448.322C331.547 448.184 323.308 447.468 318.82 444.476" stroke="black" stroke-width="10" stroke-linecap="round"/>
<path d="M321.567 441.729C325.209 440.872 336.479 440.631 332.737 440.631C323.279 440.631 314.245 438.348 304.902 437.365C303.455 437.213 302.126 436.873 300.751 436.358C299.169 435.765 304.128 436.21 305.818 436.236C307.273 436.258 318.294 437.383 316.286 439.837C314.613 441.883 313.875 444.083 313.875 446.674C313.875 448.956 318.676 449.561 320.224 449.97C322.38 450.541 322.665 451.145 322.665 448.597C322.665 446.772 323.308 443.748 322.635 442.065C321.852 440.109 320.861 445.888 319.918 447.773" stroke="black" stroke-width="10" stroke-linecap="round"/>
<path d="M318.82 441.729L337.499 441.729" stroke="black" stroke-width="10" stroke-linecap="round"/>
<path d="M311.128 441.729C314.933 441.729 318.738 441.729 322.543 441.729C325.056 441.729 327.569 441.729 330.082 441.729C331.516 441.729 332.951 441.729 334.385 441.729C337.071 441.729 329.013 441.668 326.328 441.729C323.406 441.797 314.707 442.828 317.629 442.828C320.814 442.828 323.998 442.828 327.182 442.828C331.822 442.828 336.461 442.828 341.1 442.828C342.728 442.828 344.356 442.828 345.984 442.828C349.658 442.828 344.958 443.454 343.481 443.805C333.606 446.152 323.494 447.773 313.326 447.773C308.947 447.773 322.071 448.322 326.45 448.322C330.161 448.322 320.255 449.879 319.125 449.94C316.289 450.093 313.419 449.97 310.579 449.97" stroke="black" stroke-width="10" stroke-linecap="round"/>
<path d="M617.572 442.068C598.025 447.112 537.321 447.318 557.016 442.886C586.062 436.351 616.782 444.23 645.94 439.159C649.987 438.455 644.284 438.795 643.485 438.795C620.703 438.795 598.249 437.155 575.655 433.976C539.718 428.919 573.699 431.616 584.293 434.794C585.176 435.059 586.506 435.178 586.748 436.067C587.416 438.515 581.738 436.995 579.201 437.067C571.812 437.278 564.407 437.158 557.016 437.158" stroke="#E9EFA1" stroke-width="10" stroke-linecap="round"/>
<path d="M667.957 444.338C664.969 435.001 664.298 422.825 664.298 439.256C664.298 443.153 667.957 466.905 667.957 455.112C667.957 443.694 667.957 432.277 667.957 420.859C667.957 411.72 667.133 396.554 668.161 416.59C669.33 439.392 671.616 461.932 671.616 484.791C671.616 493.126 670.165 467.913 672.023 459.787C674.356 449.581 675.275 438.496 675.275 427.872" stroke="#E9EFA1" stroke-width="3" stroke-linecap="round"/>
<path d="M102.637 444.338L377.064 444.338" stroke="#E9EFA1" stroke-width="3" stroke-linecap="round"/>
<path d="M660.929 442.121C660.301 442.121 638.717 442.726 646.834 443.35C651.064 443.675 655.383 443.422 659.628 443.422C664.278 443.422 678.228 443.422 673.578 443.422C670.969 443.422 668.116 443.736 665.555 443.133C661.895 442.272 658.671 441.02 655.941 438.29C654.366 436.715 669.578 436.917 672.06 436.917C677.927 436.917 668.93 436.917 667.94 436.917C663.868 436.917 659.796 436.917 655.724 436.917C642.025 436.917 677.976 438.218 663.531 438.218C657.682 438.218 644.761 436.76 658.037 439.23C660.853 439.754 669.154 439.684 666.494 440.748C665.598 441.106 659.317 440.82 660.929 440.82C664.977 440.82 676.44 442.993 673.072 440.748C670.508 439.038 671.337 435.808 671.337 433.013" stroke="#E9EFA1" stroke-width="3" stroke-linecap="round"/>
</g>
<defs>
<clipPath id="clip0_106_404">
<rect width="686" height="445" fill="white" transform="translate(-14)"/>
</clipPath>
</defs>
</svg>
