<svg width="476" height="344" viewBox="0 0 476 344" fill="none" xmlns="http://www.w3.org/2000/svg">
<g clip-path="url(#clip0_113_378)">
<path d="M13.7337 326.981C5.55113 332.924 3.00696 343.691 3.00696 343.691C3.00696 343.691 13.7294 344.823 21.9119 338.879C30.0945 332.936 32.6387 322.169 32.6387 322.169C32.6387 322.169 21.9163 321.037 13.7337 326.981Z" fill="#FF0668"/>
<path d="M17.007 329.957C12.9122 339.357 3.1253 344 3.1253 344C3.1253 344 -0.022614 333.403 4.07221 324.003C8.16703 314.603 17.9539 309.96 17.9539 309.96C17.9539 309.96 21.1019 320.558 17.007 329.957Z" fill="#FF0065"/>
<path d="M476 0.152222H214.77V172.137H476V0.152222Z" fill="#E5E5E5"/>
<path d="M468.53 21.7235H222.24V87.2857H468.53V21.7235Z" fill="white"/>
<path d="M468.53 96.3915H222.24V161.954H468.53V96.3915Z" fill="#C2185B"/>
<path d="M475.888 0H214.659V11.4086H475.888V0Z" fill="#3F3D56"/>
<path d="M222.906 7.94712C224.042 7.94712 224.963 7.00043 224.963 5.83263C224.963 4.66483 224.042 3.71814 222.906 3.71814C221.77 3.71814 220.849 4.66483 220.849 5.83263C220.849 7.00043 221.77 7.94712 222.906 7.94712Z" fill="white"/>
<path d="M230.713 7.94712C231.849 7.94712 232.77 7.00043 232.77 5.83263C232.77 4.66483 231.849 3.71814 230.713 3.71814C229.577 3.71814 228.656 4.66483 228.656 5.83263C228.656 7.00043 229.577 7.94712 230.713 7.94712Z" fill="white"/>
<path d="M238.521 7.94712C239.657 7.94712 240.578 7.00043 240.578 5.83263C240.578 4.66483 239.657 3.71814 238.521 3.71814C237.385 3.71814 236.464 4.66483 236.464 5.83263C236.464 7.00043 237.385 7.94712 238.521 7.94712Z" fill="white"/>
<path d="M391.175 42.3275H308.83V46.3297H391.175V42.3275Z" fill="#CBCBCB"/>
<path d="M391.175 52.7333H308.83V56.7355H391.175V52.7333Z" fill="#CBCBCB"/>
<path d="M391.175 63.1392H308.83V67.1414H391.175V63.1392Z" fill="#CBCBCB"/>
<path d="M302.136 47.0917C303.539 47.0917 304.677 45.9223 304.677 44.4797C304.677 43.0372 303.539 41.8678 302.136 41.8678C300.732 41.8678 299.595 43.0372 299.595 44.4797C299.595 45.9223 300.732 47.0917 302.136 47.0917Z" fill="#CBCBCB"/>
<path d="M386.558 116.766H304.213V120.768H386.558V116.766Z" fill="white"/>
<path d="M386.558 127.171H304.213V131.174H386.558V127.171Z" fill="white"/>
<path d="M386.558 137.577H304.213V141.579H386.558V137.577Z" fill="white"/>
<path d="M292.222 120.759C293.625 120.759 294.763 119.589 294.763 118.147C294.763 116.704 293.625 115.535 292.222 115.535C290.819 115.535 289.681 116.704 289.681 118.147C289.681 119.589 290.819 120.759 292.222 120.759Z" fill="white"/>
<path d="M103.78 204.682L95.703 167.318L93.864 152.915L80.2023 154.085L81.6034 174.16L95.9426 208.287C95.4802 209.464 95.3705 210.756 95.6278 211.997C95.8852 213.239 96.4977 214.373 97.3867 215.253C98.2757 216.134 99.4006 216.722 100.617 216.94C101.833 217.159 103.085 216.999 104.212 216.481C105.339 215.962 106.29 215.109 106.942 214.031C107.594 212.953 107.917 211.7 107.871 210.431C107.824 209.163 107.41 207.938 106.681 206.913C105.952 205.889 104.942 205.112 103.78 204.682H103.78Z" fill="#9F616A"/>
<path d="M123.628 336.639H130.529L133.812 309.277L123.627 309.277L123.628 336.639Z" fill="#9F616A"/>
<path d="M121.868 334.323L135.458 334.323H135.458C137.755 334.323 139.958 335.261 141.582 336.93C143.207 338.6 144.119 340.864 144.119 343.225V343.515L121.868 343.516L121.868 334.323Z" fill="#2F2E41"/>
<path d="M67.2134 331.404L73.8773 333.246L83.9625 307.7L74.1267 304.981L67.2134 331.404Z" fill="#9F616A"/>
<path d="M66.0987 328.697L79.2225 332.326L79.223 332.326C81.441 332.94 83.3312 334.434 84.4777 336.48C85.6242 338.526 85.9331 340.956 85.3366 343.236L85.2634 343.516L63.776 337.574L66.0987 328.697Z" fill="#2F2E41"/>
<path d="M134.672 216.69L137.731 222.13C137.731 222.13 141.092 223.074 139.994 234.338C138.895 245.602 133.449 273.469 133.449 273.469C133.449 273.469 138.848 312.338 133.53 320.55L132.568 327.602L122.527 328.589L122.273 322.331C122.273 322.331 115.009 293.583 116.27 281.018L110.3 235.401C110.3 235.401 97.6335 268.751 93.7466 275.076C93.7466 275.076 87.2532 313.888 81.4196 315.976L79.3128 323.086L68.7413 321.506L70.6536 313.341C70.6536 313.341 70.7578 275.202 79.3874 264.285L86.0554 215.808L134.672 216.69Z" fill="#0C0C0C"/>
<path d="M117.78 224.599C113.09 224.599 108.734 223.889 106.19 221.766C102.5 218.687 97.7959 219.338 93.6455 219.914C89.4879 220.49 85.8973 220.987 84.5574 217.495L84.5337 217.433L84.5385 217.367L88.6787 160.336L83.1829 140.615L83.1967 140.546C83.2163 140.447 85.2546 130.684 94.2243 126.074L106.314 120.369L125.915 122.029L138.212 132.046V132.185L138.247 221.66L138.035 221.715C137.38 221.888 126.945 224.599 117.78 224.599Z" fill="#CBCBCB"/>
<path d="M91.498 159.727L78.8857 155.582L83.466 139.178L89.9833 139.917L91.498 159.727Z" fill="#CBCBCB"/>
<path d="M150.499 213.94L142.422 176.577L140.583 162.173L126.922 163.343L128.323 183.419L142.662 217.545C142.199 218.722 142.09 220.014 142.347 221.255C142.604 222.497 143.217 223.631 144.106 224.512C144.995 225.392 146.12 225.98 147.336 226.199C148.552 226.417 149.804 226.257 150.932 225.739C152.059 225.22 153.009 224.367 153.661 223.289C154.313 222.211 154.636 220.958 154.59 219.689C154.543 218.421 154.129 217.196 153.4 216.171C152.671 215.147 151.661 214.37 150.499 213.94H150.499Z" fill="#9F616A"/>
<path d="M125.042 165.762L123.969 151.056L137.56 131.686L137.698 131.681C137.754 131.678 143.221 131.581 144.206 140.19C145.165 148.583 142.23 164.19 142.201 164.346L142.159 164.564L125.042 165.762Z" fill="#CBCBCB"/>
<path d="M119.873 116.222C126.867 115.055 131.617 108.281 130.482 101.091C129.347 93.9005 122.757 89.0177 115.763 90.1845C108.769 91.3513 104.019 98.1258 105.154 105.316C106.289 112.506 112.879 117.389 119.873 116.222Z" fill="#9F616A"/>
<path d="M129.547 101.245C129.547 101.245 129.65 96.6086 130.22 94.557C130.791 92.5053 131.931 90.7468 131.361 90.7468C130.791 90.7468 130.505 89.2814 130.505 89.2814C130.505 89.2814 129.935 88.9883 129.65 89.2814C129.365 89.5745 129.08 87.2298 129.08 87.2298C129.08 87.2298 128.795 86.3505 128.51 86.9367C128.225 87.5228 128.225 87.2297 127.939 86.3505C127.654 85.4713 126.229 84.8851 126.229 84.8851C126.229 84.8851 120.812 85.1781 119.956 84.0058C119.101 82.8334 109.407 83.7127 107.411 85.1781C105.416 86.6436 96.5772 91.9192 98.0028 96.3155C99.4284 100.712 103.532 110.834 104.56 111.849C106.187 113.454 107.312 114.033 115.007 115.607C116.513 115.915 124.199 110.862 124.199 109.982C124.199 109.103 123.272 106.315 124.762 105.932C127.013 105.353 127.266 108.279 127.837 107.4C128.407 106.521 129.547 101.245 129.547 101.245Z" fill="#090909"/>
<path d="M205.021 343.751H-9.43712C-9.5864 343.751 -9.72958 343.69 -9.83514 343.581C-9.9407 343.473 -10 343.325 -10 343.172C-10 343.018 -9.9407 342.871 -9.83514 342.763C-9.72958 342.654 -9.5864 342.593 -9.43712 342.593H205.021C205.17 342.593 205.313 342.654 205.419 342.763C205.525 342.871 205.584 343.018 205.584 343.172C205.584 343.325 205.525 343.473 205.419 343.581C205.313 343.69 205.17 343.751 205.021 343.751Z" fill="#CBCBCB"/>
</g>
<defs>
<clipPath id="clip0_113_378">
<rect width="486" height="344" fill="white" transform="translate(-10)"/>
</clipPath>
</defs>
</svg>
