<svg width="82" height="82" viewBox="0 0 82 82" fill="none" xmlns="http://www.w3.org/2000/svg">
<path d="M81.976 0H0.0240234C0.0107557 0 0 0.0107557 0 0.0240234V81.976C0 81.9892 0.0107557 82 0.0240234 82H81.976C81.9892 82 82 81.9892 82 81.976V0.0240234C82 0.0107557 81.9892 0 81.976 0Z" fill="#25D366"/>
<path d="M19.6992 62.9414L21.9414 52.5312C19.0595 47.9858 17.9353 42.5449 18.7797 37.2295C19.624 31.914 22.3789 27.0894 26.5274 23.6607C30.676 20.2319 35.9331 18.4348 41.3124 18.6065C46.6918 18.7781 51.8236 20.9067 55.7451 24.593C59.6666 28.2792 62.1083 33.2697 62.6121 38.6281C63.1158 43.9866 61.647 49.3447 58.4812 53.6972C55.3154 58.0497 50.6702 61.0975 45.4171 62.2687C40.164 63.4399 34.6641 62.654 29.9492 60.0586L19.6992 62.9414Z" fill="#25D366" stroke="white" stroke-width="5"/>
<path d="M49.3282 43.7227C48.8477 43.4024 48.3672 43.2422 47.8867 43.8829L45.9649 46.4454C45.4844 46.7657 45.1641 46.9258 44.5235 46.6055C42.1211 45.3243 38.7578 43.8829 35.875 39.0782C35.7149 38.4376 36.0352 38.1172 36.3555 37.7969L37.7969 35.5547C38.1172 35.2344 37.9571 34.9141 37.7969 34.5938L35.875 29.9493C35.3946 28.668 34.9141 28.8282 34.4336 28.8282H33.1524C32.8321 28.8282 32.1914 28.9883 31.5508 29.629C28.0274 33.1524 29.4688 38.1172 32.0313 41.3204C32.5117 41.961 35.7149 47.7266 42.6016 50.7696C47.7266 53.0118 48.8477 52.6915 50.2891 52.3711C52.0508 52.211 53.8125 50.7696 54.6133 49.3282C54.7735 48.8477 55.5743 46.7657 54.9336 46.4454" fill="white"/>
</svg>
